<svg xmlns="http://www.w3.org/2000/svg" xmlns:xlink="http://www.w3.org/1999/xlink" xmlns:lucid="lucid" width="1196.51" height="1086.6"><g transform="translate(0 0)" lucid:page-tab-id="0_0"><path d="M0 0h1196.5v1086.6H0z" fill="#fff"/><path d="M60 148.13a8 8 0 0 1 8-8h244a8 8 0 0 1 8 8v884a8 8 0 0 1-8 8H68a8 8 0 0 1-8-8z" stroke="#333" fill="#fff"/><use xlink:href="#a" transform="matrix(1,0,0,1,65,145.13515622696514) translate(62.1280864197531 454.3826388888889)"/><path d="M880 48.13a8 8 0 0 1 8-8h244a8 8 0 0 1 8 8v264a8 8 0 0 1-8 8H888a8 8 0 0 1-8-8z" stroke="#333" fill="#fff"/><use xlink:href="#b" transform="matrix(1,0,0,1,885,45.13515622696514) translate(85.45740740740742 141.4138888888889)"/><path d="M460 788.13a8 8 0 0 1 8-8h244a8 8 0 0 1 8 8v264a8 8 0 0 1-8 8H468a8 8 0 0 1-8-8z" stroke="#333" fill="#fff"/><use xlink:href="#c" transform="matrix(1,0,0,1,465,785.1351562269651) translate(93.82685185185187 141.4138888888889)"/><path d="M460 488.13a8 8 0 0 1 8-8h244a8 8 0 0 1 8 8v264a8 8 0 0 1-8 8H468a8 8 0 0 1-8-8z" stroke="#333" fill="#fff"/><use xlink:href="#d" transform="matrix(1,0,0,1,465,485.13515622696514) translate(54.28425925925927 141.4138888888889)"/><path d="M460 148.13a8 8 0 0 1 8-8h244a8 8 0 0 1 8 8v264a8 8 0 0 1-8 8H468a8 8 0 0 1-8-8z" stroke="#333" fill="#fff"/><use xlink:href="#e" transform="matrix(1,0,0,1,465,145.13515622696514) translate(60.38950617283952 141.4138888888889)"/><path d="M880 468.13a8 8 0 0 1 8-8h244a8 8 0 0 1 8 8v264a8 8 0 0 1-8 8H888a8 8 0 0 1-8-8z" stroke="#333" fill="#fff"/><use xlink:href="#f" transform="matrix(1,0,0,1,885,465.13515622696514) translate(55.53765432098767 141.4138888888889)"/><path d="M321 271.5h122.12" stroke="#333" fill="none"/><path d="M321 272h-.5v-1h.5z" stroke="#333" stroke-width=".05" fill="#333"/><path d="M457.88 271.5l-14.26 4.65v-9.27z" stroke="#333" fill="#333"/><path d="M321 605.52h122.12" stroke="#333" fill="none"/><path d="M321 606.02h-.5v-1h.5z" stroke="#333" stroke-width=".05" fill="#333"/><path d="M457.88 605.52l-14.26 4.63v-9.26z" stroke="#333" fill="#333"/><path d="M321 867.2h122.12" stroke="#333" fill="none"/><path d="M321 867.7h-.5v-1h.5z" stroke="#333" stroke-width=".05" fill="#333"/><path d="M457.88 867.2l-14.26 4.64v-9.27z" stroke="#333" fill="#333"/><path d="M721 280.13h67a12 12 0 0 0 12-12v-76a12 12 0 0 1 12-12h51.12" stroke="#333" fill="none"/><path d="M721 280.63h-.5v-1h.5z" stroke="#333" stroke-width=".05" fill="#333"/><path d="M877.88 180.13l-14.26 4.64v-9.27z" stroke="#333" fill="#333"/><path d="M721 280.13h67a12 12 0 0 1 12 12v296a12 12 0 0 0 12 12h51.12" stroke="#333" fill="none"/><path d="M721 280.63h-.5v-1h.5z" stroke="#333" stroke-width=".05" fill="#333"/><path d="M877.88 600.13l-14.26 4.64v-9.27z" stroke="#333" fill="#333"/><path d="M721 620.13h142.12" stroke="#333" fill="none"/><path d="M721 620.63h-.5v-1h.5z" stroke="#333" stroke-width=".05" fill="#333"/><path d="M877.88 620.13l-14.26 4.64v-9.27z" stroke="#333" fill="#333"/><path d="M721 920.13h67a12 12 0 0 0 12-12v-249.6a12 12 0 0 1 12-12h51.12" stroke="#333" fill="none"/><path d="M721 920.63h-.5v-1h.5z" stroke="#333" stroke-width=".05" fill="#333"/><path d="M877.88 646.53l-14.26 4.63v-9.26z" stroke="#333" fill="#333"/><defs><path fill="#333" d="M212-179c-10-28-35-45-73-45-59 0-87 40-87 99 0 60 29 101 89 101 43 0 62-24 78-52l27 14C228-24 195 4 139 4 59 4 22-46 18-125c-6-104 99-153 187-111 19 9 31 26 39 46" id="g"/><path fill="#333" d="M100-194c62-1 85 37 85 99 1 63-27 99-86 99S16-35 15-95c0-66 28-99 85-99zM99-20c44 1 53-31 53-75 0-43-8-75-51-75s-53 32-53 75 10 74 51 75" id="h"/><path fill="#333" d="M117-194c89-4 53 116 60 194h-32v-121c0-31-8-49-39-48C34-167 62-67 57 0H25l-1-190h30c1 10-1 24 2 32 11-22 29-35 61-36" id="i"/><path fill="#333" d="M59-47c-2 24 18 29 38 22v24C64 9 27 4 27-40v-127H5v-23h24l9-43h21v43h35v23H59v120" id="j"/><path fill="#333" d="M114-163C36-179 61-72 57 0H25l-1-190h30c1 12-1 29 2 39 6-27 23-49 58-41v29" id="k"/><path fill="#333" d="M24 0v-261h32V0H24" id="l"/><path fill="#333" d="M100-194c63 0 86 42 84 106H49c0 40 14 67 53 68 26 1 43-12 49-29l28 8c-11 28-37 45-77 45C44 4 14-33 15-96c1-61 26-98 85-98zm52 81c6-60-76-77-97-28-3 7-6 17-6 28h103" id="m"/><g id="a"><use transform="matrix(0.08086419753086417,0,0,0.08086419753086417,0,0)" xlink:href="#g"/><use transform="matrix(0.08086419753086417,0,0,0.08086419753086417,20.94382716049382,0)" xlink:href="#h"/><use transform="matrix(0.08086419753086417,0,0,0.08086419753086417,37.11666666666666,0)" xlink:href="#i"/><use transform="matrix(0.08086419753086417,0,0,0.08086419753086417,53.289506172839495,0)" xlink:href="#j"/><use transform="matrix(0.08086419753086417,0,0,0.08086419753086417,61.37592592592591,0)" xlink:href="#k"/><use transform="matrix(0.08086419753086417,0,0,0.08086419753086417,70.99876543209875,0)" xlink:href="#h"/><use transform="matrix(0.08086419753086417,0,0,0.08086419753086417,87.17160493827157,0)" xlink:href="#l"/><use transform="matrix(0.08086419753086417,0,0,0.08086419753086417,93.55987654320984,0)" xlink:href="#l"/><use transform="matrix(0.08086419753086417,0,0,0.08086419753086417,99.94814814814812,0)" xlink:href="#m"/><use transform="matrix(0.08086419753086417,0,0,0.08086419753086417,116.12098765432096,0)" xlink:href="#k"/></g><path fill="#333" d="M240 0l2-218c-23 76-54 145-80 218h-23L58-218 59 0H30v-248h44l77 211c21-75 51-140 76-211h43V0h-30" id="n"/><path fill="#333" d="M85-194c31 0 48 13 60 33l-1-100h32l1 261h-30c-2-10 0-23-3-31C134-8 116 4 85 4 32 4 16-35 15-94c0-66 23-100 70-100zm9 24c-40 0-46 34-46 75 0 40 6 74 45 74 42 0 51-32 51-76 0-42-9-74-50-73" id="o"/><g id="b"><use transform="matrix(0.08086419753086417,0,0,0.08086419753086417,0,0)" xlink:href="#n"/><use transform="matrix(0.08086419753086417,0,0,0.08086419753086417,24.178395061728388,0)" xlink:href="#h"/><use transform="matrix(0.08086419753086417,0,0,0.08086419753086417,40.35123456790122,0)" xlink:href="#o"/><use transform="matrix(0.08086419753086417,0,0,0.08086419753086417,56.52407407407406,0)" xlink:href="#m"/><use transform="matrix(0.08086419753086417,0,0,0.08086419753086417,72.6969135802469,0)" xlink:href="#l"/></g><path fill="#333" d="M137 0h-34L2-248h35l83 218 83-218h36" id="p"/><path fill="#333" d="M24-231v-30h32v30H24zM24 0v-190h32V0H24" id="q"/><path fill="#333" d="M206 0h-36l-40-164L89 0H53L-1-190h32L70-26l43-164h34l41 164 42-164h31" id="r"/><g id="c"><use transform="matrix(0.08086419753086417,0,0,0.08086419753086417,0,0)" xlink:href="#p"/><use transform="matrix(0.08086419753086417,0,0,0.08086419753086417,18.841358024691353,0)" xlink:href="#q"/><use transform="matrix(0.08086419753086417,0,0,0.08086419753086417,25.22962962962962,0)" xlink:href="#m"/><use transform="matrix(0.08086419753086417,0,0,0.08086419753086417,41.402469135802455,0)" xlink:href="#r"/></g><g id="d"><use transform="matrix(0.08086419753086417,0,0,0.08086419753086417,0,0)" xlink:href="#n"/><use transform="matrix(0.08086419753086417,0,0,0.08086419753086417,24.178395061728388,0)" xlink:href="#h"/><use transform="matrix(0.08086419753086417,0,0,0.08086419753086417,40.35123456790122,0)" xlink:href="#o"/><use transform="matrix(0.08086419753086417,0,0,0.08086419753086417,56.52407407407406,0)" xlink:href="#m"/><use transform="matrix(0.08086419753086417,0,0,0.08086419753086417,72.6969135802469,0)" xlink:href="#l"/><use transform="matrix(0.08086419753086417,0,0,0.08086419753086417,79.08518518518517,0)" xlink:href="#p"/><use transform="matrix(0.08086419753086417,0,0,0.08086419753086417,97.92654320987653,0)" xlink:href="#q"/><use transform="matrix(0.08086419753086417,0,0,0.08086419753086417,104.3148148148148,0)" xlink:href="#m"/><use transform="matrix(0.08086419753086417,0,0,0.08086419753086417,120.48765432098763,0)" xlink:href="#r"/></g><path fill="#333" d="M141-36C126-15 110 5 73 4 37 3 15-17 15-53c-1-64 63-63 125-63 3-35-9-54-41-54-24 1-41 7-42 31l-33-3c5-37 33-52 76-52 45 0 72 20 72 64v82c-1 20 7 32 28 27v20c-31 9-61-2-59-35zM48-53c0 20 12 33 32 33 41-3 63-29 60-74-43 2-92-5-92 41" id="s"/><path fill="#333" d="M177-190C167-65 218 103 67 71c-23-6-38-20-44-43l32-5c15 47 100 32 89-28v-30C133-14 115 1 83 1 29 1 15-40 15-95c0-56 16-97 71-98 29-1 48 16 59 35 1-10 0-23 2-32h30zM94-22c36 0 50-32 50-73 0-42-14-75-50-75-39 0-46 34-46 75s6 73 46 73" id="t"/><path fill="#333" d="M135-143c-3-34-86-38-87 0 15 53 115 12 119 90S17 21 10-45l28-5c4 36 97 45 98 0-10-56-113-15-118-90-4-57 82-63 122-42 12 7 21 19 24 35" id="u"/><g id="e"><use transform="matrix(0.08086419753086417,0,0,0.08086419753086417,0,0)" xlink:href="#n"/><use transform="matrix(0.08086419753086417,0,0,0.08086419753086417,24.178395061728388,0)" xlink:href="#s"/><use transform="matrix(0.08086419753086417,0,0,0.08086419753086417,40.35123456790122,0)" xlink:href="#i"/><use transform="matrix(0.08086419753086417,0,0,0.08086419753086417,56.52407407407406,0)" xlink:href="#s"/><use transform="matrix(0.08086419753086417,0,0,0.08086419753086417,72.6969135802469,0)" xlink:href="#t"/><use transform="matrix(0.08086419753086417,0,0,0.08086419753086417,88.86975308641975,0)" xlink:href="#m"/><use transform="matrix(0.08086419753086417,0,0,0.08086419753086417,105.04259259259257,0)" xlink:href="#k"/><use transform="matrix(0.08086419753086417,0,0,0.08086419753086417,114.66543209876541,0)" xlink:href="#u"/></g><path fill="#333" d="M233-177c-1 41-23 64-60 70L243 0h-38l-65-103H63V0H30v-248c88 3 205-21 203 71zM63-129c60-2 137 13 137-47 0-61-80-42-137-45v92" id="v"/><path fill="#333" d="M84 4C-5 8 30-112 23-190h32v120c0 31 7 50 39 49 72-2 45-101 50-169h31l1 190h-30c-1-10 1-25-2-33-11 22-28 36-60 37" id="w"/><g id="f"><use transform="matrix(0.08086419753086417,0,0,0.08086419753086417,0,0)" xlink:href="#v"/><use transform="matrix(0.08086419753086417,0,0,0.08086419753086417,20.94382716049382,0)" xlink:href="#m"/><use transform="matrix(0.08086419753086417,0,0,0.08086419753086417,37.11666666666666,0)" xlink:href="#s"/><use transform="matrix(0.08086419753086417,0,0,0.08086419753086417,53.289506172839495,0)" xlink:href="#u"/><use transform="matrix(0.08086419753086417,0,0,0.08086419753086417,67.84506172839505,0)" xlink:href="#w"/><use transform="matrix(0.08086419753086417,0,0,0.08086419753086417,84.01790123456789,0)" xlink:href="#k"/><use transform="matrix(0.08086419753086417,0,0,0.08086419753086417,93.64074074074072,0)" xlink:href="#u"/><use transform="matrix(0.08086419753086417,0,0,0.08086419753086417,108.19629629629628,0)" xlink:href="#m"/><use transform="matrix(0.08086419753086417,0,0,0.08086419753086417,124.36913580246912,0)" xlink:href="#u"/></g></defs></g></svg>