<svg xmlns="http://www.w3.org/2000/svg" xmlns:xlink="http://www.w3.org/1999/xlink" xmlns:lucid="lucid" width="2075.29" height="1723.23"><g transform="translate(0 0)" lucid:page-tab-id="0_0"><path d="M0 0h2075.3v1723.23H0z" fill="#fff"/><path d="M39.6 66a6 6 0 0 1 6-6H319a6 6 0 0 1 6 6v8a14.48 14.48 0 0 1-4.24 10.24l-1.52 1.52A14.48 14.48 0 0 1 309 90H45.6a6 6 0 0 1-6-6z" fill="#fff"/><path d="M325 60v20l-10 10H39.6" stroke="#3a414a" fill="none"/><path d="M39.6 66a6 6 0 0 1 6-6h1988a6 6 0 0 1 6 6v1608a6 6 0 0 1-6 6H45.6a6 6 0 0 1-6-6z" stroke="#3a414a" fill="none"/><use xlink:href="#a" transform="matrix(1,0,0,1,47.597720779451265,60) translate(82.47006172839514 28.622222222222184)"/><path d="M64.86 1340h1520v300h-1520z" stroke="#333" stroke-width="2" fill-opacity="0"/><use xlink:href="#b" transform="matrix(1,0,0,1,72.86087867418814,1348) translate(531.8848765432099 26.84444444444444)"/><path d="M1135.53 200h410.52v504h-410.52z" stroke="#333" stroke-width="2" fill="#fff"/><path d="M1135.53 264h410.52" stroke="#333" stroke-width="2" fill="none"/><use xlink:href="#c" transform="matrix(1,0,0,1,1143.527701242209,208) translate(56.611111111111114 32)"/><use xlink:href="#d" transform="matrix(1,0,0,1,1147.527701242209,272) translate(0 52)"/><use xlink:href="#e" transform="matrix(1,0,0,1,1147.527701242209,272) translate(11.11111111111111 52)"/><use xlink:href="#f" transform="matrix(1,0,0,1,1147.527701242209,272) translate(0 100)"/><use xlink:href="#d" transform="matrix(1,0,0,1,1147.527701242209,272) translate(0 148)"/><use xlink:href="#g" transform="matrix(1,0,0,1,1147.527701242209,272) translate(11.11111111111111 148)"/><use xlink:href="#h" transform="matrix(1,0,0,1,1147.527701242209,272) translate(68.77777777777777 148)"/><use xlink:href="#d" transform="matrix(1,0,0,1,1147.527701242209,272) translate(0 196)"/><use xlink:href="#g" transform="matrix(1,0,0,1,1147.527701242209,272) translate(11.11111111111111 196)"/><use xlink:href="#i" transform="matrix(1,0,0,1,1147.527701242209,272) translate(68.77777777777777 196)"/><use xlink:href="#d" transform="matrix(1,0,0,1,1147.527701242209,272) translate(0 244)"/><use xlink:href="#e" transform="matrix(1,0,0,1,1147.527701242209,272) translate(11.11111111111111 244)"/><use xlink:href="#j" transform="matrix(1,0,0,1,1147.527701242209,272) translate(0 292)"/><use xlink:href="#d" transform="matrix(1,0,0,1,1147.527701242209,272) translate(0 340)"/><use xlink:href="#g" transform="matrix(1,0,0,1,1147.527701242209,272) translate(11.11111111111111 340)"/><use xlink:href="#k" transform="matrix(1,0,0,1,1147.527701242209,272) translate(68.77777777777777 340)"/><use xlink:href="#d" transform="matrix(1,0,0,1,1147.527701242209,272) translate(0 388)"/><use xlink:href="#g" transform="matrix(1,0,0,1,1147.527701242209,272) translate(11.11111111111111 388)"/><use xlink:href="#l" transform="matrix(1,0,0,1,1147.527701242209,272) translate(68.77777777777777 388)"/><use xlink:href="#m" transform="matrix(1,0,0,1,1147.527701242209,272) translate(266.33333333333337 388)"/><path d="M624.86 210.35H1120v430H624.86z" stroke="#333" stroke-width="2" fill="#fff"/><path d="M624.86 274.36H1120" stroke="#333" stroke-width="2" fill="none"/><use xlink:href="#n" transform="matrix(1,0,0,1,632.8608786741881,218.35538583622395) translate(59.111111111111114 32)"/><use xlink:href="#o" transform="matrix(1,0,0,1,636.8608786741881,282.35538583622395) translate(0 63)"/><use xlink:href="#h" transform="matrix(1,0,0,1,636.8608786741881,282.35538583622395) translate(57.66666666666666 63)"/><use xlink:href="#d" transform="matrix(1,0,0,1,636.8608786741881,282.35538583622395) translate(0 111)"/><use xlink:href="#g" transform="matrix(1,0,0,1,636.8608786741881,282.35538583622395) translate(11.11111111111111 111)"/><use xlink:href="#p" transform="matrix(1,0,0,1,636.8608786741881,282.35538583622395) translate(68.77777777777777 111)"/><use xlink:href="#d" transform="matrix(1,0,0,1,636.8608786741881,282.35538583622395) translate(0 159)"/><use xlink:href="#g" transform="matrix(1,0,0,1,636.8608786741881,282.35538583622395) translate(11.11111111111111 159)"/><use xlink:href="#j" transform="matrix(1,0,0,1,636.8608786741881,282.35538583622395) translate(68.77777777777777 159)"/><use xlink:href="#d" transform="matrix(1,0,0,1,636.8608786741881,282.35538583622395) translate(0 207)"/><use xlink:href="#g" transform="matrix(1,0,0,1,636.8608786741881,282.35538583622395) translate(11.11111111111111 207)"/><use xlink:href="#k" transform="matrix(1,0,0,1,636.8608786741881,282.35538583622395) translate(68.77777777777777 207)"/><use xlink:href="#d" transform="matrix(1,0,0,1,636.8608786741881,282.35538583622395) translate(0 255)"/><use xlink:href="#g" transform="matrix(1,0,0,1,636.8608786741881,282.35538583622395) translate(11.11111111111111 255)"/><use xlink:href="#q" transform="matrix(1,0,0,1,636.8608786741881,282.35538583622395) translate(68.77777777777777 255)"/><use xlink:href="#d" transform="matrix(1,0,0,1,636.8608786741881,282.35538583622395) translate(0 303)"/><use xlink:href="#g" transform="matrix(1,0,0,1,636.8608786741881,282.35538583622395) translate(11.11111111111111 303)"/><use xlink:href="#l" transform="matrix(1,0,0,1,636.8608786741881,282.35538583622395) translate(68.77777777777777 303)"/><use xlink:href="#m" transform="matrix(1,0,0,1,636.8608786741881,282.35538583622395) translate(266.33333333333337 303)"/><path d="M64.86 140H2020v694H64.86z" stroke="#333" stroke-width="2" fill-opacity="0"/><use xlink:href="#r" transform="matrix(1,0,0,1,72.86087867418814,148) translate(925.3524691358025 26.84444444444444)"/><path d="M98.7 210.35H601.6v553H98.7z" stroke="#333" stroke-width="2" fill="#fff"/><path d="M98.7 274.36H601.6" stroke="#333" stroke-width="2" fill="none"/><use xlink:href="#s" transform="matrix(1,0,0,1,106.71081240150696,218.35538583622395) translate(193.55555555555554 32)"/><use xlink:href="#o" transform="matrix(1,0,0,1,110.71081240150696,282.35538583622395) translate(0 52.5)"/><use xlink:href="#h" transform="matrix(1,0,0,1,110.71081240150696,282.35538583622395) translate(57.66666666666666 52.5)"/><use xlink:href="#d" transform="matrix(1,0,0,1,110.71081240150696,282.35538583622395) translate(0 100.5)"/><use xlink:href="#g" transform="matrix(1,0,0,1,110.71081240150696,282.35538583622395) translate(11.11111111111111 100.5)"/><use xlink:href="#t" transform="matrix(1,0,0,1,110.71081240150696,282.35538583622395) translate(68.77777777777777 100.5)"/><use xlink:href="#d" transform="matrix(1,0,0,1,110.71081240150696,282.35538583622395) translate(0 148.5)"/><use xlink:href="#g" transform="matrix(1,0,0,1,110.71081240150696,282.35538583622395) translate(11.11111111111111 148.5)"/><use xlink:href="#p" transform="matrix(1,0,0,1,110.71081240150696,282.35538583622395) translate(68.77777777777777 148.5)"/><use xlink:href="#d" transform="matrix(1,0,0,1,110.71081240150696,282.35538583622395) translate(0 196.5)"/><use xlink:href="#g" transform="matrix(1,0,0,1,110.71081240150696,282.35538583622395) translate(11.11111111111111 196.5)"/><use xlink:href="#j" transform="matrix(1,0,0,1,110.71081240150696,282.35538583622395) translate(68.77777777777777 196.5)"/><use xlink:href="#d" transform="matrix(1,0,0,1,110.71081240150696,282.35538583622395) translate(0 244.5)"/><use xlink:href="#g" transform="matrix(1,0,0,1,110.71081240150696,282.35538583622395) translate(11.11111111111111 244.5)"/><use xlink:href="#k" transform="matrix(1,0,0,1,110.71081240150696,282.35538583622395) translate(68.77777777777777 244.5)"/><use xlink:href="#d" transform="matrix(1,0,0,1,110.71081240150696,282.35538583622395) translate(0 292.5)"/><use xlink:href="#g" transform="matrix(1,0,0,1,110.71081240150696,282.35538583622395) translate(11.11111111111111 292.5)"/><use xlink:href="#u" transform="matrix(1,0,0,1,110.71081240150696,282.35538583622395) translate(68.77777777777777 292.5)"/><use xlink:href="#d" transform="matrix(1,0,0,1,110.71081240150696,282.35538583622395) translate(0 340.5)"/><use xlink:href="#g" transform="matrix(1,0,0,1,110.71081240150696,282.35538583622395) translate(11.11111111111111 340.5)"/><use xlink:href="#q" transform="matrix(1,0,0,1,110.71081240150696,282.35538583622395) translate(68.77777777777777 340.5)"/><use xlink:href="#d" transform="matrix(1,0,0,1,110.71081240150696,282.35538583622395) translate(0 388.5)"/><use xlink:href="#g" transform="matrix(1,0,0,1,110.71081240150696,282.35538583622395) translate(11.11111111111111 388.5)"/><use xlink:href="#v" transform="matrix(1,0,0,1,110.71081240150696,282.35538583622395) translate(68.77777777777777 388.5)"/><use xlink:href="#d" transform="matrix(1,0,0,1,110.71081240150696,282.35538583622395) translate(0 436.5)"/><use xlink:href="#g" transform="matrix(1,0,0,1,110.71081240150696,282.35538583622395) translate(11.11111111111111 436.5)"/><use xlink:href="#l" transform="matrix(1,0,0,1,110.71081240150696,282.35538583622395) translate(68.77777777777777 436.5)"/><use xlink:href="#m" transform="matrix(1,0,0,1,110.71081240150696,282.35538583622395) translate(266.33333333333337 436.5)"/><path d="M64.86 880h1085.26v433.64H64.86z" stroke="#333" stroke-width="2" fill-opacity="0"/><g><use xlink:href="#w" transform="matrix(1,0,0,1,72.86087867418814,888) translate(448.64104938271606 26.84444444444444)"/></g><path d="M716.44 926.64h407.37v368H716.45z" stroke="#333" stroke-width="2" fill="#fff"/><path d="M716.44 990.64h407.37" stroke="#333" stroke-width="2" fill="none"/><g><use xlink:href="#x" transform="matrix(1,0,0,1,724.4398260426092,934.6446141637759) translate(88.27777777777776 32)"/></g><g><use xlink:href="#y" transform="matrix(1,0,0,1,728.4398260426092,998.6446141637759) translate(0 32)"/><use xlink:href="#z" transform="matrix(1,0,0,1,728.4398260426092,998.6446141637759) translate(117.55555555555556 32)"/><use xlink:href="#d" transform="matrix(1,0,0,1,728.4398260426092,998.6446141637759) translate(0 80)"/><use xlink:href="#A" transform="matrix(1,0,0,1,728.4398260426092,998.6446141637759) translate(11.11111111111111 80)"/><use xlink:href="#B" transform="matrix(1,0,0,1,728.4398260426092,998.6446141637759) translate(111.11111111111111 80)"/><use xlink:href="#d" transform="matrix(1,0,0,1,728.4398260426092,998.6446141637759) translate(0 128)"/><use xlink:href="#A" transform="matrix(1,0,0,1,728.4398260426092,998.6446141637759) translate(11.11111111111111 128)"/><use xlink:href="#C" transform="matrix(1,0,0,1,728.4398260426092,998.6446141637759) translate(111.11111111111111 128)"/><use xlink:href="#d" transform="matrix(1,0,0,1,728.4398260426092,998.6446141637759) translate(0 176)"/><use xlink:href="#A" transform="matrix(1,0,0,1,728.4398260426092,998.6446141637759) translate(11.11111111111111 176)"/><use xlink:href="#D" transform="matrix(1,0,0,1,728.4398260426092,998.6446141637759) translate(111.11111111111111 176)"/><use xlink:href="#d" transform="matrix(1,0,0,1,728.4398260426092,998.6446141637759) translate(0 224)"/><use xlink:href="#A" transform="matrix(1,0,0,1,728.4398260426092,998.6446141637759) translate(11.11111111111111 224)"/><use xlink:href="#E" transform="matrix(1,0,0,1,728.4398260426092,998.6446141637759) translate(111.11111111111111 224)"/><use xlink:href="#F" transform="matrix(1,0,0,1,728.4398260426092,998.6446141637759) translate(0 272)"/></g><path d="M97.5 965.98h565.26v210H97.5z" stroke="#333" stroke-width="2" fill="#fff"/><path d="M97.5 1029.98h565.26" stroke="#333" stroke-width="2" fill="none"/><g><use xlink:href="#G" transform="matrix(1,0,0,1,105.49245762155647,973.9834606228321) translate(232.88888888888889 32)"/></g><g><use xlink:href="#d" transform="matrix(1,0,0,1,109.49245762155647,1037.9834606228321) translate(0 49.5)"/><use xlink:href="#H" transform="matrix(1,0,0,1,109.49245762155647,1037.9834606228321) translate(11.11111111111111 49.5)"/><use xlink:href="#I" transform="matrix(1,0,0,1,109.49245762155647,1037.9834606228321) translate(82.22222222222223 49.5)"/><use xlink:href="#d" transform="matrix(1,0,0,1,109.49245762155647,1037.9834606228321) translate(0 97.5)"/><use xlink:href="#H" transform="matrix(1,0,0,1,109.49245762155647,1037.9834606228321) translate(11.11111111111111 97.5)"/><use xlink:href="#J" transform="matrix(1,0,0,1,109.49245762155647,1037.9834606228321) translate(82.22222222222223 97.5)"/></g><path d="M644.86 1400h500v209h-500z" stroke="#333" stroke-width="2" fill="#fff"/><path d="M644.86 1464h500" stroke="#333" stroke-width="2" fill="none"/><g><use xlink:href="#K" transform="matrix(1,0,0,1,652.8608786741881,1408) translate(107 32)"/></g><g><use xlink:href="#o" transform="matrix(1,0,0,1,656.8608786741881,1472) translate(0 49)"/><use xlink:href="#L" transform="matrix(1,0,0,1,656.8608786741881,1472) translate(57.66666666666666 49)"/><use xlink:href="#M" transform="matrix(1,0,0,1,656.8608786741881,1472) translate(0 97)"/></g><path d="M84.86 1400h540v209h-540z" stroke="#333" stroke-width="2" fill="#fff"/><path d="M84.86 1464h540" stroke="#333" stroke-width="2" fill="none"/><g><use xlink:href="#N" transform="matrix(1,0,0,1,92.86087867418814,1408) translate(13.9444444444444 32)"/></g><g><use xlink:href="#o" transform="matrix(1,0,0,1,96.86087867418814,1472) translate(0 48.5)"/><use xlink:href="#O" transform="matrix(1,0,0,1,96.86087867418814,1472) translate(57.66666666666666 48.5)"/><use xlink:href="#P" transform="matrix(1,0,0,1,96.86087867418814,1472) translate(175.22222222222223 48.5)"/><use xlink:href="#M" transform="matrix(1,0,0,1,96.86087867418814,1472) translate(0 96.5)"/></g><path d="M1164.86 1396.5h410.53v216h-410.54z" stroke="#333" stroke-width="2" fill="#fff"/><path d="M1164.86 1460.5h410.53" stroke="#333" stroke-width="2" fill="none"/><g><use xlink:href="#Q" transform="matrix(1,0,0,1,1172.8608786741881,1404.5) translate(35.888888888888886 32)"/></g><g><use xlink:href="#o" transform="matrix(1,0,0,1,1176.8608786741881,1468.5) translate(0 52)"/><use xlink:href="#R" transform="matrix(1,0,0,1,1176.8608786741881,1468.5) translate(57.66666666666666 52)"/><use xlink:href="#d" transform="matrix(1,0,0,1,1176.8608786741881,1468.5) translate(0 100)"/><use xlink:href="#g" transform="matrix(1,0,0,1,1176.8608786741881,1468.5) translate(11.11111111111111 100)"/><use xlink:href="#S" transform="matrix(1,0,0,1,1176.8608786741881,1468.5) translate(68.77777777777777 100)"/></g><path d="M1561.58 200h410.53v176H1561.6z" stroke="#333" stroke-width="2" fill="#fff"/><path d="M1561.58 264h410.53" stroke="#333" stroke-width="2" fill="none"/><g><use xlink:href="#T" transform="matrix(1,0,0,1,1569.581718273892,208) translate(44.33333333333334 32)"/></g><g><use xlink:href="#o" transform="matrix(1,0,0,1,1573.581718273892,272) translate(0 32)"/><use xlink:href="#U" transform="matrix(1,0,0,1,1573.581718273892,272) translate(57.66666666666666 32)"/><use xlink:href="#V" transform="matrix(1,0,0,1,1573.581718273892,272) translate(197.44444444444443 32)"/><use xlink:href="#M" transform="matrix(1,0,0,1,1573.581718273892,272) translate(0 80)"/></g><path d="M1560 620h438.42v173H1560z" stroke="#333" stroke-width="2" fill="#fff"/><path d="M1560 681.33h438.42" stroke="#333" stroke-width="2" fill="none"/><g><use xlink:href="#W" transform="matrix(1,0,0,1,1568,628) translate(-1.3672839506172636 30.555555555555557)"/></g><g><use xlink:href="#o" transform="matrix(1,0,0,1,1572,689.3333333333334) translate(0 32)"/><use xlink:href="#U" transform="matrix(1,0,0,1,1572,689.3333333333334) translate(57.66666666666666 32)"/><use xlink:href="#V" transform="matrix(1,0,0,1,1572,689.3333333333334) translate(197.44444444444443 32)"/><use xlink:href="#M" transform="matrix(1,0,0,1,1572,689.3333333333334) translate(0 80)"/></g><path d="M1561.58 420h410.53v176H1561.6z" stroke="#333" stroke-width="2" fill="#fff"/><path d="M1561.58 484h410.53" stroke="#333" stroke-width="2" fill="none"/><g><use xlink:href="#X" transform="matrix(1,0,0,1,1569.581718273892,428) translate(16.611111111111114 32)"/></g><g><use xlink:href="#o" transform="matrix(1,0,0,1,1573.581718273892,492) translate(0 32)"/><use xlink:href="#U" transform="matrix(1,0,0,1,1573.581718273892,492) translate(57.66666666666666 32)"/><use xlink:href="#V" transform="matrix(1,0,0,1,1573.581718273892,492) translate(197.44444444444443 32)"/><use xlink:href="#M" transform="matrix(1,0,0,1,1573.581718273892,492) translate(0 80)"/></g><defs><path fill="#1071e5" d="M230 0l2-204L168 0h-37L68-204 70 0H24v-248h70l56 185 57-185h69V0h-46" id="Y"/><path fill="#1071e5" d="M110-194c64 0 96 36 96 99 0 64-35 99-97 99-61 0-95-36-95-99 0-62 34-99 96-99zm-1 164c35 0 45-28 45-65 0-40-10-65-43-65-34 0-45 26-45 65 0 36 10 65 43 65" id="Z"/><path fill="#1071e5" d="M88-194c31-1 46 15 58 34l-1-101h50l1 261h-48c-2-10 0-23-3-31C134-8 116 4 84 4 32 4 16-41 15-95c0-56 19-97 73-99zm17 164c33 0 40-30 41-66 1-37-9-64-41-64s-38 30-39 65c0 43 13 65 39 65" id="aa"/><path fill="#1071e5" d="M185-48c-13 30-37 53-82 52C43 2 14-33 14-96s30-98 90-98c62 0 83 45 84 108H66c0 31 8 55 39 56 18 0 30-7 34-22zm-45-69c5-46-57-63-70-21-2 6-4 13-4 21h74" id="ab"/><path fill="#1071e5" d="M25 0v-261h50V0H25" id="ac"/><g id="a"><use transform="matrix(0.09938271604938258,0,0,0.09938271604938258,0,0)" xlink:href="#Y"/><use transform="matrix(0.09938271604938258,0,0,0.09938271604938258,29.71543209876539,0)" xlink:href="#Z"/><use transform="matrix(0.09938271604938258,0,0,0.09938271604938258,51.480246913580174,0)" xlink:href="#aa"/><use transform="matrix(0.09938271604938258,0,0,0.09938271604938258,73.24506172839496,0)" xlink:href="#ab"/><use transform="matrix(0.09938271604938258,0,0,0.09938271604938258,93.12160493827147,0)" xlink:href="#ac"/></g><path fill="#1071e5" d="M146-102V0H94v-102L6-248h54l60 105 60-105h54" id="ad"/><path fill="#1071e5" d="M85 4C-2 5 27-109 22-190h50c7 57-23 150 33 157 60-5 35-97 40-157h50l1 190h-47c-2-12 1-28-3-38-12 25-28 42-61 42" id="ae"/><path fill="#1071e5" d="M115-3C79 11 28 4 28-45v-112H4v-33h27l15-45h31v45h36v33H77v99c-1 23 16 31 38 25v30" id="af"/><path fill="#1071e5" d="M135-194c52 0 70 43 70 98 0 56-19 99-73 100-30 1-46-15-58-35L72 0H24l1-261h50v104c11-23 29-37 60-37zM114-30c31 0 40-27 40-66 0-37-7-63-39-63s-41 28-41 65c0 36 8 64 40 64" id="ag"/><path fill="#1071e5" d="M-4 44V30h207v14H-4" id="ah"/><path fill="#1071e5" d="M169-182c-1-43-94-46-97-3 18 66 151 10 154 114 3 95-165 93-204 36-6-8-10-19-12-30l50-8c3 46 112 56 116 5-17-69-150-10-154-114-4-87 153-88 188-35 5 8 8 18 10 28" id="ai"/><path fill="#1071e5" d="M133-34C117-15 103 5 69 4 32 3 11-16 11-54c-1-60 55-63 116-61 1-26-3-47-28-47-18 1-26 9-28 27l-52-2c7-38 36-58 82-57s74 22 75 68l1 82c-1 14 12 18 25 15v27c-30 8-71 5-69-32zm-48 3c29 0 43-24 42-57-32 0-66-3-65 30 0 17 8 27 23 27" id="aj"/><path fill="#1071e5" d="M135-150c-39-12-60 13-60 57V0H25l-1-190h47c2 13-1 29 3 40 6-28 27-53 61-41v41" id="ak"/><path fill="#1071e5" d="M190-63c-7 42-38 67-86 67-59 0-84-38-90-98-12-110 154-137 174-36l-49 2c-2-19-15-32-35-32-30 0-35 28-38 64-6 74 65 87 74 30" id="al"/><path fill="#1071e5" d="M114-157C55-157 80-60 75 0H25v-261h50l-1 109c12-26 28-41 61-42 86-1 58 113 63 194h-50c-7-57 23-157-34-157" id="am"/><path fill="#1071e5" d="M240-174c0 40-23 61-54 70L253 0h-59l-57-94H76V0H24v-248c93 4 217-23 216 74zM76-134c48-2 112 12 112-38 0-48-66-32-112-35v73" id="an"/><path fill="#1071e5" d="M137-138c1-29-70-34-71-4 15 46 118 7 119 86 1 83-164 76-172 9l43-7c4 19 20 25 44 25 33 8 57-30 24-41C81-84 22-81 20-136c-2-80 154-74 161-7" id="ao"/><path fill="#1071e5" d="M135-194c53 0 70 44 70 98 0 56-19 98-73 100-31 1-45-17-59-34 3 33 2 69 2 105H25l-1-265h48c2 10 0 23 3 31 11-24 29-35 60-35zM114-30c33 0 39-31 40-66 0-38-9-64-40-64-56 0-55 130 0 130" id="ap"/><path fill="#1071e5" d="M135-194c87-1 58 113 63 194h-50c-7-57 23-157-34-157-59 0-34 97-39 157H25l-1-190h47c2 12-1 28 3 38 12-26 28-41 61-42" id="aq"/><g id="b"><use transform="matrix(0.09320987654320986,0,0,0.09320987654320986,0,0)" xlink:href="#ad"/><use transform="matrix(0.09320987654320986,0,0,0.09320987654320986,19.8537037037037,0)" xlink:href="#Z"/><use transform="matrix(0.09320987654320986,0,0,0.09320987654320986,40.266666666666666,0)" xlink:href="#ae"/><use transform="matrix(0.09320987654320986,0,0,0.09320987654320986,60.67962962962963,0)" xlink:href="#af"/><use transform="matrix(0.09320987654320986,0,0,0.09320987654320986,71.77160493827161,0)" xlink:href="#ae"/><use transform="matrix(0.09320987654320986,0,0,0.09320987654320986,92.18456790123457,0)" xlink:href="#ag"/><use transform="matrix(0.09320987654320986,0,0,0.09320987654320986,112.59753086419754,0)" xlink:href="#ab"/><use transform="matrix(0.09320987654320986,0,0,0.09320987654320986,131.2395061728395,0)" xlink:href="#ah"/><use transform="matrix(0.09320987654320986,0,0,0.09320987654320986,149.88148148148147,0)" xlink:href="#ai"/><use transform="matrix(0.09320987654320986,0,0,0.09320987654320986,172.25185185185182,0)" xlink:href="#ab"/><use transform="matrix(0.09320987654320986,0,0,0.09320987654320986,190.8938271604938,0)" xlink:href="#aj"/><use transform="matrix(0.09320987654320986,0,0,0.09320987654320986,209.53580246913577,0)" xlink:href="#ak"/><use transform="matrix(0.09320987654320986,0,0,0.09320987654320986,222.58518518518514,0)" xlink:href="#al"/><use transform="matrix(0.09320987654320986,0,0,0.09320987654320986,241.2271604938271,0)" xlink:href="#am"/><use transform="matrix(0.09320987654320986,0,0,0.09320987654320986,261.6401234567901,0)" xlink:href="#ah"/><use transform="matrix(0.09320987654320986,0,0,0.09320987654320986,280.28209876543207,0)" xlink:href="#an"/><use transform="matrix(0.09320987654320986,0,0,0.09320987654320986,304.4234567901234,0)" xlink:href="#ab"/><use transform="matrix(0.09320987654320986,0,0,0.09320987654320986,323.06543209876537,0)" xlink:href="#ao"/><use transform="matrix(0.09320987654320986,0,0,0.09320987654320986,341.70740740740735,0)" xlink:href="#ap"/><use transform="matrix(0.09320987654320986,0,0,0.09320987654320986,362.1203703703703,0)" xlink:href="#Z"/><use transform="matrix(0.09320987654320986,0,0,0.09320987654320986,382.5333333333333,0)" xlink:href="#aq"/><use transform="matrix(0.09320987654320986,0,0,0.09320987654320986,402.94629629629634,0)" xlink:href="#ao"/><use transform="matrix(0.09320987654320986,0,0,0.09320987654320986,421.5882716049383,0)" xlink:href="#ab"/></g><path fill="#5dd8ff" d="M84 4C-5 8 30-112 23-190h32v120c0 31 7 50 39 49 72-2 45-101 50-169h31l1 190h-30c-1-10 1-25-2-33-11 22-28 36-60 37" id="ar"/><path fill="#5dd8ff" d="M115-194c55 1 70 41 70 98S169 2 115 4C84 4 66-9 55-30l1 105H24l-1-265h31l2 30c10-21 28-34 59-34zm-8 174c40 0 45-34 45-75s-6-73-45-74c-42 0-51 32-51 76 0 43 10 73 51 73" id="as"/><path fill="#5dd8ff" d="M212-179c-10-28-35-45-73-45-59 0-87 40-87 99 0 60 29 101 89 101 43 0 62-24 78-52l27 14C228-24 195 4 139 4 59 4 22-46 18-125c-6-104 99-153 187-111 19 9 31 26 39 46" id="at"/><path fill="#5dd8ff" d="M100-194c62-1 85 37 85 99 1 63-27 99-86 99S16-35 15-95c0-66 28-99 85-99zM99-20c44 1 53-31 53-75 0-43-8-75-51-75s-53 32-53 75 10 74 51 75" id="au"/><path fill="#5dd8ff" d="M210-169c-67 3-38 105-44 169h-31v-121c0-29-5-50-35-48C34-165 62-65 56 0H25l-1-190h30c1 10-1 24 2 32 10-44 99-50 107 0 11-21 27-35 58-36 85-2 47 119 55 194h-31v-121c0-29-5-49-35-48" id="av"/><path fill="#5dd8ff" d="M24-231v-30h32v30H24zM24 0v-190h32V0H24" id="aw"/><path fill="#5dd8ff" d="M117-194c89-4 53 116 60 194h-32v-121c0-31-8-49-39-48C34-167 62-67 57 0H25l-1-190h30c1 10-1 24 2 32 11-22 29-35 61-36" id="ax"/><path fill="#5dd8ff" d="M177-190C167-65 218 103 67 71c-23-6-38-20-44-43l32-5c15 47 100 32 89-28v-30C133-14 115 1 83 1 29 1 15-40 15-95c0-56 16-97 71-98 29-1 48 16 59 35 1-10 0-23 2-32h30zM94-22c36 0 50-32 50-73 0-42-14-75-50-75-39 0-46 34-46 75s6 73 46 73" id="ay"/><path fill="#5dd8ff" d="M185-189c-5-48-123-54-124 2 14 75 158 14 163 119 3 78-121 87-175 55-17-10-28-26-33-46l33-7c5 56 141 63 141-1 0-78-155-14-162-118-5-82 145-84 179-34 5 7 8 16 11 25" id="az"/><path fill="#5dd8ff" d="M106-169C34-169 62-67 57 0H25v-261h32l-1 103c12-21 28-36 61-36 89 0 53 116 60 194h-32v-121c2-32-8-49-39-48" id="aA"/><path fill="#5dd8ff" d="M206 0h-36l-40-164L89 0H53L-1-190h32L70-26l43-164h34l41 164 42-164h31" id="aB"/><g id="c"><use transform="matrix(0.1111111111111111,0,0,0.1111111111111111,0,0)" xlink:href="#ar"/><use transform="matrix(0.1111111111111111,0,0,0.1111111111111111,22.22222222222222,0)" xlink:href="#as"/><use transform="matrix(0.1111111111111111,0,0,0.1111111111111111,44.44444444444444,0)" xlink:href="#at"/><use transform="matrix(0.1111111111111111,0,0,0.1111111111111111,73.22222222222221,0)" xlink:href="#au"/><use transform="matrix(0.1111111111111111,0,0,0.1111111111111111,95.44444444444443,0)" xlink:href="#av"/><use transform="matrix(0.1111111111111111,0,0,0.1111111111111111,128.66666666666666,0)" xlink:href="#aw"/><use transform="matrix(0.1111111111111111,0,0,0.1111111111111111,137.44444444444443,0)" xlink:href="#ax"/><use transform="matrix(0.1111111111111111,0,0,0.1111111111111111,159.66666666666666,0)" xlink:href="#ay"/><use transform="matrix(0.1111111111111111,0,0,0.1111111111111111,181.88888888888889,0)" xlink:href="#az"/><use transform="matrix(0.1111111111111111,0,0,0.1111111111111111,208.55555555555554,0)" xlink:href="#aA"/><use transform="matrix(0.1111111111111111,0,0,0.1111111111111111,230.77777777777777,0)" xlink:href="#au"/><use transform="matrix(0.1111111111111111,0,0,0.1111111111111111,253,0)" xlink:href="#aB"/></g><path fill="#fc5fa3" d="M25 0v-261h50V0H25" id="aC"/><path fill="#fc5fa3" d="M185-48c-13 30-37 53-82 52C43 2 14-33 14-96s30-98 90-98c62 0 83 45 84 108H66c0 31 8 55 39 56 18 0 30-7 34-22zm-45-69c5-46-57-63-70-21-2 6-4 13-4 21h74" id="aD"/><path fill="#fc5fa3" d="M115-3C79 11 28 4 28-45v-112H4v-33h27l15-45h31v45h36v33H77v99c-1 23 16 31 38 25v30" id="aE"/><g id="e"><use transform="matrix(0.1111111111111111,0,0,0.1111111111111111,0,0)" xlink:href="#aC"/><use transform="matrix(0.1111111111111111,0,0,0.1111111111111111,11.11111111111111,0)" xlink:href="#aD"/><use transform="matrix(0.1111111111111111,0,0,0.1111111111111111,33.33333333333333,0)" xlink:href="#aE"/></g><path fill="#41a1c0" d="M101-234c-31-9-42 10-38 44h38v23H63V0H32v-167H5v-23h27c-7-52 17-82 69-68v24" id="aF"/><path fill="#41a1c0" d="M24-231v-30h32v30H24zM24 0v-190h32V0H24" id="aG"/><path fill="#41a1c0" d="M114-163C36-179 61-72 57 0H25l-1-190h30c1 12-1 29 2 39 6-27 23-49 58-41v29" id="aH"/><path fill="#41a1c0" d="M135-143c-3-34-86-38-87 0 15 53 115 12 119 90S17 21 10-45l28-5c4 36 97 45 98 0-10-56-113-15-118-90-4-57 82-63 122-42 12 7 21 19 24 35" id="aI"/><path fill="#41a1c0" d="M59-47c-2 24 18 29 38 22v24C64 9 27 4 27-40v-127H5v-23h24l9-43h21v43h35v23H59v120" id="aJ"/><path fill="#41a1c0" d="M-5 72V49h209v23H-5" id="aK"/><path fill="#41a1c0" d="M141-36C126-15 110 5 73 4 37 3 15-17 15-53c-1-64 63-63 125-63 3-35-9-54-41-54-24 1-41 7-42 31l-33-3c5-37 33-52 76-52 45 0 72 20 72 64v82c-1 20 7 32 28 27v20c-31 9-61-2-59-35zM48-53c0 20 12 33 32 33 41-3 63-29 60-74-43 2-92-5-92 41" id="aL"/><path fill="#41a1c0" d="M85-194c31 0 48 13 60 33l-1-100h32l1 261h-30c-2-10 0-23-3-31C134-8 116 4 85 4 32 4 16-35 15-94c0-66 23-100 70-100zm9 24c-40 0-46 34-46 75 0 40 6 74 45 74 42 0 51-32 51-76 0-42-9-74-50-73" id="aM"/><path fill="#41a1c0" d="M100-194c63 0 86 42 84 106H49c0 40 14 67 53 68 26 1 43-12 49-29l28 8c-11 28-37 45-77 45C44 4 14-33 15-96c1-61 26-98 85-98zm52 81c6-60-76-77-97-28-3 7-6 17-6 28h103" id="aN"/><path fill="#fff" fill-opacity=".85" d="M33-154v-36h34v36H33zM33 0v-36h34V0H33" id="aO"/><path fill="#d0a8ff" d="M185-189c-5-48-123-54-124 2 14 75 158 14 163 119 3 78-121 87-175 55-17-10-28-26-33-46l33-7c5 56 141 63 141-1 0-78-155-14-162-118-5-82 145-84 179-34 5 7 8 16 11 25" id="aP"/><path fill="#d0a8ff" d="M59-47c-2 24 18 29 38 22v24C64 9 27 4 27-40v-127H5v-23h24l9-43h21v43h35v23H59v120" id="aQ"/><path fill="#d0a8ff" d="M114-163C36-179 61-72 57 0H25l-1-190h30c1 12-1 29 2 39 6-27 23-49 58-41v29" id="aR"/><path fill="#d0a8ff" d="M24-231v-30h32v30H24zM24 0v-190h32V0H24" id="aS"/><path fill="#d0a8ff" d="M117-194c89-4 53 116 60 194h-32v-121c0-31-8-49-39-48C34-167 62-67 57 0H25l-1-190h30c1 10-1 24 2 32 11-22 29-35 61-36" id="aT"/><path fill="#d0a8ff" d="M177-190C167-65 218 103 67 71c-23-6-38-20-44-43l32-5c15 47 100 32 89-28v-30C133-14 115 1 83 1 29 1 15-40 15-95c0-56 16-97 71-98 29-1 48 16 59 35 1-10 0-23 2-32h30zM94-22c36 0 50-32 50-73 0-42-14-75-50-75-39 0-46 34-46 75s6 73 46 73" id="aU"/><path fill="#fff" fill-opacity=".85" d="M103-251c84 0 111 97 45 133-19 10-37 24-39 52H78c0-63 77-55 77-114 0-30-21-42-52-43-32 0-53 17-56 46l-32-2c7-45 34-72 88-72zM77 0v-35h34V0H77" id="aV"/><g id="f"><use transform="matrix(0.1111111111111111,0,0,0.1111111111111111,0,0)" xlink:href="#aF"/><use transform="matrix(0.1111111111111111,0,0,0.1111111111111111,11.11111111111111,0)" xlink:href="#aG"/><use transform="matrix(0.1111111111111111,0,0,0.1111111111111111,19.888888888888886,0)" xlink:href="#aH"/><use transform="matrix(0.1111111111111111,0,0,0.1111111111111111,33.11111111111111,0)" xlink:href="#aI"/><use transform="matrix(0.1111111111111111,0,0,0.1111111111111111,53.11111111111111,0)" xlink:href="#aJ"/><use transform="matrix(0.1111111111111111,0,0,0.1111111111111111,64.22222222222221,0)" xlink:href="#aK"/><use transform="matrix(0.1111111111111111,0,0,0.1111111111111111,86.44444444444443,0)" xlink:href="#aL"/><use transform="matrix(0.1111111111111111,0,0,0.1111111111111111,108.66666666666666,0)" xlink:href="#aG"/><use transform="matrix(0.1111111111111111,0,0,0.1111111111111111,117.44444444444444,0)" xlink:href="#aH"/><use transform="matrix(0.1111111111111111,0,0,0.1111111111111111,130.66666666666666,0)" xlink:href="#aK"/><use transform="matrix(0.1111111111111111,0,0,0.1111111111111111,152.88888888888889,0)" xlink:href="#aM"/><use transform="matrix(0.1111111111111111,0,0,0.1111111111111111,175.11111111111111,0)" xlink:href="#aL"/><use transform="matrix(0.1111111111111111,0,0,0.1111111111111111,197.33333333333334,0)" xlink:href="#aJ"/><use transform="matrix(0.1111111111111111,0,0,0.1111111111111111,208.44444444444446,0)" xlink:href="#aN"/><use transform="matrix(0.1111111111111111,0,0,0.1111111111111111,230.6666666666667,0)" xlink:href="#aO"/><use transform="matrix(0.1111111111111111,0,0,0.1111111111111111,241.77777777777783,0)" xlink:href="#aP"/><use transform="matrix(0.1111111111111111,0,0,0.1111111111111111,268.44444444444446,0)" xlink:href="#aQ"/><use transform="matrix(0.1111111111111111,0,0,0.1111111111111111,279.55555555555554,0)" xlink:href="#aR"/><use transform="matrix(0.1111111111111111,0,0,0.1111111111111111,292.77777777777777,0)" xlink:href="#aS"/><use transform="matrix(0.1111111111111111,0,0,0.1111111111111111,301.55555555555554,0)" xlink:href="#aT"/><use transform="matrix(0.1111111111111111,0,0,0.1111111111111111,323.77777777777777,0)" xlink:href="#aU"/><use transform="matrix(0.1111111111111111,0,0,0.1111111111111111,346,0)" xlink:href="#aV"/></g><g id="g"><use transform="matrix(0.1111111111111111,0,0,0.1111111111111111,0,0)" xlink:href="#aC"/><use transform="matrix(0.1111111111111111,0,0,0.1111111111111111,11.11111111111111,0)" xlink:href="#aD"/><use transform="matrix(0.1111111111111111,0,0,0.1111111111111111,33.33333333333333,0)" xlink:href="#aE"/></g><path fill="#d0a8ff" d="M33 0v-248h34V0H33" id="aW"/><g id="h"><use transform="matrix(0.1111111111111111,0,0,0.1111111111111111,0,0)" xlink:href="#aG"/><use transform="matrix(0.1111111111111111,0,0,0.1111111111111111,8.777777777777777,0)" xlink:href="#aM"/><use transform="matrix(0.1111111111111111,0,0,0.1111111111111111,31,0)" xlink:href="#aO"/><use transform="matrix(0.1111111111111111,0,0,0.1111111111111111,42.111111111111114,0)" xlink:href="#aW"/><use transform="matrix(0.1111111111111111,0,0,0.1111111111111111,53.22222222222223,0)" xlink:href="#aT"/><use transform="matrix(0.1111111111111111,0,0,0.1111111111111111,75.44444444444446,0)" xlink:href="#aQ"/></g><path fill="#41a1c0" d="M117-194c89-4 53 116 60 194h-32v-121c0-31-8-49-39-48C34-167 62-67 57 0H25l-1-190h30c1 10-1 24 2 32 11-22 29-35 61-36" id="aX"/><path fill="#41a1c0" d="M210-169c-67 3-38 105-44 169h-31v-121c0-29-5-50-35-48C34-165 62-65 56 0H25l-1-190h30c1 10-1 24 2 32 10-44 99-50 107 0 11-21 27-35 58-36 85-2 47 119 55 194h-31v-121c0-29-5-49-35-48" id="aY"/><g id="i"><use transform="matrix(0.1111111111111111,0,0,0.1111111111111111,0,0)" xlink:href="#aX"/><use transform="matrix(0.1111111111111111,0,0,0.1111111111111111,22.22222222222222,0)" xlink:href="#aL"/><use transform="matrix(0.1111111111111111,0,0,0.1111111111111111,44.44444444444444,0)" xlink:href="#aY"/><use transform="matrix(0.1111111111111111,0,0,0.1111111111111111,77.66666666666666,0)" xlink:href="#aN"/><use transform="matrix(0.1111111111111111,0,0,0.1111111111111111,99.88888888888889,0)" xlink:href="#aO"/><use transform="matrix(0.1111111111111111,0,0,0.1111111111111111,111,0)" xlink:href="#aP"/><use transform="matrix(0.1111111111111111,0,0,0.1111111111111111,137.66666666666666,0)" xlink:href="#aQ"/><use transform="matrix(0.1111111111111111,0,0,0.1111111111111111,148.77777777777777,0)" xlink:href="#aR"/><use transform="matrix(0.1111111111111111,0,0,0.1111111111111111,162,0)" xlink:href="#aS"/><use transform="matrix(0.1111111111111111,0,0,0.1111111111111111,170.77777777777777,0)" xlink:href="#aT"/><use transform="matrix(0.1111111111111111,0,0,0.1111111111111111,193,0)" xlink:href="#aU"/><use transform="matrix(0.1111111111111111,0,0,0.1111111111111111,215.22222222222223,0)" xlink:href="#aV"/></g><path fill="#41a1c0" d="M115-194c55 1 70 41 70 98S169 2 115 4C84 4 66-9 55-30l1 105H24l-1-265h31l2 30c10-21 28-34 59-34zm-8 174c40 0 45-34 45-75s-6-73-45-74c-42 0-51 32-51 76 0 43 10 73 51 73" id="aZ"/><path fill="#41a1c0" d="M100-194c62-1 85 37 85 99 1 63-27 99-86 99S16-35 15-95c0-66 28-99 85-99zM99-20c44 1 53-31 53-75 0-43-8-75-51-75s-53 32-53 75 10 74 51 75" id="ba"/><path fill="#41a1c0" d="M106-169C34-169 62-67 57 0H25v-261h32l-1 103c12-21 28-36 61-36 89 0 53 116 60 194h-32v-121c2-32-8-49-39-48" id="bb"/><g id="j"><use transform="matrix(0.1111111111111111,0,0,0.1111111111111111,0,0)" xlink:href="#aZ"/><use transform="matrix(0.1111111111111111,0,0,0.1111111111111111,22.22222222222222,0)" xlink:href="#ba"/><use transform="matrix(0.1111111111111111,0,0,0.1111111111111111,44.44444444444444,0)" xlink:href="#aI"/><use transform="matrix(0.1111111111111111,0,0,0.1111111111111111,64.44444444444444,0)" xlink:href="#aJ"/><use transform="matrix(0.1111111111111111,0,0,0.1111111111111111,75.55555555555556,0)" xlink:href="#aN"/><use transform="matrix(0.1111111111111111,0,0,0.1111111111111111,97.77777777777777,0)" xlink:href="#aH"/><use transform="matrix(0.1111111111111111,0,0,0.1111111111111111,111,0)" xlink:href="#aK"/><use transform="matrix(0.1111111111111111,0,0,0.1111111111111111,133.22222222222223,0)" xlink:href="#aZ"/><use transform="matrix(0.1111111111111111,0,0,0.1111111111111111,155.44444444444446,0)" xlink:href="#aL"/><use transform="matrix(0.1111111111111111,0,0,0.1111111111111111,177.66666666666669,0)" xlink:href="#aJ"/><use transform="matrix(0.1111111111111111,0,0,0.1111111111111111,188.7777777777778,0)" xlink:href="#bb"/><use transform="matrix(0.1111111111111111,0,0,0.1111111111111111,211.00000000000003,0)" xlink:href="#aO"/><use transform="matrix(0.1111111111111111,0,0,0.1111111111111111,222.11111111111114,0)" xlink:href="#aP"/><use transform="matrix(0.1111111111111111,0,0,0.1111111111111111,248.77777777777783,0)" xlink:href="#aQ"/><use transform="matrix(0.1111111111111111,0,0,0.1111111111111111,259.8888888888889,0)" xlink:href="#aR"/><use transform="matrix(0.1111111111111111,0,0,0.1111111111111111,273.11111111111114,0)" xlink:href="#aS"/><use transform="matrix(0.1111111111111111,0,0,0.1111111111111111,281.8888888888889,0)" xlink:href="#aT"/><use transform="matrix(0.1111111111111111,0,0,0.1111111111111111,304.11111111111114,0)" xlink:href="#aU"/><use transform="matrix(0.1111111111111111,0,0,0.1111111111111111,326.33333333333337,0)" xlink:href="#aV"/></g><path fill="#41a1c0" d="M108 0H70L1-190h34L89-25l56-165h34" id="bc"/><path fill="#41a1c0" d="M206 0h-36l-40-164L89 0H53L-1-190h32L70-26l43-164h34l41 164 42-164h31" id="bd"/><g id="k"><use transform="matrix(0.1111111111111111,0,0,0.1111111111111111,0,0)" xlink:href="#ba"/><use transform="matrix(0.1111111111111111,0,0,0.1111111111111111,22.22222222222222,0)" xlink:href="#bc"/><use transform="matrix(0.1111111111111111,0,0,0.1111111111111111,42.22222222222222,0)" xlink:href="#aN"/><use transform="matrix(0.1111111111111111,0,0,0.1111111111111111,64.44444444444444,0)" xlink:href="#aH"/><use transform="matrix(0.1111111111111111,0,0,0.1111111111111111,77.66666666666666,0)" xlink:href="#bc"/><use transform="matrix(0.1111111111111111,0,0,0.1111111111111111,97.66666666666666,0)" xlink:href="#aG"/><use transform="matrix(0.1111111111111111,0,0,0.1111111111111111,106.44444444444443,0)" xlink:href="#aN"/><use transform="matrix(0.1111111111111111,0,0,0.1111111111111111,128.66666666666666,0)" xlink:href="#bd"/><use transform="matrix(0.1111111111111111,0,0,0.1111111111111111,157.44444444444443,0)" xlink:href="#aO"/><use transform="matrix(0.1111111111111111,0,0,0.1111111111111111,168.55555555555554,0)" xlink:href="#aP"/><use transform="matrix(0.1111111111111111,0,0,0.1111111111111111,195.2222222222222,0)" xlink:href="#aQ"/><use transform="matrix(0.1111111111111111,0,0,0.1111111111111111,206.33333333333331,0)" xlink:href="#aR"/><use transform="matrix(0.1111111111111111,0,0,0.1111111111111111,219.55555555555554,0)" xlink:href="#aS"/><use transform="matrix(0.1111111111111111,0,0,0.1111111111111111,228.33333333333331,0)" xlink:href="#aT"/><use transform="matrix(0.1111111111111111,0,0,0.1111111111111111,250.55555555555554,0)" xlink:href="#aU"/><use transform="matrix(0.1111111111111111,0,0,0.1111111111111111,272.77777777777777,0)" xlink:href="#aV"/></g><path fill="#41a1c0" d="M177-190C167-65 218 103 67 71c-23-6-38-20-44-43l32-5c15 47 100 32 89-28v-30C133-14 115 1 83 1 29 1 15-40 15-95c0-56 16-97 71-98 29-1 48 16 59 35 1-10 0-23 2-32h30zM94-22c36 0 50-32 50-73 0-42-14-75-50-75-39 0-46 34-46 75s6 73 46 73" id="be"/><g id="l"><use transform="matrix(0.1111111111111111,0,0,0.1111111111111111,0,0)" xlink:href="#be"/><use transform="matrix(0.1111111111111111,0,0,0.1111111111111111,22.22222222222222,0)" xlink:href="#aN"/><use transform="matrix(0.1111111111111111,0,0,0.1111111111111111,44.44444444444444,0)" xlink:href="#aX"/><use transform="matrix(0.1111111111111111,0,0,0.1111111111111111,66.66666666666666,0)" xlink:href="#aH"/><use transform="matrix(0.1111111111111111,0,0,0.1111111111111111,79.88888888888889,0)" xlink:href="#aN"/><use transform="matrix(0.1111111111111111,0,0,0.1111111111111111,102.11111111111111,0)" xlink:href="#aK"/><use transform="matrix(0.1111111111111111,0,0,0.1111111111111111,124.33333333333336,0)" xlink:href="#aG"/><use transform="matrix(0.1111111111111111,0,0,0.1111111111111111,133.11111111111111,0)" xlink:href="#aM"/><use transform="matrix(0.1111111111111111,0,0,0.1111111111111111,155.33333333333334,0)" xlink:href="#aI"/><use transform="matrix(0.1111111111111111,0,0,0.1111111111111111,175.33333333333334,0)" xlink:href="#aO"/></g><path fill="#fff" fill-opacity=".85" d="M26 75v-336h71v23H56V52h41v23H26" id="bf"/><path fill="#fff" fill-opacity=".85" d="M3 75V52h41v-290H3v-23h71V75H3" id="bg"/><g id="m"><use transform="matrix(0.1111111111111111,0,0,0.1111111111111111,0,0)" xlink:href="#bf"/><use transform="matrix(0.1111111111111111,0,0,0.1111111111111111,11.11111111111111,0)" xlink:href="#aW"/><use transform="matrix(0.1111111111111111,0,0,0.1111111111111111,22.22222222222222,0)" xlink:href="#aT"/><use transform="matrix(0.1111111111111111,0,0,0.1111111111111111,44.44444444444444,0)" xlink:href="#aQ"/><use transform="matrix(0.1111111111111111,0,0,0.1111111111111111,55.55555555555556,0)" xlink:href="#bg"/></g><path fill="#5dd8ff" d="M114-163C36-179 61-72 57 0H25l-1-190h30c1 12-1 29 2 39 6-27 23-49 58-41v29" id="bh"/><path fill="#5dd8ff" d="M100-194c63 0 86 42 84 106H49c0 40 14 67 53 68 26 1 43-12 49-29l28 8c-11 28-37 45-77 45C44 4 14-33 15-96c1-61 26-98 85-98zm52 81c6-60-76-77-97-28-3 7-6 17-6 28h103" id="bi"/><path fill="#5dd8ff" d="M96-169c-40 0-48 33-48 73s9 75 48 75c24 0 41-14 43-38l32 2c-6 37-31 61-74 61-59 0-76-41-82-99-10-93 101-131 147-64 4 7 5 14 7 22l-32 3c-4-21-16-35-41-35" id="bj"/><path fill="#5dd8ff" d="M59-47c-2 24 18 29 38 22v24C64 9 27 4 27-40v-127H5v-23h24l9-43h21v43h35v23H59v120" id="bk"/><path fill="#5dd8ff" d="M24 0v-261h32V0H24" id="bl"/><path fill="#5dd8ff" d="M179-190L93 31C79 59 56 82 12 73V49c39 6 53-20 64-50L1-190h34L92-34l54-156h33" id="bm"/><path fill="#5dd8ff" d="M205 0l-28-72H64L36 0H1l101-248h38L239 0h-34zm-38-99l-47-123c-12 45-31 82-46 123h93" id="bn"/><path fill="#5dd8ff" d="M85-194c31 0 48 13 60 33l-1-100h32l1 261h-30c-2-10 0-23-3-31C134-8 116 4 85 4 32 4 16-35 15-94c0-66 23-100 70-100zm9 24c-40 0-46 34-46 75 0 40 6 74 45 74 42 0 51-32 51-76 0-42-9-74-50-73" id="bo"/><path fill="#5dd8ff" d="M240 0l2-218c-23 76-54 145-80 218h-23L58-218 59 0H30v-248h44l77 211c21-75 51-140 76-211h43V0h-30" id="bp"/><path fill="#5dd8ff" d="M108 0H70L1-190h34L89-25l56-165h34" id="bq"/><g id="n"><use transform="matrix(0.1111111111111111,0,0,0.1111111111111111,0,0)" xlink:href="#bh"/><use transform="matrix(0.1111111111111111,0,0,0.1111111111111111,13.222222222222221,0)" xlink:href="#bi"/><use transform="matrix(0.1111111111111111,0,0,0.1111111111111111,35.44444444444444,0)" xlink:href="#bj"/><use transform="matrix(0.1111111111111111,0,0,0.1111111111111111,55.44444444444444,0)" xlink:href="#bi"/><use transform="matrix(0.1111111111111111,0,0,0.1111111111111111,77.66666666666666,0)" xlink:href="#ax"/><use transform="matrix(0.1111111111111111,0,0,0.1111111111111111,99.88888888888889,0)" xlink:href="#bk"/><use transform="matrix(0.1111111111111111,0,0,0.1111111111111111,111,0)" xlink:href="#bl"/><use transform="matrix(0.1111111111111111,0,0,0.1111111111111111,119.77777777777777,0)" xlink:href="#bm"/><use transform="matrix(0.1111111111111111,0,0,0.1111111111111111,139.77777777777777,0)" xlink:href="#bn"/><use transform="matrix(0.1111111111111111,0,0,0.1111111111111111,166.44444444444443,0)" xlink:href="#bo"/><use transform="matrix(0.1111111111111111,0,0,0.1111111111111111,188.66666666666666,0)" xlink:href="#bo"/><use transform="matrix(0.1111111111111111,0,0,0.1111111111111111,210.88888888888889,0)" xlink:href="#bi"/><use transform="matrix(0.1111111111111111,0,0,0.1111111111111111,233.1111111111111,0)" xlink:href="#bo"/><use transform="matrix(0.1111111111111111,0,0,0.1111111111111111,255.33333333333331,0)" xlink:href="#bp"/><use transform="matrix(0.1111111111111111,0,0,0.1111111111111111,288.55555555555554,0)" xlink:href="#au"/><use transform="matrix(0.1111111111111111,0,0,0.1111111111111111,310.77777777777777,0)" xlink:href="#bq"/><use transform="matrix(0.1111111111111111,0,0,0.1111111111111111,330.77777777777777,0)" xlink:href="#aw"/><use transform="matrix(0.1111111111111111,0,0,0.1111111111111111,339.55555555555554,0)" xlink:href="#bi"/></g><g id="o"><use transform="matrix(0.1111111111111111,0,0,0.1111111111111111,0,0)" xlink:href="#aC"/><use transform="matrix(0.1111111111111111,0,0,0.1111111111111111,11.11111111111111,0)" xlink:href="#aD"/><use transform="matrix(0.1111111111111111,0,0,0.1111111111111111,33.33333333333333,0)" xlink:href="#aE"/></g><path fill="#41a1c0" d="M24 0v-261h32V0H24" id="br"/><g id="p"><use transform="matrix(0.1111111111111111,0,0,0.1111111111111111,0,0)" xlink:href="#ba"/><use transform="matrix(0.1111111111111111,0,0,0.1111111111111111,22.22222222222222,0)" xlink:href="#aH"/><use transform="matrix(0.1111111111111111,0,0,0.1111111111111111,35.44444444444444,0)" xlink:href="#aG"/><use transform="matrix(0.1111111111111111,0,0,0.1111111111111111,44.22222222222222,0)" xlink:href="#be"/><use transform="matrix(0.1111111111111111,0,0,0.1111111111111111,66.44444444444444,0)" xlink:href="#aG"/><use transform="matrix(0.1111111111111111,0,0,0.1111111111111111,75.22222222222221,0)" xlink:href="#aX"/><use transform="matrix(0.1111111111111111,0,0,0.1111111111111111,97.44444444444443,0)" xlink:href="#aL"/><use transform="matrix(0.1111111111111111,0,0,0.1111111111111111,119.66666666666666,0)" xlink:href="#br"/><use transform="matrix(0.1111111111111111,0,0,0.1111111111111111,128.44444444444443,0)" xlink:href="#aK"/><use transform="matrix(0.1111111111111111,0,0,0.1111111111111111,150.66666666666666,0)" xlink:href="#aJ"/><use transform="matrix(0.1111111111111111,0,0,0.1111111111111111,161.77777777777777,0)" xlink:href="#aG"/><use transform="matrix(0.1111111111111111,0,0,0.1111111111111111,170.55555555555554,0)" xlink:href="#aJ"/><use transform="matrix(0.1111111111111111,0,0,0.1111111111111111,181.66666666666666,0)" xlink:href="#br"/><use transform="matrix(0.1111111111111111,0,0,0.1111111111111111,190.44444444444443,0)" xlink:href="#aN"/><use transform="matrix(0.1111111111111111,0,0,0.1111111111111111,212.66666666666666,0)" xlink:href="#aO"/><use transform="matrix(0.1111111111111111,0,0,0.1111111111111111,223.77777777777777,0)" xlink:href="#aP"/><use transform="matrix(0.1111111111111111,0,0,0.1111111111111111,250.44444444444443,0)" xlink:href="#aQ"/><use transform="matrix(0.1111111111111111,0,0,0.1111111111111111,261.55555555555554,0)" xlink:href="#aR"/><use transform="matrix(0.1111111111111111,0,0,0.1111111111111111,274.77777777777777,0)" xlink:href="#aS"/><use transform="matrix(0.1111111111111111,0,0,0.1111111111111111,283.55555555555554,0)" xlink:href="#aT"/><use transform="matrix(0.1111111111111111,0,0,0.1111111111111111,305.77777777777777,0)" xlink:href="#aU"/><use transform="matrix(0.1111111111111111,0,0,0.1111111111111111,328,0)" xlink:href="#aV"/></g><g id="q"><use transform="matrix(0.1111111111111111,0,0,0.1111111111111111,0,0)" xlink:href="#aH"/><use transform="matrix(0.1111111111111111,0,0,0.1111111111111111,13.222222222222221,0)" xlink:href="#aN"/><use transform="matrix(0.1111111111111111,0,0,0.1111111111111111,35.44444444444444,0)" xlink:href="#br"/><use transform="matrix(0.1111111111111111,0,0,0.1111111111111111,44.22222222222222,0)" xlink:href="#aN"/><use transform="matrix(0.1111111111111111,0,0,0.1111111111111111,66.44444444444444,0)" xlink:href="#aL"/><use transform="matrix(0.1111111111111111,0,0,0.1111111111111111,88.66666666666666,0)" xlink:href="#aI"/><use transform="matrix(0.1111111111111111,0,0,0.1111111111111111,108.66666666666666,0)" xlink:href="#aN"/><use transform="matrix(0.1111111111111111,0,0,0.1111111111111111,130.88888888888889,0)" xlink:href="#aK"/><use transform="matrix(0.1111111111111111,0,0,0.1111111111111111,153.11111111111111,0)" xlink:href="#aM"/><use transform="matrix(0.1111111111111111,0,0,0.1111111111111111,175.33333333333334,0)" xlink:href="#aL"/><use transform="matrix(0.1111111111111111,0,0,0.1111111111111111,197.55555555555557,0)" xlink:href="#aJ"/><use transform="matrix(0.1111111111111111,0,0,0.1111111111111111,208.66666666666669,0)" xlink:href="#aN"/><use transform="matrix(0.1111111111111111,0,0,0.1111111111111111,230.8888888888889,0)" xlink:href="#aO"/><use transform="matrix(0.1111111111111111,0,0,0.1111111111111111,242.00000000000003,0)" xlink:href="#aP"/><use transform="matrix(0.1111111111111111,0,0,0.1111111111111111,268.6666666666667,0)" xlink:href="#aQ"/><use transform="matrix(0.1111111111111111,0,0,0.1111111111111111,279.77777777777777,0)" xlink:href="#aR"/><use transform="matrix(0.1111111111111111,0,0,0.1111111111111111,293,0)" xlink:href="#aS"/><use transform="matrix(0.1111111111111111,0,0,0.1111111111111111,301.77777777777777,0)" xlink:href="#aT"/><use transform="matrix(0.1111111111111111,0,0,0.1111111111111111,324,0)" xlink:href="#aU"/><use transform="matrix(0.1111111111111111,0,0,0.1111111111111111,346.22222222222223,0)" xlink:href="#aV"/></g><path fill="#1071e5" d="M231 0h-52l-39-155L100 0H48L-1-190h46L77-45c9-52 24-97 36-145h53l37 145 32-145h46" id="bs"/><g id="r"><use transform="matrix(0.09320987654320986,0,0,0.09320987654320986,0,0)" xlink:href="#ai"/><use transform="matrix(0.09320987654320986,0,0,0.09320987654320986,22.370370370370367,0)" xlink:href="#am"/><use transform="matrix(0.09320987654320986,0,0,0.09320987654320986,42.78333333333333,0)" xlink:href="#Z"/><use transform="matrix(0.09320987654320986,0,0,0.09320987654320986,63.196296296296296,0)" xlink:href="#bs"/></g><g id="s"><use transform="matrix(0.1111111111111111,0,0,0.1111111111111111,0,0)" xlink:href="#az"/><use transform="matrix(0.1111111111111111,0,0,0.1111111111111111,26.666666666666664,0)" xlink:href="#aA"/><use transform="matrix(0.1111111111111111,0,0,0.1111111111111111,48.888888888888886,0)" xlink:href="#au"/><use transform="matrix(0.1111111111111111,0,0,0.1111111111111111,71.11111111111111,0)" xlink:href="#aB"/></g><g id="t"><use transform="matrix(0.1111111111111111,0,0,0.1111111111111111,0,0)" xlink:href="#aJ"/><use transform="matrix(0.1111111111111111,0,0,0.1111111111111111,11.11111111111111,0)" xlink:href="#aG"/><use transform="matrix(0.1111111111111111,0,0,0.1111111111111111,19.888888888888886,0)" xlink:href="#aJ"/><use transform="matrix(0.1111111111111111,0,0,0.1111111111111111,31,0)" xlink:href="#br"/><use transform="matrix(0.1111111111111111,0,0,0.1111111111111111,39.77777777777777,0)" xlink:href="#aN"/><use transform="matrix(0.1111111111111111,0,0,0.1111111111111111,62,0)" xlink:href="#aO"/><use transform="matrix(0.1111111111111111,0,0,0.1111111111111111,73.1111111111111,0)" xlink:href="#aP"/><use transform="matrix(0.1111111111111111,0,0,0.1111111111111111,99.77777777777777,0)" xlink:href="#aQ"/><use transform="matrix(0.1111111111111111,0,0,0.1111111111111111,110.88888888888889,0)" xlink:href="#aR"/><use transform="matrix(0.1111111111111111,0,0,0.1111111111111111,124.1111111111111,0)" xlink:href="#aS"/><use transform="matrix(0.1111111111111111,0,0,0.1111111111111111,132.88888888888889,0)" xlink:href="#aT"/><use transform="matrix(0.1111111111111111,0,0,0.1111111111111111,155.11111111111111,0)" xlink:href="#aU"/><use transform="matrix(0.1111111111111111,0,0,0.1111111111111111,177.33333333333334,0)" xlink:href="#aV"/></g><path fill="#41a1c0" d="M96-169c-40 0-48 33-48 73s9 75 48 75c24 0 41-14 43-38l32 2c-6 37-31 61-74 61-59 0-76-41-82-99-10-93 101-131 147-64 4 7 5 14 7 22l-32 3c-4-21-16-35-41-35" id="bt"/><path fill="#41a1c0" d="M84 4C-5 8 30-112 23-190h32v120c0 31 7 50 39 49 72-2 45-101 50-169h31l1 190h-30c-1-10 1-25-2-33-11 22-28 36-60 37" id="bu"/><g id="u"><use transform="matrix(0.1111111111111111,0,0,0.1111111111111111,0,0)" xlink:href="#bc"/><use transform="matrix(0.1111111111111111,0,0,0.1111111111111111,20,0)" xlink:href="#ba"/><use transform="matrix(0.1111111111111111,0,0,0.1111111111111111,42.22222222222222,0)" xlink:href="#aJ"/><use transform="matrix(0.1111111111111111,0,0,0.1111111111111111,53.33333333333333,0)" xlink:href="#aN"/><use transform="matrix(0.1111111111111111,0,0,0.1111111111111111,75.55555555555554,0)" xlink:href="#aK"/><use transform="matrix(0.1111111111111111,0,0,0.1111111111111111,97.77777777777777,0)" xlink:href="#bt"/><use transform="matrix(0.1111111111111111,0,0,0.1111111111111111,117.77777777777777,0)" xlink:href="#ba"/><use transform="matrix(0.1111111111111111,0,0,0.1111111111111111,140,0)" xlink:href="#bu"/><use transform="matrix(0.1111111111111111,0,0,0.1111111111111111,162.22222222222223,0)" xlink:href="#aX"/><use transform="matrix(0.1111111111111111,0,0,0.1111111111111111,184.44444444444446,0)" xlink:href="#aJ"/><use transform="matrix(0.1111111111111111,0,0,0.1111111111111111,195.55555555555557,0)" xlink:href="#aO"/><use transform="matrix(0.1111111111111111,0,0,0.1111111111111111,206.66666666666669,0)" xlink:href="#aW"/><use transform="matrix(0.1111111111111111,0,0,0.1111111111111111,217.7777777777778,0)" xlink:href="#aT"/><use transform="matrix(0.1111111111111111,0,0,0.1111111111111111,240.00000000000003,0)" xlink:href="#aQ"/></g><path fill="#d0a8ff" d="M30-248c118-7 216 8 213 122C240-48 200 0 122 0H30v-248zM63-27c89 8 146-16 146-99s-60-101-146-95v194" id="bv"/><path fill="#d0a8ff" d="M100-194c62-1 85 37 85 99 1 63-27 99-86 99S16-35 15-95c0-66 28-99 85-99zM99-20c44 1 53-31 53-75 0-43-8-75-51-75s-53 32-53 75 10 74 51 75" id="bw"/><path fill="#d0a8ff" d="M84 4C-5 8 30-112 23-190h32v120c0 31 7 50 39 49 72-2 45-101 50-169h31l1 190h-30c-1-10 1-25-2-33-11 22-28 36-60 37" id="bx"/><path fill="#d0a8ff" d="M115-194c53 0 69 39 70 98 0 66-23 100-70 100C84 3 66-7 56-30L54 0H23l1-261h32v101c10-23 28-34 59-34zm-8 174c40 0 45-34 45-75 0-40-5-75-45-74-42 0-51 32-51 76 0 43 10 73 51 73" id="by"/><path fill="#d0a8ff" d="M24 0v-261h32V0H24" id="bz"/><path fill="#d0a8ff" d="M100-194c63 0 86 42 84 106H49c0 40 14 67 53 68 26 1 43-12 49-29l28 8c-11 28-37 45-77 45C44 4 14-33 15-96c1-61 26-98 85-98zm52 81c6-60-76-77-97-28-3 7-6 17-6 28h103" id="bA"/><g id="v"><use transform="matrix(0.1111111111111111,0,0,0.1111111111111111,0,0)" xlink:href="#bc"/><use transform="matrix(0.1111111111111111,0,0,0.1111111111111111,20,0)" xlink:href="#ba"/><use transform="matrix(0.1111111111111111,0,0,0.1111111111111111,42.22222222222222,0)" xlink:href="#aJ"/><use transform="matrix(0.1111111111111111,0,0,0.1111111111111111,53.33333333333333,0)" xlink:href="#aN"/><use transform="matrix(0.1111111111111111,0,0,0.1111111111111111,75.55555555555554,0)" xlink:href="#aK"/><use transform="matrix(0.1111111111111111,0,0,0.1111111111111111,97.77777777777777,0)" xlink:href="#aL"/><use transform="matrix(0.1111111111111111,0,0,0.1111111111111111,120,0)" xlink:href="#bc"/><use transform="matrix(0.1111111111111111,0,0,0.1111111111111111,140,0)" xlink:href="#aN"/><use transform="matrix(0.1111111111111111,0,0,0.1111111111111111,162.22222222222223,0)" xlink:href="#aH"/><use transform="matrix(0.1111111111111111,0,0,0.1111111111111111,175.44444444444446,0)" xlink:href="#aL"/><use transform="matrix(0.1111111111111111,0,0,0.1111111111111111,197.66666666666669,0)" xlink:href="#be"/><use transform="matrix(0.1111111111111111,0,0,0.1111111111111111,219.8888888888889,0)" xlink:href="#aN"/><use transform="matrix(0.1111111111111111,0,0,0.1111111111111111,242.11111111111114,0)" xlink:href="#aO"/><use transform="matrix(0.1111111111111111,0,0,0.1111111111111111,253.22222222222226,0)" xlink:href="#bv"/><use transform="matrix(0.1111111111111111,0,0,0.1111111111111111,282.00000000000006,0)" xlink:href="#bw"/><use transform="matrix(0.1111111111111111,0,0,0.1111111111111111,304.2222222222223,0)" xlink:href="#bx"/><use transform="matrix(0.1111111111111111,0,0,0.1111111111111111,326.4444444444445,0)" xlink:href="#by"/><use transform="matrix(0.1111111111111111,0,0,0.1111111111111111,348.66666666666674,0)" xlink:href="#bz"/><use transform="matrix(0.1111111111111111,0,0,0.1111111111111111,357.4444444444445,0)" xlink:href="#bA"/></g><path fill="#1071e5" d="M199 0l-22-63H83L61 0H9l90-248h61L250 0h-51zm-33-102l-36-108c-10 38-24 72-36 108h72" id="bB"/><g id="w"><use transform="matrix(0.09320987654320986,0,0,0.09320987654320986,0,0)" xlink:href="#bB"/><use transform="matrix(0.09320987654320986,0,0,0.09320987654320986,24.141358024691353,0)" xlink:href="#ae"/><use transform="matrix(0.09320987654320986,0,0,0.09320987654320986,44.554320987654314,0)" xlink:href="#af"/><use transform="matrix(0.09320987654320986,0,0,0.09320987654320986,55.646296296296285,0)" xlink:href="#am"/><use transform="matrix(0.09320987654320986,0,0,0.09320987654320986,76.05925925925925,0)" xlink:href="#Y"/><use transform="matrix(0.09320987654320986,0,0,0.09320987654320986,103.929012345679,0)" xlink:href="#Z"/><use transform="matrix(0.09320987654320986,0,0,0.09320987654320986,124.34197530864196,0)" xlink:href="#aa"/><use transform="matrix(0.09320987654320986,0,0,0.09320987654320986,144.7549382716049,0)" xlink:href="#ab"/><use transform="matrix(0.09320987654320986,0,0,0.09320987654320986,163.3969135802469,0)" xlink:href="#ac"/></g><g id="x"><use transform="matrix(0.1111111111111111,0,0,0.1111111111111111,0,0)" xlink:href="#bn"/><use transform="matrix(0.1111111111111111,0,0,0.1111111111111111,26.666666666666664,0)" xlink:href="#ar"/><use transform="matrix(0.1111111111111111,0,0,0.1111111111111111,48.888888888888886,0)" xlink:href="#bk"/><use transform="matrix(0.1111111111111111,0,0,0.1111111111111111,60,0)" xlink:href="#aA"/><use transform="matrix(0.1111111111111111,0,0,0.1111111111111111,82.22222222222223,0)" xlink:href="#bp"/><use transform="matrix(0.1111111111111111,0,0,0.1111111111111111,115.44444444444446,0)" xlink:href="#bi"/><use transform="matrix(0.1111111111111111,0,0,0.1111111111111111,137.66666666666669,0)" xlink:href="#bk"/><use transform="matrix(0.1111111111111111,0,0,0.1111111111111111,148.7777777777778,0)" xlink:href="#aA"/><use transform="matrix(0.1111111111111111,0,0,0.1111111111111111,171.00000000000003,0)" xlink:href="#au"/><use transform="matrix(0.1111111111111111,0,0,0.1111111111111111,193.22222222222226,0)" xlink:href="#bo"/></g><path fill="#fc5fa3" d="M135-194c87-1 58 113 63 194h-50c-7-57 23-157-34-157-59 0-34 97-39 157H25l-1-190h47c2 12-1 28 3 38 12-26 28-41 61-42" id="bC"/><path fill="#fc5fa3" d="M85 4C-2 5 27-109 22-190h50c7 57-23 150 33 157 60-5 35-97 40-157h50l1 190h-47c-2-12 1-28-3-38-12 25-28 42-61 42" id="bD"/><path fill="#fc5fa3" d="M220-157c-53 9-28 100-34 157h-49v-107c1-27-5-49-29-50C55-147 81-57 75 0H25l-1-190h47c2 12-1 28 3 38 10-53 101-56 108 0 13-22 24-43 59-42 82 1 51 116 57 194h-49v-107c-1-25-5-48-29-50" id="bE"/><g id="y"><use transform="matrix(0.1111111111111111,0,0,0.1111111111111111,0,0)" xlink:href="#aD"/><use transform="matrix(0.1111111111111111,0,0,0.1111111111111111,22.22222222222222,0)" xlink:href="#bC"/><use transform="matrix(0.1111111111111111,0,0,0.1111111111111111,46.55555555555556,0)" xlink:href="#bD"/><use transform="matrix(0.1111111111111111,0,0,0.1111111111111111,70.88888888888889,0)" xlink:href="#bE"/></g><path fill="#fff" fill-opacity=".85" d="M39-94c74 12-11 154 75 146v23c-44 4-70-10-70-52C44-23 55-84 6-82v-22c81 4-7-162 84-157h24v23c-82-15-2 131-75 144" id="bF"/><g id="z"><use transform="matrix(0.1111111111111111,0,0,0.1111111111111111,0,0)" xlink:href="#bn"/><use transform="matrix(0.1111111111111111,0,0,0.1111111111111111,26.666666666666664,0)" xlink:href="#ar"/><use transform="matrix(0.1111111111111111,0,0,0.1111111111111111,48.888888888888886,0)" xlink:href="#bk"/><use transform="matrix(0.1111111111111111,0,0,0.1111111111111111,60,0)" xlink:href="#aA"/><use transform="matrix(0.1111111111111111,0,0,0.1111111111111111,82.22222222222223,0)" xlink:href="#bp"/><use transform="matrix(0.1111111111111111,0,0,0.1111111111111111,115.44444444444446,0)" xlink:href="#bi"/><use transform="matrix(0.1111111111111111,0,0,0.1111111111111111,137.66666666666669,0)" xlink:href="#bk"/><use transform="matrix(0.1111111111111111,0,0,0.1111111111111111,148.7777777777778,0)" xlink:href="#aA"/><use transform="matrix(0.1111111111111111,0,0,0.1111111111111111,171.00000000000003,0)" xlink:href="#au"/><use transform="matrix(0.1111111111111111,0,0,0.1111111111111111,193.22222222222226,0)" xlink:href="#bo"/><use transform="matrix(0.1111111111111111,0,0,0.1111111111111111,215.44444444444449,0)" xlink:href="#bF"/></g><path fill="#fc5fa3" d="M190-63c-7 42-38 67-86 67-59 0-84-38-90-98-12-110 154-137 174-36l-49 2c-2-19-15-32-35-32-30 0-35 28-38 64-6 74 65 87 74 30" id="bG"/><path fill="#fc5fa3" d="M133-34C117-15 103 5 69 4 32 3 11-16 11-54c-1-60 55-63 116-61 1-26-3-47-28-47-18 1-26 9-28 27l-52-2c7-38 36-58 82-57s74 22 75 68l1 82c-1 14 12 18 25 15v27c-30 8-71 5-69-32zm-48 3c29 0 43-24 42-57-32 0-66-3-65 30 0 17 8 27 23 27" id="bH"/><path fill="#fc5fa3" d="M137-138c1-29-70-34-71-4 15 46 118 7 119 86 1 83-164 76-172 9l43-7c4 19 20 25 44 25 33 8 57-30 24-41C81-84 22-81 20-136c-2-80 154-74 161-7" id="bI"/><g id="A"><use transform="matrix(0.1111111111111111,0,0,0.1111111111111111,0,0)" xlink:href="#bG"/><use transform="matrix(0.1111111111111111,0,0,0.1111111111111111,22.22222222222222,0)" xlink:href="#bH"/><use transform="matrix(0.1111111111111111,0,0,0.1111111111111111,44.44444444444444,0)" xlink:href="#bI"/><use transform="matrix(0.1111111111111111,0,0,0.1111111111111111,66.66666666666666,0)" xlink:href="#aD"/></g><g id="B"><use transform="matrix(0.1111111111111111,0,0,0.1111111111111111,0,0)" xlink:href="#aZ"/><use transform="matrix(0.1111111111111111,0,0,0.1111111111111111,22.22222222222222,0)" xlink:href="#bb"/><use transform="matrix(0.1111111111111111,0,0,0.1111111111111111,44.44444444444444,0)" xlink:href="#ba"/><use transform="matrix(0.1111111111111111,0,0,0.1111111111111111,66.66666666666666,0)" xlink:href="#aX"/><use transform="matrix(0.1111111111111111,0,0,0.1111111111111111,88.88888888888889,0)" xlink:href="#aN"/></g><g id="C"><use transform="matrix(0.1111111111111111,0,0,0.1111111111111111,0,0)" xlink:href="#aL"/><use transform="matrix(0.1111111111111111,0,0,0.1111111111111111,22.22222222222222,0)" xlink:href="#aZ"/><use transform="matrix(0.1111111111111111,0,0,0.1111111111111111,44.44444444444444,0)" xlink:href="#aZ"/><use transform="matrix(0.1111111111111111,0,0,0.1111111111111111,66.66666666666666,0)" xlink:href="#br"/><use transform="matrix(0.1111111111111111,0,0,0.1111111111111111,75.44444444444443,0)" xlink:href="#aN"/></g><g id="D"><use transform="matrix(0.1111111111111111,0,0,0.1111111111111111,0,0)" xlink:href="#be"/><use transform="matrix(0.1111111111111111,0,0,0.1111111111111111,22.22222222222222,0)" xlink:href="#ba"/><use transform="matrix(0.1111111111111111,0,0,0.1111111111111111,44.44444444444444,0)" xlink:href="#ba"/><use transform="matrix(0.1111111111111111,0,0,0.1111111111111111,66.66666666666666,0)" xlink:href="#be"/><use transform="matrix(0.1111111111111111,0,0,0.1111111111111111,88.88888888888889,0)" xlink:href="#br"/><use transform="matrix(0.1111111111111111,0,0,0.1111111111111111,97.66666666666666,0)" xlink:href="#aN"/></g><g id="E"><use transform="matrix(0.1111111111111111,0,0,0.1111111111111111,0,0)" xlink:href="#aI"/><use transform="matrix(0.1111111111111111,0,0,0.1111111111111111,20,0)" xlink:href="#aY"/><use transform="matrix(0.1111111111111111,0,0,0.1111111111111111,53.22222222222222,0)" xlink:href="#aI"/></g><path fill="#fff" fill-opacity=".85" d="M76-40C78 24 84 88 6 75V52C86 64 9-79 80-94c-40-6-34-59-34-106 1-29-11-41-40-38v-23c44-4 70 10 70 52 0 47-12 108 38 105v22c-26 1-39 14-38 42" id="bJ"/><use transform="matrix(0.1111111111111111,0,0,0.1111111111111111,0,0)" xlink:href="#bJ" id="F"/><path fill="#5dd8ff" d="M232-93c-1 65-40 97-104 97C67 4 28-28 28-90v-158h33c8 89-33 224 67 224 102 0 64-133 71-224h33v155" id="bK"/><path fill="#5dd8ff" d="M135-143c-3-34-86-38-87 0 15 53 115 12 119 90S17 21 10-45l28-5c4 36 97 45 98 0-10-56-113-15-118-90-4-57 82-63 122-42 12 7 21 19 24 35" id="bL"/><g id="G"><use transform="matrix(0.1111111111111111,0,0,0.1111111111111111,0,0)" xlink:href="#bK"/><use transform="matrix(0.1111111111111111,0,0,0.1111111111111111,28.777777777777775,0)" xlink:href="#bL"/><use transform="matrix(0.1111111111111111,0,0,0.1111111111111111,48.77777777777777,0)" xlink:href="#bi"/><use transform="matrix(0.1111111111111111,0,0,0.1111111111111111,71,0)" xlink:href="#bh"/></g><path fill="#fc5fa3" d="M128 0H69L1-190h53L99-40l48-150h52" id="bM"/><path fill="#fc5fa3" d="M135-150c-39-12-60 13-60 57V0H25l-1-190h47c2 13-1 29 3 40 6-28 27-53 61-41v41" id="bN"/><g id="H"><use transform="matrix(0.1111111111111111,0,0,0.1111111111111111,0,0)" xlink:href="#bM"/><use transform="matrix(0.1111111111111111,0,0,0.1111111111111111,22.22222222222222,0)" xlink:href="#bH"/><use transform="matrix(0.1111111111111111,0,0,0.1111111111111111,44.44444444444444,0)" xlink:href="#bN"/></g><path fill="#41a1c0" d="M190 0L58-211 59 0H30v-248h39L202-35l-2-213h31V0h-41" id="bO"/><path fill="#41a1c0" d="M115-194c53 0 69 39 70 98 0 66-23 100-70 100C84 3 66-7 56-30L54 0H23l1-261h32v101c10-23 28-34 59-34zm-8 174c40 0 45-34 45-75 0-40-5-75-45-74-42 0-51 32-51 76 0 43 10 73 51 73" id="bP"/><g id="I"><use transform="matrix(0.1111111111111111,0,0,0.1111111111111111,0,0)" xlink:href="#aZ"/><use transform="matrix(0.1111111111111111,0,0,0.1111111111111111,22.22222222222222,0)" xlink:href="#bb"/><use transform="matrix(0.1111111111111111,0,0,0.1111111111111111,44.44444444444444,0)" xlink:href="#ba"/><use transform="matrix(0.1111111111111111,0,0,0.1111111111111111,66.66666666666666,0)" xlink:href="#aX"/><use transform="matrix(0.1111111111111111,0,0,0.1111111111111111,88.88888888888889,0)" xlink:href="#aN"/><use transform="matrix(0.1111111111111111,0,0,0.1111111111111111,111.11111111111111,0)" xlink:href="#bO"/><use transform="matrix(0.1111111111111111,0,0,0.1111111111111111,139.88888888888889,0)" xlink:href="#bu"/><use transform="matrix(0.1111111111111111,0,0,0.1111111111111111,162.11111111111111,0)" xlink:href="#aY"/><use transform="matrix(0.1111111111111111,0,0,0.1111111111111111,195.33333333333334,0)" xlink:href="#bP"/><use transform="matrix(0.1111111111111111,0,0,0.1111111111111111,217.55555555555557,0)" xlink:href="#aN"/><use transform="matrix(0.1111111111111111,0,0,0.1111111111111111,239.77777777777783,0)" xlink:href="#aH"/><use transform="matrix(0.1111111111111111,0,0,0.1111111111111111,253.00000000000003,0)" xlink:href="#aO"/><use transform="matrix(0.1111111111111111,0,0,0.1111111111111111,264.11111111111114,0)" xlink:href="#aP"/><use transform="matrix(0.1111111111111111,0,0,0.1111111111111111,290.7777777777778,0)" xlink:href="#aQ"/><use transform="matrix(0.1111111111111111,0,0,0.1111111111111111,301.8888888888889,0)" xlink:href="#aR"/><use transform="matrix(0.1111111111111111,0,0,0.1111111111111111,315.11111111111114,0)" xlink:href="#aS"/><use transform="matrix(0.1111111111111111,0,0,0.1111111111111111,323.8888888888889,0)" xlink:href="#aT"/><use transform="matrix(0.1111111111111111,0,0,0.1111111111111111,346.11111111111114,0)" xlink:href="#aU"/><use transform="matrix(0.1111111111111111,0,0,0.1111111111111111,368.33333333333337,0)" xlink:href="#aV"/></g><path fill="#41a1c0" d="M179-190L93 31C79 59 56 82 12 73V49c39 6 53-20 64-50L1-190h34L92-34l54-156h33" id="bQ"/><path fill="#41a1c0" d="M240 0l2-218c-23 76-54 145-80 218h-23L58-218 59 0H30v-248h44l77 211c21-75 51-140 76-211h43V0h-30" id="bR"/><path fill="#fff" fill-opacity=".85" d="M18-100v-36l175-74v27L42-118l151 64v27" id="bS"/><path fill="#9ef1dd" d="M185-189c-5-48-123-54-124 2 14 75 158 14 163 119 3 78-121 87-175 55-17-10-28-26-33-46l33-7c5 56 141 63 141-1 0-78-155-14-162-118-5-82 145-84 179-34 5 7 8 16 11 25" id="bT"/><path fill="#9ef1dd" d="M106-169C34-169 62-67 57 0H25v-261h32l-1 103c12-21 28-36 61-36 89 0 53 116 60 194h-32v-121c2-32-8-49-39-48" id="bU"/><path fill="#9ef1dd" d="M100-194c62-1 85 37 85 99 1 63-27 99-86 99S16-35 15-95c0-66 28-99 85-99zM99-20c44 1 53-31 53-75 0-43-8-75-51-75s-53 32-53 75 10 74 51 75" id="bV"/><path fill="#9ef1dd" d="M206 0h-36l-40-164L89 0H53L-1-190h32L70-26l43-164h34l41 164 42-164h31" id="bW"/><path fill="#fff" fill-opacity=".85" d="M18-27v-27l151-64-151-65v-27l175 74v36" id="bX"/><g id="J"><use transform="matrix(0.1111111111111111,0,0,0.1111111111111111,0,0)" xlink:href="#aY"/><use transform="matrix(0.1111111111111111,0,0,0.1111111111111111,33.22222222222222,0)" xlink:href="#bQ"/><use transform="matrix(0.1111111111111111,0,0,0.1111111111111111,53.22222222222222,0)" xlink:href="#bR"/><use transform="matrix(0.1111111111111111,0,0,0.1111111111111111,86.44444444444444,0)" xlink:href="#ba"/><use transform="matrix(0.1111111111111111,0,0,0.1111111111111111,108.66666666666666,0)" xlink:href="#bc"/><use transform="matrix(0.1111111111111111,0,0,0.1111111111111111,128.66666666666666,0)" xlink:href="#aG"/><use transform="matrix(0.1111111111111111,0,0,0.1111111111111111,137.44444444444443,0)" xlink:href="#aN"/><use transform="matrix(0.1111111111111111,0,0,0.1111111111111111,159.66666666666666,0)" xlink:href="#aI"/><use transform="matrix(0.1111111111111111,0,0,0.1111111111111111,179.66666666666666,0)" xlink:href="#aO"/><use transform="matrix(0.1111111111111111,0,0,0.1111111111111111,190.77777777777777,0)" xlink:href="#aP"/><use transform="matrix(0.1111111111111111,0,0,0.1111111111111111,217.44444444444443,0)" xlink:href="#bA"/><use transform="matrix(0.1111111111111111,0,0,0.1111111111111111,239.66666666666666,0)" xlink:href="#aQ"/><use transform="matrix(0.1111111111111111,0,0,0.1111111111111111,250.77777777777777,0)" xlink:href="#bS"/><use transform="matrix(0.1111111111111111,0,0,0.1111111111111111,274.1111111111111,0)" xlink:href="#bT"/><use transform="matrix(0.1111111111111111,0,0,0.1111111111111111,300.77777777777777,0)" xlink:href="#bU"/><use transform="matrix(0.1111111111111111,0,0,0.1111111111111111,323,0)" xlink:href="#bV"/><use transform="matrix(0.1111111111111111,0,0,0.1111111111111111,345.22222222222223,0)" xlink:href="#bW"/><use transform="matrix(0.1111111111111111,0,0,0.1111111111111111,374,0)" xlink:href="#aV"/><use transform="matrix(0.1111111111111111,0,0,0.1111111111111111,396.22222222222223,0)" xlink:href="#bX"/><use transform="matrix(0.1111111111111111,0,0,0.1111111111111111,419.55555555555554,0)" xlink:href="#aV"/></g><path fill="#5dd8ff" d="M137 0h-34L2-248h35l83 218 83-218h36" id="bY"/><path fill="#5dd8ff" d="M-5 72V49h209v23H-5" id="bZ"/><path fill="#5dd8ff" d="M30 0v-248h187v28H63v79h144v27H63v87h162V0H30" id="ca"/><g id="K"><use transform="matrix(0.1111111111111111,0,0,0.1111111111111111,0,0)" xlink:href="#bY"/><use transform="matrix(0.1111111111111111,0,0,0.1111111111111111,25.888888888888886,0)" xlink:href="#aw"/><use transform="matrix(0.1111111111111111,0,0,0.1111111111111111,34.666666666666664,0)" xlink:href="#bo"/><use transform="matrix(0.1111111111111111,0,0,0.1111111111111111,56.888888888888886,0)" xlink:href="#bi"/><use transform="matrix(0.1111111111111111,0,0,0.1111111111111111,79.11111111111111,0)" xlink:href="#au"/><use transform="matrix(0.1111111111111111,0,0,0.1111111111111111,101.33333333333334,0)" xlink:href="#bZ"/><use transform="matrix(0.1111111111111111,0,0,0.1111111111111111,123.55555555555557,0)" xlink:href="#ca"/><use transform="matrix(0.1111111111111111,0,0,0.1111111111111111,150.22222222222223,0)" xlink:href="#bl"/><use transform="matrix(0.1111111111111111,0,0,0.1111111111111111,159,0)" xlink:href="#bi"/><use transform="matrix(0.1111111111111111,0,0,0.1111111111111111,181.22222222222223,0)" xlink:href="#av"/><use transform="matrix(0.1111111111111111,0,0,0.1111111111111111,214.44444444444446,0)" xlink:href="#bi"/><use transform="matrix(0.1111111111111111,0,0,0.1111111111111111,236.6666666666667,0)" xlink:href="#ax"/><use transform="matrix(0.1111111111111111,0,0,0.1111111111111111,258.8888888888889,0)" xlink:href="#bk"/></g><path fill="#9ef1dd" d="M24-231v-30h32v30H24zM24 0v-190h32V0H24" id="cb"/><path fill="#9ef1dd" d="M85-194c31 0 48 13 60 33l-1-100h32l1 261h-30c-2-10 0-23-3-31C134-8 116 4 85 4 32 4 16-35 15-94c0-66 23-100 70-100zm9 24c-40 0-46 34-46 75 0 40 6 74 45 74 42 0 51-32 51-76 0-42-9-74-50-73" id="cc"/><path fill="#9ef1dd" d="M-5 72V49h209v23H-5" id="cd"/><path fill="#9ef1dd" d="M137 0h-34L2-248h35l83 218 83-218h36" id="ce"/><path fill="#9ef1dd" d="M100-194c63 0 86 42 84 106H49c0 40 14 67 53 68 26 1 43-12 49-29l28 8c-11 28-37 45-77 45C44 4 14-33 15-96c1-61 26-98 85-98zm52 81c6-60-76-77-97-28-3 7-6 17-6 28h103" id="cf"/><path fill="#9ef1dd" d="M30 0v-248h187v28H63v79h144v27H63v87h162V0H30" id="cg"/><path fill="#9ef1dd" d="M24 0v-261h32V0H24" id="ch"/><path fill="#9ef1dd" d="M210-169c-67 3-38 105-44 169h-31v-121c0-29-5-50-35-48C34-165 62-65 56 0H25l-1-190h30c1 10-1 24 2 32 10-44 99-50 107 0 11-21 27-35 58-36 85-2 47 119 55 194h-31v-121c0-29-5-49-35-48" id="ci"/><path fill="#9ef1dd" d="M117-194c89-4 53 116 60 194h-32v-121c0-31-8-49-39-48C34-167 62-67 57 0H25l-1-190h30c1 10-1 24 2 32 11-22 29-35 61-36" id="cj"/><path fill="#9ef1dd" d="M59-47c-2 24 18 29 38 22v24C64 9 27 4 27-40v-127H5v-23h24l9-43h21v43h35v23H59v120" id="ck"/><g id="L"><use transform="matrix(0.1111111111111111,0,0,0.1111111111111111,0,0)" xlink:href="#aG"/><use transform="matrix(0.1111111111111111,0,0,0.1111111111111111,8.777777777777777,0)" xlink:href="#aM"/><use transform="matrix(0.1111111111111111,0,0,0.1111111111111111,31,0)" xlink:href="#aO"/><use transform="matrix(0.1111111111111111,0,0,0.1111111111111111,42.111111111111114,0)" xlink:href="#cb"/><use transform="matrix(0.1111111111111111,0,0,0.1111111111111111,50.88888888888889,0)" xlink:href="#cc"/><use transform="matrix(0.1111111111111111,0,0,0.1111111111111111,73.11111111111111,0)" xlink:href="#cd"/><use transform="matrix(0.1111111111111111,0,0,0.1111111111111111,95.33333333333334,0)" xlink:href="#ce"/><use transform="matrix(0.1111111111111111,0,0,0.1111111111111111,121.22222222222224,0)" xlink:href="#cb"/><use transform="matrix(0.1111111111111111,0,0,0.1111111111111111,130,0)" xlink:href="#cc"/><use transform="matrix(0.1111111111111111,0,0,0.1111111111111111,152.22222222222223,0)" xlink:href="#cf"/><use transform="matrix(0.1111111111111111,0,0,0.1111111111111111,174.44444444444446,0)" xlink:href="#bV"/><use transform="matrix(0.1111111111111111,0,0,0.1111111111111111,196.66666666666669,0)" xlink:href="#cd"/><use transform="matrix(0.1111111111111111,0,0,0.1111111111111111,218.8888888888889,0)" xlink:href="#cg"/><use transform="matrix(0.1111111111111111,0,0,0.1111111111111111,245.5555555555556,0)" xlink:href="#ch"/><use transform="matrix(0.1111111111111111,0,0,0.1111111111111111,254.33333333333331,0)" xlink:href="#cf"/><use transform="matrix(0.1111111111111111,0,0,0.1111111111111111,276.55555555555554,0)" xlink:href="#ci"/><use transform="matrix(0.1111111111111111,0,0,0.1111111111111111,309.77777777777777,0)" xlink:href="#cf"/><use transform="matrix(0.1111111111111111,0,0,0.1111111111111111,332,0)" xlink:href="#cj"/><use transform="matrix(0.1111111111111111,0,0,0.1111111111111111,354.22222222222223,0)" xlink:href="#ck"/></g><path fill="#5dd8ff" d="M137-103V0h-34v-103L8-248h37l75 118 75-118h37" id="cl"/><path fill="#5dd8ff" d="M115-194c53 0 69 39 70 98 0 66-23 100-70 100C84 3 66-7 56-30L54 0H23l1-261h32v101c10-23 28-34 59-34zm-8 174c40 0 45-34 45-75 0-40-5-75-45-74-42 0-51 32-51 76 0 43 10 73 51 73" id="cm"/><path fill="#5dd8ff" d="M141-36C126-15 110 5 73 4 37 3 15-17 15-53c-1-64 63-63 125-63 3-35-9-54-41-54-24 1-41 7-42 31l-33-3c5-37 33-52 76-52 45 0 72 20 72 64v82c-1 20 7 32 28 27v20c-31 9-61-2-59-35zM48-53c0 20 12 33 32 33 41-3 63-29 60-74-43 2-92-5-92 41" id="cn"/><path fill="#5dd8ff" d="M233-177c-1 41-23 64-60 70L243 0h-38l-65-103H63V0H30v-248c88 3 205-21 203 71zM63-129c60-2 137 13 137-47 0-61-80-42-137-45v92" id="co"/><g id="N"><use transform="matrix(0.1111111111111111,0,0,0.1111111111111111,0,0)" xlink:href="#cl"/><use transform="matrix(0.1111111111111111,0,0,0.1111111111111111,22.999999999999996,0)" xlink:href="#au"/><use transform="matrix(0.1111111111111111,0,0,0.1111111111111111,45.222222222222214,0)" xlink:href="#ar"/><use transform="matrix(0.1111111111111111,0,0,0.1111111111111111,67.44444444444443,0)" xlink:href="#bk"/><use transform="matrix(0.1111111111111111,0,0,0.1111111111111111,78.55555555555554,0)" xlink:href="#ar"/><use transform="matrix(0.1111111111111111,0,0,0.1111111111111111,100.77777777777777,0)" xlink:href="#cm"/><use transform="matrix(0.1111111111111111,0,0,0.1111111111111111,123,0)" xlink:href="#bi"/><use transform="matrix(0.1111111111111111,0,0,0.1111111111111111,145.22222222222223,0)" xlink:href="#bZ"/><use transform="matrix(0.1111111111111111,0,0,0.1111111111111111,167.44444444444446,0)" xlink:href="#az"/><use transform="matrix(0.1111111111111111,0,0,0.1111111111111111,194.11111111111111,0)" xlink:href="#bi"/><use transform="matrix(0.1111111111111111,0,0,0.1111111111111111,216.33333333333334,0)" xlink:href="#cn"/><use transform="matrix(0.1111111111111111,0,0,0.1111111111111111,238.5555555555556,0)" xlink:href="#bh"/><use transform="matrix(0.1111111111111111,0,0,0.1111111111111111,251.77777777777783,0)" xlink:href="#bj"/><use transform="matrix(0.1111111111111111,0,0,0.1111111111111111,271.7777777777778,0)" xlink:href="#aA"/><use transform="matrix(0.1111111111111111,0,0,0.1111111111111111,294.00000000000006,0)" xlink:href="#bZ"/><use transform="matrix(0.1111111111111111,0,0,0.1111111111111111,316.2222222222223,0)" xlink:href="#co"/><use transform="matrix(0.1111111111111111,0,0,0.1111111111111111,345.00000000000006,0)" xlink:href="#bi"/><use transform="matrix(0.1111111111111111,0,0,0.1111111111111111,367.2222222222223,0)" xlink:href="#bL"/><use transform="matrix(0.1111111111111111,0,0,0.1111111111111111,387.2222222222223,0)" xlink:href="#as"/><use transform="matrix(0.1111111111111111,0,0,0.1111111111111111,409.4444444444445,0)" xlink:href="#au"/><use transform="matrix(0.1111111111111111,0,0,0.1111111111111111,431.66666666666674,0)" xlink:href="#ax"/><use transform="matrix(0.1111111111111111,0,0,0.1111111111111111,453.88888888888897,0)" xlink:href="#bL"/><use transform="matrix(0.1111111111111111,0,0,0.1111111111111111,473.88888888888897,0)" xlink:href="#bi"/></g><g id="O"><use transform="matrix(0.1111111111111111,0,0,0.1111111111111111,0,0)" xlink:href="#aG"/><use transform="matrix(0.1111111111111111,0,0,0.1111111111111111,8.777777777777777,0)" xlink:href="#aJ"/><use transform="matrix(0.1111111111111111,0,0,0.1111111111111111,19.888888888888886,0)" xlink:href="#aN"/><use transform="matrix(0.1111111111111111,0,0,0.1111111111111111,42.11111111111111,0)" xlink:href="#aY"/><use transform="matrix(0.1111111111111111,0,0,0.1111111111111111,75.33333333333333,0)" xlink:href="#aI"/><use transform="matrix(0.1111111111111111,0,0,0.1111111111111111,95.33333333333333,0)" xlink:href="#aO"/></g><g id="P"><use transform="matrix(0.1111111111111111,0,0,0.1111111111111111,0,0)" xlink:href="#bf"/><use transform="matrix(0.1111111111111111,0,0,0.1111111111111111,11.11111111111111,0)" xlink:href="#ce"/><use transform="matrix(0.1111111111111111,0,0,0.1111111111111111,37,0)" xlink:href="#cb"/><use transform="matrix(0.1111111111111111,0,0,0.1111111111111111,45.77777777777778,0)" xlink:href="#cc"/><use transform="matrix(0.1111111111111111,0,0,0.1111111111111111,68,0)" xlink:href="#cf"/><use transform="matrix(0.1111111111111111,0,0,0.1111111111111111,90.22222222222223,0)" xlink:href="#bV"/><use transform="matrix(0.1111111111111111,0,0,0.1111111111111111,112.44444444444446,0)" xlink:href="#cd"/><use transform="matrix(0.1111111111111111,0,0,0.1111111111111111,134.66666666666669,0)" xlink:href="#cg"/><use transform="matrix(0.1111111111111111,0,0,0.1111111111111111,161.33333333333334,0)" xlink:href="#ch"/><use transform="matrix(0.1111111111111111,0,0,0.1111111111111111,170.11111111111111,0)" xlink:href="#cf"/><use transform="matrix(0.1111111111111111,0,0,0.1111111111111111,192.33333333333334,0)" xlink:href="#ci"/><use transform="matrix(0.1111111111111111,0,0,0.1111111111111111,225.55555555555557,0)" xlink:href="#cf"/><use transform="matrix(0.1111111111111111,0,0,0.1111111111111111,247.77777777777783,0)" xlink:href="#cj"/><use transform="matrix(0.1111111111111111,0,0,0.1111111111111111,270,0)" xlink:href="#ck"/><use transform="matrix(0.1111111111111111,0,0,0.1111111111111111,281.1111111111111,0)" xlink:href="#bg"/></g><g id="Q"><use transform="matrix(0.1111111111111111,0,0,0.1111111111111111,0,0)" xlink:href="#aw"/><use transform="matrix(0.1111111111111111,0,0,0.1111111111111111,8.777777777777777,0)" xlink:href="#bo"/><use transform="matrix(0.1111111111111111,0,0,0.1111111111111111,31,0)" xlink:href="#bZ"/><use transform="matrix(0.1111111111111111,0,0,0.1111111111111111,53.22222222222222,0)" xlink:href="#bY"/><use transform="matrix(0.1111111111111111,0,0,0.1111111111111111,79.11111111111111,0)" xlink:href="#aw"/><use transform="matrix(0.1111111111111111,0,0,0.1111111111111111,87.88888888888889,0)" xlink:href="#bo"/><use transform="matrix(0.1111111111111111,0,0,0.1111111111111111,110.11111111111111,0)" xlink:href="#bi"/><use transform="matrix(0.1111111111111111,0,0,0.1111111111111111,132.33333333333334,0)" xlink:href="#au"/><use transform="matrix(0.1111111111111111,0,0,0.1111111111111111,154.55555555555557,0)" xlink:href="#bZ"/><use transform="matrix(0.1111111111111111,0,0,0.1111111111111111,176.7777777777778,0)" xlink:href="#ca"/><use transform="matrix(0.1111111111111111,0,0,0.1111111111111111,203.44444444444446,0)" xlink:href="#bl"/><use transform="matrix(0.1111111111111111,0,0,0.1111111111111111,212.22222222222223,0)" xlink:href="#bi"/><use transform="matrix(0.1111111111111111,0,0,0.1111111111111111,234.44444444444449,0)" xlink:href="#av"/><use transform="matrix(0.1111111111111111,0,0,0.1111111111111111,267.6666666666667,0)" xlink:href="#bi"/><use transform="matrix(0.1111111111111111,0,0,0.1111111111111111,289.8888888888889,0)" xlink:href="#ax"/><use transform="matrix(0.1111111111111111,0,0,0.1111111111111111,312.11111111111114,0)" xlink:href="#bk"/></g><path fill="#41a1c0" d="M143 0L79-87 56-68V0H24v-261h32v163l83-92h37l-77 82L181 0h-38" id="cp"/><g id="R"><use transform="matrix(0.1111111111111111,0,0,0.1111111111111111,0,0)" xlink:href="#cp"/><use transform="matrix(0.1111111111111111,0,0,0.1111111111111111,20,0)" xlink:href="#aG"/><use transform="matrix(0.1111111111111111,0,0,0.1111111111111111,28.777777777777775,0)" xlink:href="#aX"/><use transform="matrix(0.1111111111111111,0,0,0.1111111111111111,51,0)" xlink:href="#aM"/><use transform="matrix(0.1111111111111111,0,0,0.1111111111111111,73.22222222222223,0)" xlink:href="#aO"/><use transform="matrix(0.1111111111111111,0,0,0.1111111111111111,84.33333333333334,0)" xlink:href="#aP"/><use transform="matrix(0.1111111111111111,0,0,0.1111111111111111,111,0)" xlink:href="#aQ"/><use transform="matrix(0.1111111111111111,0,0,0.1111111111111111,122.1111111111111,0)" xlink:href="#aR"/><use transform="matrix(0.1111111111111111,0,0,0.1111111111111111,135.33333333333334,0)" xlink:href="#aS"/><use transform="matrix(0.1111111111111111,0,0,0.1111111111111111,144.11111111111111,0)" xlink:href="#aT"/><use transform="matrix(0.1111111111111111,0,0,0.1111111111111111,166.33333333333334,0)" xlink:href="#aU"/></g><path fill="#41a1c0" d="M33 0v-248h34V0H33" id="cq"/><g id="S"><use transform="matrix(0.1111111111111111,0,0,0.1111111111111111,0,0)" xlink:href="#bc"/><use transform="matrix(0.1111111111111111,0,0,0.1111111111111111,20,0)" xlink:href="#aG"/><use transform="matrix(0.1111111111111111,0,0,0.1111111111111111,28.777777777777775,0)" xlink:href="#aM"/><use transform="matrix(0.1111111111111111,0,0,0.1111111111111111,51,0)" xlink:href="#aN"/><use transform="matrix(0.1111111111111111,0,0,0.1111111111111111,73.22222222222223,0)" xlink:href="#ba"/><use transform="matrix(0.1111111111111111,0,0,0.1111111111111111,95.44444444444446,0)" xlink:href="#cq"/><use transform="matrix(0.1111111111111111,0,0,0.1111111111111111,106.55555555555557,0)" xlink:href="#aM"/><use transform="matrix(0.1111111111111111,0,0,0.1111111111111111,128.7777777777778,0)" xlink:href="#aO"/><use transform="matrix(0.1111111111111111,0,0,0.1111111111111111,139.8888888888889,0)" xlink:href="#aP"/><use transform="matrix(0.1111111111111111,0,0,0.1111111111111111,166.55555555555557,0)" xlink:href="#aQ"/><use transform="matrix(0.1111111111111111,0,0,0.1111111111111111,177.66666666666669,0)" xlink:href="#aR"/><use transform="matrix(0.1111111111111111,0,0,0.1111111111111111,190.8888888888889,0)" xlink:href="#aS"/><use transform="matrix(0.1111111111111111,0,0,0.1111111111111111,199.66666666666669,0)" xlink:href="#aT"/><use transform="matrix(0.1111111111111111,0,0,0.1111111111111111,221.8888888888889,0)" xlink:href="#aU"/></g><g id="T"><use transform="matrix(0.1111111111111111,0,0,0.1111111111111111,0,0)" xlink:href="#bp"/><use transform="matrix(0.1111111111111111,0,0,0.1111111111111111,33.22222222222222,0)" xlink:href="#au"/><use transform="matrix(0.1111111111111111,0,0,0.1111111111111111,55.44444444444444,0)" xlink:href="#bq"/><use transform="matrix(0.1111111111111111,0,0,0.1111111111111111,75.44444444444444,0)" xlink:href="#aw"/><use transform="matrix(0.1111111111111111,0,0,0.1111111111111111,84.22222222222221,0)" xlink:href="#bi"/><use transform="matrix(0.1111111111111111,0,0,0.1111111111111111,106.44444444444443,0)" xlink:href="#bL"/><use transform="matrix(0.1111111111111111,0,0,0.1111111111111111,126.44444444444444,0)" xlink:href="#co"/><use transform="matrix(0.1111111111111111,0,0,0.1111111111111111,155.2222222222222,0)" xlink:href="#bi"/><use transform="matrix(0.1111111111111111,0,0,0.1111111111111111,177.44444444444443,0)" xlink:href="#bL"/><use transform="matrix(0.1111111111111111,0,0,0.1111111111111111,197.44444444444443,0)" xlink:href="#as"/><use transform="matrix(0.1111111111111111,0,0,0.1111111111111111,219.66666666666666,0)" xlink:href="#au"/><use transform="matrix(0.1111111111111111,0,0,0.1111111111111111,241.88888888888889,0)" xlink:href="#ax"/><use transform="matrix(0.1111111111111111,0,0,0.1111111111111111,264.1111111111111,0)" xlink:href="#bL"/><use transform="matrix(0.1111111111111111,0,0,0.1111111111111111,284.1111111111111,0)" xlink:href="#bi"/></g><g id="U"><use transform="matrix(0.1111111111111111,0,0,0.1111111111111111,0,0)" xlink:href="#aH"/><use transform="matrix(0.1111111111111111,0,0,0.1111111111111111,13.222222222222221,0)" xlink:href="#aN"/><use transform="matrix(0.1111111111111111,0,0,0.1111111111111111,35.44444444444444,0)" xlink:href="#aI"/><use transform="matrix(0.1111111111111111,0,0,0.1111111111111111,55.44444444444444,0)" xlink:href="#bu"/><use transform="matrix(0.1111111111111111,0,0,0.1111111111111111,77.66666666666666,0)" xlink:href="#br"/><use transform="matrix(0.1111111111111111,0,0,0.1111111111111111,86.44444444444443,0)" xlink:href="#aJ"/><use transform="matrix(0.1111111111111111,0,0,0.1111111111111111,97.55555555555554,0)" xlink:href="#aI"/><use transform="matrix(0.1111111111111111,0,0,0.1111111111111111,117.55555555555554,0)" xlink:href="#aO"/></g><g id="V"><use transform="matrix(0.1111111111111111,0,0,0.1111111111111111,0,0)" xlink:href="#bf"/><use transform="matrix(0.1111111111111111,0,0,0.1111111111111111,11.11111111111111,0)" xlink:href="#bT"/><use transform="matrix(0.1111111111111111,0,0,0.1111111111111111,37.77777777777777,0)" xlink:href="#bU"/><use transform="matrix(0.1111111111111111,0,0,0.1111111111111111,60,0)" xlink:href="#bV"/><use transform="matrix(0.1111111111111111,0,0,0.1111111111111111,82.22222222222221,0)" xlink:href="#bW"/><use transform="matrix(0.1111111111111111,0,0,0.1111111111111111,110.99999999999999,0)" xlink:href="#bg"/></g><g id="W"><use transform="matrix(0.10493827160493828,0,0,0.10493827160493828,0,0)" xlink:href="#co"/><use transform="matrix(0.10493827160493828,0,0,0.10493827160493828,27.179012345679013,0)" xlink:href="#bi"/><use transform="matrix(0.10493827160493828,0,0,0.10493827160493828,48.16666666666667,0)" xlink:href="#bj"/><use transform="matrix(0.10493827160493828,0,0,0.10493827160493828,67.05555555555556,0)" xlink:href="#bi"/><use transform="matrix(0.10493827160493828,0,0,0.10493827160493828,88.04320987654322,0)" xlink:href="#ax"/><use transform="matrix(0.10493827160493828,0,0,0.10493827160493828,109.03086419753087,0)" xlink:href="#bk"/><use transform="matrix(0.10493827160493828,0,0,0.10493827160493828,119.5246913580247,0)" xlink:href="#bl"/><use transform="matrix(0.10493827160493828,0,0,0.10493827160493828,127.81481481481482,0)" xlink:href="#bm"/><use transform="matrix(0.10493827160493828,0,0,0.10493827160493828,146.70370370370372,0)" xlink:href="#bn"/><use transform="matrix(0.10493827160493828,0,0,0.10493827160493828,171.8888888888889,0)" xlink:href="#bo"/><use transform="matrix(0.10493827160493828,0,0,0.10493827160493828,192.87654320987656,0)" xlink:href="#bo"/><use transform="matrix(0.10493827160493828,0,0,0.10493827160493828,213.8641975308642,0)" xlink:href="#bi"/><use transform="matrix(0.10493827160493828,0,0,0.10493827160493828,234.85185185185188,0)" xlink:href="#bo"/><use transform="matrix(0.10493827160493828,0,0,0.10493827160493828,255.8395061728395,0)" xlink:href="#co"/><use transform="matrix(0.10493827160493828,0,0,0.10493827160493828,283.0185185185185,0)" xlink:href="#bi"/><use transform="matrix(0.10493827160493828,0,0,0.10493827160493828,304.0061728395061,0)" xlink:href="#bL"/><use transform="matrix(0.10493827160493828,0,0,0.10493827160493828,322.89506172839504,0)" xlink:href="#as"/><use transform="matrix(0.10493827160493828,0,0,0.10493827160493828,343.8827160493827,0)" xlink:href="#au"/><use transform="matrix(0.10493827160493828,0,0,0.10493827160493828,364.8703703703703,0)" xlink:href="#ax"/><use transform="matrix(0.10493827160493828,0,0,0.10493827160493828,385.85802469135797,0)" xlink:href="#bL"/><use transform="matrix(0.10493827160493828,0,0,0.10493827160493828,404.7469135802469,0)" xlink:href="#bi"/></g><g id="X"><use transform="matrix(0.1111111111111111,0,0,0.1111111111111111,0,0)" xlink:href="#ar"/><use transform="matrix(0.1111111111111111,0,0,0.1111111111111111,22.22222222222222,0)" xlink:href="#as"/><use transform="matrix(0.1111111111111111,0,0,0.1111111111111111,44.44444444444444,0)" xlink:href="#at"/><use transform="matrix(0.1111111111111111,0,0,0.1111111111111111,73.22222222222221,0)" xlink:href="#au"/><use transform="matrix(0.1111111111111111,0,0,0.1111111111111111,95.44444444444443,0)" xlink:href="#av"/><use transform="matrix(0.1111111111111111,0,0,0.1111111111111111,128.66666666666666,0)" xlink:href="#aw"/><use transform="matrix(0.1111111111111111,0,0,0.1111111111111111,137.44444444444443,0)" xlink:href="#ax"/><use transform="matrix(0.1111111111111111,0,0,0.1111111111111111,159.66666666666666,0)" xlink:href="#ay"/><use transform="matrix(0.1111111111111111,0,0,0.1111111111111111,181.88888888888889,0)" xlink:href="#co"/><use transform="matrix(0.1111111111111111,0,0,0.1111111111111111,210.66666666666666,0)" xlink:href="#bi"/><use transform="matrix(0.1111111111111111,0,0,0.1111111111111111,232.88888888888889,0)" xlink:href="#bL"/><use transform="matrix(0.1111111111111111,0,0,0.1111111111111111,252.88888888888889,0)" xlink:href="#as"/><use transform="matrix(0.1111111111111111,0,0,0.1111111111111111,275.1111111111111,0)" xlink:href="#au"/><use transform="matrix(0.1111111111111111,0,0,0.1111111111111111,297.3333333333333,0)" xlink:href="#ax"/><use transform="matrix(0.1111111111111111,0,0,0.1111111111111111,319.55555555555554,0)" xlink:href="#bL"/><use transform="matrix(0.1111111111111111,0,0,0.1111111111111111,339.55555555555554,0)" xlink:href="#bi"/></g></defs></g></svg>