<svg xmlns="http://www.w3.org/2000/svg" xmlns:xlink="http://www.w3.org/1999/xlink" xmlns:lucid="lucid" width="2044.04" height="1229.16"><g transform="translate(0 0)" lucid:page-tab-id="0_0"><path d="M20 37.82a6 6 0 0 1 6-6h253a6 6 0 0 1 6 6v8a14.48 14.48 0 0 1-4.24 10.24l-1.52 1.52A14.48 14.48 0 0 1 269 61.82H26a6 6 0 0 1-6-6z" fill="#fff"/><path d="M285 31.82v20l-10 10H20" stroke="#3a414a" stroke-width="3" fill="none"/><path d="M20 37.82a6 6 0 0 1 6-6h1988a6 6 0 0 1 6 6V1194a6 6 0 0 1-6 6H26a6 6 0 0 1-6-6z" stroke="#3a414a" stroke-width="3" fill="none"/><use xlink:href="#a" transform="matrix(1,0,0,1,28,31.822307081888084) translate(71.97006172839514 28.622222222222184)"/><path d="M40 860h1520v260H40z" stroke="#333" stroke-width="2" fill-opacity="0"/><use xlink:href="#b" transform="matrix(1,0,0,1,47.999999999999886,868) translate(531.8848765432099 26.84444444444444)"/><path d="M1071.1 178.18h410.5v229h-410.5z" stroke="#333" stroke-width="2" fill="#fff"/><path d="M1071.1 216.58h410.5" stroke="#333" stroke-width="2" fill="none"/><use xlink:href="#c" transform="matrix(1,0,0,1,1079.0854159606306,186.17769291811192) translate(131.75185185185185 15.233333333333334)"/><use xlink:href="#d" transform="matrix(1,0,0,1,1083.0854159606306,224.57769291811192) translate(0 35.233333333333334)"/><use xlink:href="#e" transform="matrix(1,0,0,1,1083.0854159606306,224.57769291811192) translate(5.185185185185186 35.233333333333334)"/><use xlink:href="#f" transform="matrix(1,0,0,1,1083.0854159606306,224.57769291811192) translate(32.0962962962963 35.233333333333334)"/><use xlink:href="#d" transform="matrix(1,0,0,1,1083.0854159606306,224.57769291811192) translate(0 57.63333333333334)"/><use xlink:href="#e" transform="matrix(1,0,0,1,1083.0854159606306,224.57769291811192) translate(5.185185185185186 57.63333333333334)"/><use xlink:href="#g" transform="matrix(1,0,0,1,1083.0854159606306,224.57769291811192) translate(32.0962962962963 57.63333333333334)"/><use xlink:href="#d" transform="matrix(1,0,0,1,1083.0854159606306,224.57769291811192) translate(0 80.03333333333333)"/><use xlink:href="#e" transform="matrix(1,0,0,1,1083.0854159606306,224.57769291811192) translate(5.185185185185186 80.03333333333333)"/><use xlink:href="#h" transform="matrix(1,0,0,1,1083.0854159606306,224.57769291811192) translate(32.0962962962963 80.03333333333333)"/><use xlink:href="#d" transform="matrix(1,0,0,1,1083.0854159606306,224.57769291811192) translate(0 102.43333333333334)"/><use xlink:href="#e" transform="matrix(1,0,0,1,1083.0854159606306,224.57769291811192) translate(5.185185185185186 102.43333333333334)"/><use xlink:href="#i" transform="matrix(1,0,0,1,1083.0854159606306,224.57769291811192) translate(32.0962962962963 102.43333333333334)"/><use xlink:href="#d" transform="matrix(1,0,0,1,1083.0854159606306,224.57769291811192) translate(0 124.83333333333334)"/><use xlink:href="#e" transform="matrix(1,0,0,1,1083.0854159606306,224.57769291811192) translate(5.185185185185186 124.83333333333334)"/><use xlink:href="#j" transform="matrix(1,0,0,1,1083.0854159606306,224.57769291811192) translate(32.0962962962963 124.83333333333334)"/><use xlink:href="#d" transform="matrix(1,0,0,1,1083.0854159606306,224.57769291811192) translate(0 147.23333333333335)"/><use xlink:href="#e" transform="matrix(1,0,0,1,1083.0854159606306,224.57769291811192) translate(5.185185185185186 147.23333333333335)"/><use xlink:href="#k" transform="matrix(1,0,0,1,1083.0854159606306,224.57769291811192) translate(32.0962962962963 147.23333333333335)"/><use xlink:href="#l" transform="matrix(1,0,0,1,1083.0854159606306,224.57769291811192) translate(124.2888888888889 147.23333333333335)"/><path d="M620.58 178.18h410.52v250H620.58z" stroke="#333" stroke-width="2" fill="#fff"/><path d="M620.58 216.58h410.52" stroke="#333" stroke-width="2" fill="none"/><use xlink:href="#m" transform="matrix(1,0,0,1,628.5754143432177,186.17769291811192) translate(113.08518518518518 15.233333333333334)"/><use xlink:href="#n" transform="matrix(1,0,0,1,632.5754143432177,224.57769291811192) translate(0 46.233333333333334)"/><use xlink:href="#g" transform="matrix(1,0,0,1,632.5754143432177,224.57769291811192) translate(26.911111111111115 46.233333333333334)"/><use xlink:href="#d" transform="matrix(1,0,0,1,632.5754143432177,224.57769291811192) translate(0 68.63333333333334)"/><use xlink:href="#e" transform="matrix(1,0,0,1,632.5754143432177,224.57769291811192) translate(5.185185185185186 68.63333333333334)"/><use xlink:href="#o" transform="matrix(1,0,0,1,632.5754143432177,224.57769291811192) translate(32.0962962962963 68.63333333333334)"/><use xlink:href="#d" transform="matrix(1,0,0,1,632.5754143432177,224.57769291811192) translate(0 91.03333333333333)"/><use xlink:href="#e" transform="matrix(1,0,0,1,632.5754143432177,224.57769291811192) translate(5.185185185185186 91.03333333333333)"/><use xlink:href="#i" transform="matrix(1,0,0,1,632.5754143432177,224.57769291811192) translate(32.0962962962963 91.03333333333333)"/><use xlink:href="#d" transform="matrix(1,0,0,1,632.5754143432177,224.57769291811192) translate(0 113.43333333333334)"/><use xlink:href="#e" transform="matrix(1,0,0,1,632.5754143432177,224.57769291811192) translate(5.185185185185186 113.43333333333334)"/><use xlink:href="#j" transform="matrix(1,0,0,1,632.5754143432177,224.57769291811192) translate(32.0962962962963 113.43333333333334)"/><use xlink:href="#d" transform="matrix(1,0,0,1,632.5754143432177,224.57769291811192) translate(0 135.83333333333334)"/><use xlink:href="#e" transform="matrix(1,0,0,1,632.5754143432177,224.57769291811192) translate(5.185185185185186 135.83333333333334)"/><use xlink:href="#p" transform="matrix(1,0,0,1,632.5754143432177,224.57769291811192) translate(32.0962962962963 135.83333333333334)"/><use xlink:href="#d" transform="matrix(1,0,0,1,632.5754143432177,224.57769291811192) translate(0 158.23333333333335)"/><use xlink:href="#e" transform="matrix(1,0,0,1,632.5754143432177,224.57769291811192) translate(5.185185185185186 158.23333333333335)"/><use xlink:href="#k" transform="matrix(1,0,0,1,632.5754143432177,224.57769291811192) translate(32.0962962962963 158.23333333333335)"/><use xlink:href="#l" transform="matrix(1,0,0,1,632.5754143432177,224.57769291811192) translate(124.2888888888889 158.23333333333335)"/><path d="M40 91.82h1941.6v476.36H40z" stroke="#333" stroke-width="2" fill-opacity="0"/><use xlink:href="#q" transform="matrix(1,0,0,1,47.999999999999886,99.82230708188808) translate(918.3524691358025 26.84444444444444)"/><path d="M74.25 188.18h502.87v297H74.25z" stroke="#333" stroke-width="2" fill="#fff"/><path d="M74.25 226.58h502.87" stroke="#333" stroke-width="2" fill="none"/><use xlink:href="#r" transform="matrix(1,0,0,1,82.25221294786755,196.17769291811192) translate(220.19259259259258 15.233333333333334)"/><use xlink:href="#n" transform="matrix(1,0,0,1,86.25221294786755,234.57769291811192) translate(0 35.633333333333326)"/><use xlink:href="#g" transform="matrix(1,0,0,1,86.25221294786755,234.57769291811192) translate(26.911111111111115 35.633333333333326)"/><use xlink:href="#d" transform="matrix(1,0,0,1,86.25221294786755,234.57769291811192) translate(0 58.03333333333333)"/><use xlink:href="#e" transform="matrix(1,0,0,1,86.25221294786755,234.57769291811192) translate(5.185185185185186 58.03333333333333)"/><use xlink:href="#s" transform="matrix(1,0,0,1,86.25221294786755,234.57769291811192) translate(32.0962962962963 58.03333333333333)"/><use xlink:href="#d" transform="matrix(1,0,0,1,86.25221294786755,234.57769291811192) translate(0 80.43333333333334)"/><use xlink:href="#e" transform="matrix(1,0,0,1,86.25221294786755,234.57769291811192) translate(5.185185185185186 80.43333333333334)"/><use xlink:href="#o" transform="matrix(1,0,0,1,86.25221294786755,234.57769291811192) translate(32.0962962962963 80.43333333333334)"/><use xlink:href="#d" transform="matrix(1,0,0,1,86.25221294786755,234.57769291811192) translate(0 102.83333333333333)"/><use xlink:href="#e" transform="matrix(1,0,0,1,86.25221294786755,234.57769291811192) translate(5.185185185185186 102.83333333333333)"/><use xlink:href="#i" transform="matrix(1,0,0,1,86.25221294786755,234.57769291811192) translate(32.0962962962963 102.83333333333333)"/><use xlink:href="#d" transform="matrix(1,0,0,1,86.25221294786755,234.57769291811192) translate(0 125.23333333333333)"/><use xlink:href="#e" transform="matrix(1,0,0,1,86.25221294786755,234.57769291811192) translate(5.185185185185186 125.23333333333333)"/><use xlink:href="#j" transform="matrix(1,0,0,1,86.25221294786755,234.57769291811192) translate(32.0962962962963 125.23333333333333)"/><use xlink:href="#d" transform="matrix(1,0,0,1,86.25221294786755,234.57769291811192) translate(0 147.63333333333333)"/><use xlink:href="#e" transform="matrix(1,0,0,1,86.25221294786755,234.57769291811192) translate(5.185185185185186 147.63333333333333)"/><use xlink:href="#t" transform="matrix(1,0,0,1,86.25221294786755,234.57769291811192) translate(32.0962962962963 147.63333333333333)"/><use xlink:href="#d" transform="matrix(1,0,0,1,86.25221294786755,234.57769291811192) translate(0 170.03333333333333)"/><use xlink:href="#e" transform="matrix(1,0,0,1,86.25221294786755,234.57769291811192) translate(5.185185185185186 170.03333333333333)"/><use xlink:href="#p" transform="matrix(1,0,0,1,86.25221294786755,234.57769291811192) translate(32.0962962962963 170.03333333333333)"/><use xlink:href="#d" transform="matrix(1,0,0,1,86.25221294786755,234.57769291811192) translate(0 192.43333333333334)"/><use xlink:href="#e" transform="matrix(1,0,0,1,86.25221294786755,234.57769291811192) translate(5.185185185185186 192.43333333333334)"/><use xlink:href="#u" transform="matrix(1,0,0,1,86.25221294786755,234.57769291811192) translate(32.0962962962963 192.43333333333334)"/><use xlink:href="#d" transform="matrix(1,0,0,1,86.25221294786755,234.57769291811192) translate(0 214.83333333333334)"/><use xlink:href="#e" transform="matrix(1,0,0,1,86.25221294786755,234.57769291811192) translate(5.185185185185186 214.83333333333334)"/><use xlink:href="#k" transform="matrix(1,0,0,1,86.25221294786755,234.57769291811192) translate(32.0962962962963 214.83333333333334)"/><use xlink:href="#l" transform="matrix(1,0,0,1,86.25221294786755,234.57769291811192) translate(124.2888888888889 214.83333333333334)"/><path d="M40 578.18h964.42v259.48H40z" stroke="#333" stroke-width="2" fill-opacity="0"/><g><use xlink:href="#v" transform="matrix(1,0,0,1,47.999999999999886,586.1776929181119) translate(388.14104938271606 26.84444444444444)"/></g><path d="M560 624.82h407.37v156H560z" stroke="#333" stroke-width="2" fill="#fff"/><path d="M560 672.82h407.37" stroke="#333" stroke-width="2" fill="none"/><g><use xlink:href="#w" transform="matrix(1,0,0,1,567.9999999999998,632.8223070818881) translate(19.407407407407362 21.333333333333336)"/></g><g><use xlink:href="#x" transform="matrix(1,0,0,1,571.9999999999998,680.8223070818881) translate(0 35.333333333333336)"/><use xlink:href="#y" transform="matrix(1,0,0,1,571.9999999999998,680.8223070818881) translate(84.67864666666667 35.333333333333336)"/><use xlink:href="#z" transform="matrix(1,0,0,1,571.9999999999998,680.8223070818881) translate(0 67.33333333333334)"/><use xlink:href="#A" transform="matrix(1,0,0,1,571.9999999999998,680.8223070818881) translate(84.67864666666667 67.33333333333334)"/></g><path d="M80 624.82h420v133H80z" stroke="#333" stroke-width="2" fill="#fff"/><path d="M80 663.22h420" stroke="#333" stroke-width="2" fill="none"/><g><use xlink:href="#B" transform="matrix(1,0,0,1,87.99999999999989,632.822307081888) translate(182.34814814814814 15.233333333333334)"/></g><g><use xlink:href="#C" transform="matrix(1,0,0,1,91.99999999999989,671.222307081888) translate(0 32.03333333333333)"/><use xlink:href="#D" transform="matrix(1,0,0,1,91.99999999999989,671.222307081888) translate(33.18518518518519 32.03333333333333)"/><use xlink:href="#d" transform="matrix(1,0,0,1,91.99999999999989,671.222307081888) translate(0 54.43333333333334)"/><use xlink:href="#E" transform="matrix(1,0,0,1,91.99999999999989,671.222307081888) translate(5.185185185185186 54.43333333333334)"/><use xlink:href="#F" transform="matrix(1,0,0,1,91.99999999999989,671.222307081888) translate(38.370370370370374 54.43333333333334)"/></g><path d="M531.1 940h500v139h-500z" stroke="#333" stroke-width="2" fill="#fff"/><path d="M531.1 978.4h500" stroke="#333" stroke-width="2" fill="none"/><g><use xlink:href="#G" transform="matrix(1,0,0,1,539.1017301326915,948) translate(179 15.233333333333334)"/></g><g><use xlink:href="#n" transform="matrix(1,0,0,1,543.1017301326915,986.4) translate(0 33.96666666666667)"/><use xlink:href="#H" transform="matrix(1,0,0,1,543.1017301326915,986.4) translate(26.911111111111115 33.96666666666667)"/><use xlink:href="#I" transform="matrix(1,0,0,1,543.1017301326915,986.4) translate(0 59.56666666666667)"/></g><path d="M60 937h420v139H60z" stroke="#333" stroke-width="2" fill="#fff"/><path d="M60 975.4h420" stroke="#333" stroke-width="2" fill="none"/><g><use xlink:href="#J" transform="matrix(1,0,0,1,68,945) translate(86.2407407407407 15.233333333333334)"/></g><g><use xlink:href="#n" transform="matrix(1,0,0,1,72,983.4) translate(0 33.96666666666667)"/><use xlink:href="#K" transform="matrix(1,0,0,1,72,983.4) translate(26.911111111111115 33.96666666666667)"/><use xlink:href="#L" transform="matrix(1,0,0,1,72,983.4) translate(81.77037037037037 33.96666666666667)"/><use xlink:href="#I" transform="matrix(1,0,0,1,72,983.4) translate(0 59.56666666666667)"/></g><path d="M1071.1 940h410.5v139h-410.5z" stroke="#333" stroke-width="2" fill="#fff"/><path d="M1071.1 978.4h410.5" stroke="#333" stroke-width="2" fill="none"/><g><use xlink:href="#M" transform="matrix(1,0,0,1,1079.0854159606306,948) translate(122.08148148148146 15.233333333333334)"/></g><g><use xlink:href="#n" transform="matrix(1,0,0,1,1083.0854159606306,986.4) translate(0 35.03333333333333)"/><use xlink:href="#N" transform="matrix(1,0,0,1,1083.0854159606306,986.4) translate(26.911111111111115 35.03333333333333)"/><use xlink:href="#d" transform="matrix(1,0,0,1,1083.0854159606306,986.4) translate(0 57.43333333333334)"/><use xlink:href="#e" transform="matrix(1,0,0,1,1083.0854159606306,986.4) translate(5.185185185185186 57.43333333333334)"/><use xlink:href="#O" transform="matrix(1,0,0,1,1083.0854159606306,986.4) translate(32.0962962962963 57.43333333333334)"/></g><path d="M1521.6 178.18h410.52v106H1521.6z" stroke="#333" stroke-width="2" fill="#fff"/><path d="M1521.6 216.58h410.52" stroke="#333" stroke-width="2" fill="none"/><g><use xlink:href="#P" transform="matrix(1,0,0,1,1529.5954175780435,186.17769291811194) translate(126.02222222222223 15.233333333333334)"/></g><g><use xlink:href="#n" transform="matrix(1,0,0,1,1533.5954175780435,224.57769291811195) translate(0 17.46666666666667)"/><use xlink:href="#Q" transform="matrix(1,0,0,1,1533.5954175780435,224.57769291811195) translate(26.911111111111115 17.46666666666667)"/><use xlink:href="#R" transform="matrix(1,0,0,1,1533.5954175780435,224.57769291811195) translate(92.14074074074075 17.46666666666667)"/><use xlink:href="#I" transform="matrix(1,0,0,1,1533.5954175780435,224.57769291811195) translate(0 43.06666666666668)"/></g><path d="M1521.6 418.18h410.52v106H1521.6z" stroke="#333" stroke-width="2" fill="#fff"/><path d="M1521.6 456.58h410.52" stroke="#333" stroke-width="2" fill="none"/><g><use xlink:href="#S" transform="matrix(1,0,0,1,1529.5954175780435,426.1776929181119) translate(95.9481481481481 15.233333333333334)"/></g><g><use xlink:href="#n" transform="matrix(1,0,0,1,1533.5954175780435,464.5776929181119) translate(0 17.46666666666667)"/><use xlink:href="#Q" transform="matrix(1,0,0,1,1533.5954175780435,464.5776929181119) translate(26.911111111111115 17.46666666666667)"/><use xlink:href="#R" transform="matrix(1,0,0,1,1533.5954175780435,464.5776929181119) translate(92.14074074074075 17.46666666666667)"/><use xlink:href="#I" transform="matrix(1,0,0,1,1533.5954175780435,464.5776929181119) translate(0 43.06666666666668)"/></g><path d="M1521.6 298.18h410.52v106H1521.6z" stroke="#333" stroke-width="2" fill="#fff"/><path d="M1521.6 336.58h410.52" stroke="#333" stroke-width="2" fill="none"/><g><use xlink:href="#T" transform="matrix(1,0,0,1,1529.5954175780435,306.1776929181119) translate(113.08518518518517 15.233333333333334)"/></g><g><use xlink:href="#n" transform="matrix(1,0,0,1,1533.5954175780435,344.5776929181119) translate(0 17.46666666666667)"/><use xlink:href="#Q" transform="matrix(1,0,0,1,1533.5954175780435,344.5776929181119) translate(26.911111111111115 17.46666666666667)"/><use xlink:href="#R" transform="matrix(1,0,0,1,1533.5954175780435,344.5776929181119) translate(92.14074074074075 17.46666666666667)"/><use xlink:href="#I" transform="matrix(1,0,0,1,1533.5954175780435,344.5776929181119) translate(0 43.06666666666668)"/></g><defs><path fill="#1071e5" d="M230 0l2-204L168 0h-37L68-204 70 0H24v-248h70l56 185 57-185h69V0h-46" id="U"/><path fill="#1071e5" d="M110-194c64 0 96 36 96 99 0 64-35 99-97 99-61 0-95-36-95-99 0-62 34-99 96-99zm-1 164c35 0 45-28 45-65 0-40-10-65-43-65-34 0-45 26-45 65 0 36 10 65 43 65" id="V"/><path fill="#1071e5" d="M88-194c31-1 46 15 58 34l-1-101h50l1 261h-48c-2-10 0-23-3-31C134-8 116 4 84 4 32 4 16-41 15-95c0-56 19-97 73-99zm17 164c33 0 40-30 41-66 1-37-9-64-41-64s-38 30-39 65c0 43 13 65 39 65" id="W"/><path fill="#1071e5" d="M185-48c-13 30-37 53-82 52C43 2 14-33 14-96s30-98 90-98c62 0 83 45 84 108H66c0 31 8 55 39 56 18 0 30-7 34-22zm-45-69c5-46-57-63-70-21-2 6-4 13-4 21h74" id="X"/><path fill="#1071e5" d="M25 0v-261h50V0H25" id="Y"/><g id="a"><use transform="matrix(0.09938271604938258,0,0,0.09938271604938258,0,0)" xlink:href="#U"/><use transform="matrix(0.09938271604938258,0,0,0.09938271604938258,29.71543209876539,0)" xlink:href="#V"/><use transform="matrix(0.09938271604938258,0,0,0.09938271604938258,51.480246913580174,0)" xlink:href="#W"/><use transform="matrix(0.09938271604938258,0,0,0.09938271604938258,73.24506172839496,0)" xlink:href="#X"/><use transform="matrix(0.09938271604938258,0,0,0.09938271604938258,93.12160493827147,0)" xlink:href="#Y"/></g><path fill="#1071e5" d="M146-102V0H94v-102L6-248h54l60 105 60-105h54" id="Z"/><path fill="#1071e5" d="M85 4C-2 5 27-109 22-190h50c7 57-23 150 33 157 60-5 35-97 40-157h50l1 190h-47c-2-12 1-28-3-38-12 25-28 42-61 42" id="aa"/><path fill="#1071e5" d="M115-3C79 11 28 4 28-45v-112H4v-33h27l15-45h31v45h36v33H77v99c-1 23 16 31 38 25v30" id="ab"/><path fill="#1071e5" d="M135-194c52 0 70 43 70 98 0 56-19 99-73 100-30 1-46-15-58-35L72 0H24l1-261h50v104c11-23 29-37 60-37zM114-30c31 0 40-27 40-66 0-37-7-63-39-63s-41 28-41 65c0 36 8 64 40 64" id="ac"/><path fill="#1071e5" d="M-4 44V30h207v14H-4" id="ad"/><path fill="#1071e5" d="M169-182c-1-43-94-46-97-3 18 66 151 10 154 114 3 95-165 93-204 36-6-8-10-19-12-30l50-8c3 46 112 56 116 5-17-69-150-10-154-114-4-87 153-88 188-35 5 8 8 18 10 28" id="ae"/><path fill="#1071e5" d="M133-34C117-15 103 5 69 4 32 3 11-16 11-54c-1-60 55-63 116-61 1-26-3-47-28-47-18 1-26 9-28 27l-52-2c7-38 36-58 82-57s74 22 75 68l1 82c-1 14 12 18 25 15v27c-30 8-71 5-69-32zm-48 3c29 0 43-24 42-57-32 0-66-3-65 30 0 17 8 27 23 27" id="af"/><path fill="#1071e5" d="M135-150c-39-12-60 13-60 57V0H25l-1-190h47c2 13-1 29 3 40 6-28 27-53 61-41v41" id="ag"/><path fill="#1071e5" d="M190-63c-7 42-38 67-86 67-59 0-84-38-90-98-12-110 154-137 174-36l-49 2c-2-19-15-32-35-32-30 0-35 28-38 64-6 74 65 87 74 30" id="ah"/><path fill="#1071e5" d="M114-157C55-157 80-60 75 0H25v-261h50l-1 109c12-26 28-41 61-42 86-1 58 113 63 194h-50c-7-57 23-157-34-157" id="ai"/><path fill="#1071e5" d="M240-174c0 40-23 61-54 70L253 0h-59l-57-94H76V0H24v-248c93 4 217-23 216 74zM76-134c48-2 112 12 112-38 0-48-66-32-112-35v73" id="aj"/><path fill="#1071e5" d="M137-138c1-29-70-34-71-4 15 46 118 7 119 86 1 83-164 76-172 9l43-7c4 19 20 25 44 25 33 8 57-30 24-41C81-84 22-81 20-136c-2-80 154-74 161-7" id="ak"/><path fill="#1071e5" d="M135-194c53 0 70 44 70 98 0 56-19 98-73 100-31 1-45-17-59-34 3 33 2 69 2 105H25l-1-265h48c2 10 0 23 3 31 11-24 29-35 60-35zM114-30c33 0 39-31 40-66 0-38-9-64-40-64-56 0-55 130 0 130" id="al"/><path fill="#1071e5" d="M135-194c87-1 58 113 63 194h-50c-7-57 23-157-34-157-59 0-34 97-39 157H25l-1-190h47c2 12-1 28 3 38 12-26 28-41 61-42" id="am"/><g id="b"><use transform="matrix(0.09320987654320986,0,0,0.09320987654320986,0,0)" xlink:href="#Z"/><use transform="matrix(0.09320987654320986,0,0,0.09320987654320986,19.8537037037037,0)" xlink:href="#V"/><use transform="matrix(0.09320987654320986,0,0,0.09320987654320986,40.266666666666666,0)" xlink:href="#aa"/><use transform="matrix(0.09320987654320986,0,0,0.09320987654320986,60.67962962962963,0)" xlink:href="#ab"/><use transform="matrix(0.09320987654320986,0,0,0.09320987654320986,71.77160493827161,0)" xlink:href="#aa"/><use transform="matrix(0.09320987654320986,0,0,0.09320987654320986,92.18456790123457,0)" xlink:href="#ac"/><use transform="matrix(0.09320987654320986,0,0,0.09320987654320986,112.59753086419754,0)" xlink:href="#X"/><use transform="matrix(0.09320987654320986,0,0,0.09320987654320986,131.2395061728395,0)" xlink:href="#ad"/><use transform="matrix(0.09320987654320986,0,0,0.09320987654320986,149.88148148148147,0)" xlink:href="#ae"/><use transform="matrix(0.09320987654320986,0,0,0.09320987654320986,172.25185185185182,0)" xlink:href="#X"/><use transform="matrix(0.09320987654320986,0,0,0.09320987654320986,190.8938271604938,0)" xlink:href="#af"/><use transform="matrix(0.09320987654320986,0,0,0.09320987654320986,209.53580246913577,0)" xlink:href="#ag"/><use transform="matrix(0.09320987654320986,0,0,0.09320987654320986,222.58518518518514,0)" xlink:href="#ah"/><use transform="matrix(0.09320987654320986,0,0,0.09320987654320986,241.2271604938271,0)" xlink:href="#ai"/><use transform="matrix(0.09320987654320986,0,0,0.09320987654320986,261.6401234567901,0)" xlink:href="#ad"/><use transform="matrix(0.09320987654320986,0,0,0.09320987654320986,280.28209876543207,0)" xlink:href="#aj"/><use transform="matrix(0.09320987654320986,0,0,0.09320987654320986,304.4234567901234,0)" xlink:href="#X"/><use transform="matrix(0.09320987654320986,0,0,0.09320987654320986,323.06543209876537,0)" xlink:href="#ak"/><use transform="matrix(0.09320987654320986,0,0,0.09320987654320986,341.70740740740735,0)" xlink:href="#al"/><use transform="matrix(0.09320987654320986,0,0,0.09320987654320986,362.1203703703703,0)" xlink:href="#V"/><use transform="matrix(0.09320987654320986,0,0,0.09320987654320986,382.5333333333333,0)" xlink:href="#am"/><use transform="matrix(0.09320987654320986,0,0,0.09320987654320986,402.94629629629634,0)" xlink:href="#ak"/><use transform="matrix(0.09320987654320986,0,0,0.09320987654320986,421.5882716049383,0)" xlink:href="#X"/></g><path fill="#5dd8ff" d="M84 4C-5 8 30-112 23-190h32v120c0 31 7 50 39 49 72-2 45-101 50-169h31l1 190h-30c-1-10 1-25-2-33-11 22-28 36-60 37" id="an"/><path fill="#5dd8ff" d="M115-194c55 1 70 41 70 98S169 2 115 4C84 4 66-9 55-30l1 105H24l-1-265h31l2 30c10-21 28-34 59-34zm-8 174c40 0 45-34 45-75s-6-73-45-74c-42 0-51 32-51 76 0 43 10 73 51 73" id="ao"/><path fill="#5dd8ff" d="M212-179c-10-28-35-45-73-45-59 0-87 40-87 99 0 60 29 101 89 101 43 0 62-24 78-52l27 14C228-24 195 4 139 4 59 4 22-46 18-125c-6-104 99-153 187-111 19 9 31 26 39 46" id="ap"/><path fill="#5dd8ff" d="M100-194c62-1 85 37 85 99 1 63-27 99-86 99S16-35 15-95c0-66 28-99 85-99zM99-20c44 1 53-31 53-75 0-43-8-75-51-75s-53 32-53 75 10 74 51 75" id="aq"/><path fill="#5dd8ff" d="M210-169c-67 3-38 105-44 169h-31v-121c0-29-5-50-35-48C34-165 62-65 56 0H25l-1-190h30c1 10-1 24 2 32 10-44 99-50 107 0 11-21 27-35 58-36 85-2 47 119 55 194h-31v-121c0-29-5-49-35-48" id="ar"/><path fill="#5dd8ff" d="M24-231v-30h32v30H24zM24 0v-190h32V0H24" id="as"/><path fill="#5dd8ff" d="M117-194c89-4 53 116 60 194h-32v-121c0-31-8-49-39-48C34-167 62-67 57 0H25l-1-190h30c1 10-1 24 2 32 11-22 29-35 61-36" id="at"/><path fill="#5dd8ff" d="M177-190C167-65 218 103 67 71c-23-6-38-20-44-43l32-5c15 47 100 32 89-28v-30C133-14 115 1 83 1 29 1 15-40 15-95c0-56 16-97 71-98 29-1 48 16 59 35 1-10 0-23 2-32h30zM94-22c36 0 50-32 50-73 0-42-14-75-50-75-39 0-46 34-46 75s6 73 46 73" id="au"/><path fill="#5dd8ff" d="M185-189c-5-48-123-54-124 2 14 75 158 14 163 119 3 78-121 87-175 55-17-10-28-26-33-46l33-7c5 56 141 63 141-1 0-78-155-14-162-118-5-82 145-84 179-34 5 7 8 16 11 25" id="av"/><path fill="#5dd8ff" d="M106-169C34-169 62-67 57 0H25v-261h32l-1 103c12-21 28-36 61-36 89 0 53 116 60 194h-32v-121c2-32-8-49-39-48" id="aw"/><path fill="#5dd8ff" d="M206 0h-36l-40-164L89 0H53L-1-190h32L70-26l43-164h34l41 164 42-164h31" id="ax"/><g id="c"><use transform="matrix(0.05185185185185186,0,0,0.05185185185185186,0,0)" xlink:href="#an"/><use transform="matrix(0.05185185185185186,0,0,0.05185185185185186,10.370370370370372,0)" xlink:href="#ao"/><use transform="matrix(0.05185185185185186,0,0,0.05185185185185186,20.740740740740744,0)" xlink:href="#ap"/><use transform="matrix(0.05185185185185186,0,0,0.05185185185185186,34.17037037037038,0)" xlink:href="#aq"/><use transform="matrix(0.05185185185185186,0,0,0.05185185185185186,44.54074074074075,0)" xlink:href="#ar"/><use transform="matrix(0.05185185185185186,0,0,0.05185185185185186,60.044444444444466,0)" xlink:href="#as"/><use transform="matrix(0.05185185185185186,0,0,0.05185185185185186,64.14074074074075,0)" xlink:href="#at"/><use transform="matrix(0.05185185185185186,0,0,0.05185185185185186,74.51111111111112,0)" xlink:href="#au"/><use transform="matrix(0.05185185185185186,0,0,0.05185185185185186,84.88148148148149,0)" xlink:href="#av"/><use transform="matrix(0.05185185185185186,0,0,0.05185185185185186,97.32592592592593,0)" xlink:href="#aw"/><use transform="matrix(0.05185185185185186,0,0,0.05185185185185186,107.69629629629631,0)" xlink:href="#aq"/><use transform="matrix(0.05185185185185186,0,0,0.05185185185185186,118.06666666666665,0)" xlink:href="#ax"/></g><path fill="#fc5fa3" d="M25 0v-261h50V0H25" id="ay"/><path fill="#fc5fa3" d="M185-48c-13 30-37 53-82 52C43 2 14-33 14-96s30-98 90-98c62 0 83 45 84 108H66c0 31 8 55 39 56 18 0 30-7 34-22zm-45-69c5-46-57-63-70-21-2 6-4 13-4 21h74" id="az"/><path fill="#fc5fa3" d="M115-3C79 11 28 4 28-45v-112H4v-33h27l15-45h31v45h36v33H77v99c-1 23 16 31 38 25v30" id="aA"/><g id="e"><use transform="matrix(0.05185185185185186,0,0,0.05185185185185186,0,0)" xlink:href="#ay"/><use transform="matrix(0.05185185185185186,0,0,0.05185185185185186,5.185185185185186,0)" xlink:href="#az"/><use transform="matrix(0.05185185185185186,0,0,0.05185185185185186,15.555555555555557,0)" xlink:href="#aA"/></g><path fill="#41a1c0" d="M101-234c-31-9-42 10-38 44h38v23H63V0H32v-167H5v-23h27c-7-52 17-82 69-68v24" id="aB"/><path fill="#41a1c0" d="M24-231v-30h32v30H24zM24 0v-190h32V0H24" id="aC"/><path fill="#41a1c0" d="M114-163C36-179 61-72 57 0H25l-1-190h30c1 12-1 29 2 39 6-27 23-49 58-41v29" id="aD"/><path fill="#41a1c0" d="M135-143c-3-34-86-38-87 0 15 53 115 12 119 90S17 21 10-45l28-5c4 36 97 45 98 0-10-56-113-15-118-90-4-57 82-63 122-42 12 7 21 19 24 35" id="aE"/><path fill="#41a1c0" d="M59-47c-2 24 18 29 38 22v24C64 9 27 4 27-40v-127H5v-23h24l9-43h21v43h35v23H59v120" id="aF"/><path fill="#41a1c0" d="M-5 72V49h209v23H-5" id="aG"/><path fill="#41a1c0" d="M141-36C126-15 110 5 73 4 37 3 15-17 15-53c-1-64 63-63 125-63 3-35-9-54-41-54-24 1-41 7-42 31l-33-3c5-37 33-52 76-52 45 0 72 20 72 64v82c-1 20 7 32 28 27v20c-31 9-61-2-59-35zM48-53c0 20 12 33 32 33 41-3 63-29 60-74-43 2-92-5-92 41" id="aH"/><path fill="#41a1c0" d="M85-194c31 0 48 13 60 33l-1-100h32l1 261h-30c-2-10 0-23-3-31C134-8 116 4 85 4 32 4 16-35 15-94c0-66 23-100 70-100zm9 24c-40 0-46 34-46 75 0 40 6 74 45 74 42 0 51-32 51-76 0-42-9-74-50-73" id="aI"/><path fill="#41a1c0" d="M100-194c63 0 86 42 84 106H49c0 40 14 67 53 68 26 1 43-12 49-29l28 8c-11 28-37 45-77 45C44 4 14-33 15-96c1-61 26-98 85-98zm52 81c6-60-76-77-97-28-3 7-6 17-6 28h103" id="aJ"/><path fill="#fff" fill-opacity=".85" d="M33-154v-36h34v36H33zM33 0v-36h34V0H33" id="aK"/><path fill="#d0a8ff" d="M185-189c-5-48-123-54-124 2 14 75 158 14 163 119 3 78-121 87-175 55-17-10-28-26-33-46l33-7c5 56 141 63 141-1 0-78-155-14-162-118-5-82 145-84 179-34 5 7 8 16 11 25" id="aL"/><path fill="#d0a8ff" d="M59-47c-2 24 18 29 38 22v24C64 9 27 4 27-40v-127H5v-23h24l9-43h21v43h35v23H59v120" id="aM"/><path fill="#d0a8ff" d="M114-163C36-179 61-72 57 0H25l-1-190h30c1 12-1 29 2 39 6-27 23-49 58-41v29" id="aN"/><path fill="#d0a8ff" d="M24-231v-30h32v30H24zM24 0v-190h32V0H24" id="aO"/><path fill="#d0a8ff" d="M117-194c89-4 53 116 60 194h-32v-121c0-31-8-49-39-48C34-167 62-67 57 0H25l-1-190h30c1 10-1 24 2 32 11-22 29-35 61-36" id="aP"/><path fill="#d0a8ff" d="M177-190C167-65 218 103 67 71c-23-6-38-20-44-43l32-5c15 47 100 32 89-28v-30C133-14 115 1 83 1 29 1 15-40 15-95c0-56 16-97 71-98 29-1 48 16 59 35 1-10 0-23 2-32h30zM94-22c36 0 50-32 50-73 0-42-14-75-50-75-39 0-46 34-46 75s6 73 46 73" id="aQ"/><path fill="#fff" fill-opacity=".85" d="M103-251c84 0 111 97 45 133-19 10-37 24-39 52H78c0-63 77-55 77-114 0-30-21-42-52-43-32 0-53 17-56 46l-32-2c7-45 34-72 88-72zM77 0v-35h34V0H77" id="aR"/><g id="f"><use transform="matrix(0.05185185185185186,0,0,0.05185185185185186,0,0)" xlink:href="#aB"/><use transform="matrix(0.05185185185185186,0,0,0.05185185185185186,5.185185185185186,0)" xlink:href="#aC"/><use transform="matrix(0.05185185185185186,0,0,0.05185185185185186,9.281481481481482,0)" xlink:href="#aD"/><use transform="matrix(0.05185185185185186,0,0,0.05185185185185186,15.451851851851853,0)" xlink:href="#aE"/><use transform="matrix(0.05185185185185186,0,0,0.05185185185185186,24.785185185185185,0)" xlink:href="#aF"/><use transform="matrix(0.05185185185185186,0,0,0.05185185185185186,29.970370370370375,0)" xlink:href="#aG"/><use transform="matrix(0.05185185185185186,0,0,0.05185185185185186,40.34074074074074,0)" xlink:href="#aH"/><use transform="matrix(0.05185185185185186,0,0,0.05185185185185186,50.711111111111116,0)" xlink:href="#aC"/><use transform="matrix(0.05185185185185186,0,0,0.05185185185185186,54.80740740740741,0)" xlink:href="#aD"/><use transform="matrix(0.05185185185185186,0,0,0.05185185185185186,60.97777777777778,0)" xlink:href="#aG"/><use transform="matrix(0.05185185185185186,0,0,0.05185185185185186,71.34814814814816,0)" xlink:href="#aI"/><use transform="matrix(0.05185185185185186,0,0,0.05185185185185186,81.71851851851852,0)" xlink:href="#aH"/><use transform="matrix(0.05185185185185186,0,0,0.05185185185185186,92.08888888888889,0)" xlink:href="#aF"/><use transform="matrix(0.05185185185185186,0,0,0.05185185185185186,97.27407407407408,0)" xlink:href="#aJ"/><use transform="matrix(0.05185185185185186,0,0,0.05185185185185186,107.64444444444446,0)" xlink:href="#aK"/><use transform="matrix(0.05185185185185186,0,0,0.05185185185185186,112.82962962962964,0)" xlink:href="#aL"/><use transform="matrix(0.05185185185185186,0,0,0.05185185185185186,125.2740740740741,0)" xlink:href="#aM"/><use transform="matrix(0.05185185185185186,0,0,0.05185185185185186,130.45925925925926,0)" xlink:href="#aN"/><use transform="matrix(0.05185185185185186,0,0,0.05185185185185186,136.62962962962962,0)" xlink:href="#aO"/><use transform="matrix(0.05185185185185186,0,0,0.05185185185185186,140.7259259259259,0)" xlink:href="#aP"/><use transform="matrix(0.05185185185185186,0,0,0.05185185185185186,151.0962962962963,0)" xlink:href="#aQ"/><use transform="matrix(0.05185185185185186,0,0,0.05185185185185186,161.46666666666667,0)" xlink:href="#aR"/></g><path fill="#d0a8ff" d="M33 0v-248h34V0H33" id="aS"/><g id="g"><use transform="matrix(0.05185185185185186,0,0,0.05185185185185186,0,0)" xlink:href="#aC"/><use transform="matrix(0.05185185185185186,0,0,0.05185185185185186,4.0962962962962965,0)" xlink:href="#aI"/><use transform="matrix(0.05185185185185186,0,0,0.05185185185185186,14.466666666666669,0)" xlink:href="#aK"/><use transform="matrix(0.05185185185185186,0,0,0.05185185185185186,19.651851851851855,0)" xlink:href="#aS"/><use transform="matrix(0.05185185185185186,0,0,0.05185185185185186,24.837037037037042,0)" xlink:href="#aP"/><use transform="matrix(0.05185185185185186,0,0,0.05185185185185186,35.207407407407416,0)" xlink:href="#aM"/></g><path fill="#41a1c0" d="M117-194c89-4 53 116 60 194h-32v-121c0-31-8-49-39-48C34-167 62-67 57 0H25l-1-190h30c1 10-1 24 2 32 11-22 29-35 61-36" id="aT"/><path fill="#41a1c0" d="M210-169c-67 3-38 105-44 169h-31v-121c0-29-5-50-35-48C34-165 62-65 56 0H25l-1-190h30c1 10-1 24 2 32 10-44 99-50 107 0 11-21 27-35 58-36 85-2 47 119 55 194h-31v-121c0-29-5-49-35-48" id="aU"/><g id="h"><use transform="matrix(0.05185185185185186,0,0,0.05185185185185186,0,0)" xlink:href="#aT"/><use transform="matrix(0.05185185185185186,0,0,0.05185185185185186,10.370370370370372,0)" xlink:href="#aH"/><use transform="matrix(0.05185185185185186,0,0,0.05185185185185186,20.740740740740744,0)" xlink:href="#aU"/><use transform="matrix(0.05185185185185186,0,0,0.05185185185185186,36.24444444444445,0)" xlink:href="#aJ"/><use transform="matrix(0.05185185185185186,0,0,0.05185185185185186,46.61481481481482,0)" xlink:href="#aK"/><use transform="matrix(0.05185185185185186,0,0,0.05185185185185186,51.800000000000004,0)" xlink:href="#aL"/><use transform="matrix(0.05185185185185186,0,0,0.05185185185185186,64.24444444444445,0)" xlink:href="#aM"/><use transform="matrix(0.05185185185185186,0,0,0.05185185185185186,69.42962962962964,0)" xlink:href="#aN"/><use transform="matrix(0.05185185185185186,0,0,0.05185185185185186,75.60000000000002,0)" xlink:href="#aO"/><use transform="matrix(0.05185185185185186,0,0,0.05185185185185186,79.69629629629632,0)" xlink:href="#aP"/><use transform="matrix(0.05185185185185186,0,0,0.05185185185185186,90.06666666666669,0)" xlink:href="#aQ"/><use transform="matrix(0.05185185185185186,0,0,0.05185185185185186,100.43703703703706,0)" xlink:href="#aR"/></g><path fill="#41a1c0" d="M115-194c55 1 70 41 70 98S169 2 115 4C84 4 66-9 55-30l1 105H24l-1-265h31l2 30c10-21 28-34 59-34zm-8 174c40 0 45-34 45-75s-6-73-45-74c-42 0-51 32-51 76 0 43 10 73 51 73" id="aV"/><path fill="#41a1c0" d="M100-194c62-1 85 37 85 99 1 63-27 99-86 99S16-35 15-95c0-66 28-99 85-99zM99-20c44 1 53-31 53-75 0-43-8-75-51-75s-53 32-53 75 10 74 51 75" id="aW"/><path fill="#41a1c0" d="M106-169C34-169 62-67 57 0H25v-261h32l-1 103c12-21 28-36 61-36 89 0 53 116 60 194h-32v-121c2-32-8-49-39-48" id="aX"/><g id="i"><use transform="matrix(0.05185185185185186,0,0,0.05185185185185186,0,0)" xlink:href="#aV"/><use transform="matrix(0.05185185185185186,0,0,0.05185185185185186,10.370370370370372,0)" xlink:href="#aW"/><use transform="matrix(0.05185185185185186,0,0,0.05185185185185186,20.740740740740744,0)" xlink:href="#aE"/><use transform="matrix(0.05185185185185186,0,0,0.05185185185185186,30.074074074074076,0)" xlink:href="#aF"/><use transform="matrix(0.05185185185185186,0,0,0.05185185185185186,35.25925925925926,0)" xlink:href="#aJ"/><use transform="matrix(0.05185185185185186,0,0,0.05185185185185186,45.62962962962963,0)" xlink:href="#aD"/><use transform="matrix(0.05185185185185186,0,0,0.05185185185185186,51.800000000000004,0)" xlink:href="#aG"/><use transform="matrix(0.05185185185185186,0,0,0.05185185185185186,62.17037037037038,0)" xlink:href="#aV"/><use transform="matrix(0.05185185185185186,0,0,0.05185185185185186,72.54074074074074,0)" xlink:href="#aH"/><use transform="matrix(0.05185185185185186,0,0,0.05185185185185186,82.91111111111111,0)" xlink:href="#aF"/><use transform="matrix(0.05185185185185186,0,0,0.05185185185185186,88.0962962962963,0)" xlink:href="#aX"/><use transform="matrix(0.05185185185185186,0,0,0.05185185185185186,98.46666666666667,0)" xlink:href="#aK"/><use transform="matrix(0.05185185185185186,0,0,0.05185185185185186,103.65185185185186,0)" xlink:href="#aL"/><use transform="matrix(0.05185185185185186,0,0,0.05185185185185186,116.0962962962963,0)" xlink:href="#aM"/><use transform="matrix(0.05185185185185186,0,0,0.05185185185185186,121.28148148148149,0)" xlink:href="#aN"/><use transform="matrix(0.05185185185185186,0,0,0.05185185185185186,127.45185185185187,0)" xlink:href="#aO"/><use transform="matrix(0.05185185185185186,0,0,0.05185185185185186,131.54814814814816,0)" xlink:href="#aP"/><use transform="matrix(0.05185185185185186,0,0,0.05185185185185186,141.91851851851854,0)" xlink:href="#aQ"/><use transform="matrix(0.05185185185185186,0,0,0.05185185185185186,152.28888888888892,0)" xlink:href="#aR"/></g><path fill="#41a1c0" d="M108 0H70L1-190h34L89-25l56-165h34" id="aY"/><path fill="#41a1c0" d="M206 0h-36l-40-164L89 0H53L-1-190h32L70-26l43-164h34l41 164 42-164h31" id="aZ"/><g id="j"><use transform="matrix(0.05185185185185186,0,0,0.05185185185185186,0,0)" xlink:href="#aW"/><use transform="matrix(0.05185185185185186,0,0,0.05185185185185186,10.370370370370372,0)" xlink:href="#aY"/><use transform="matrix(0.05185185185185186,0,0,0.05185185185185186,19.703703703703706,0)" xlink:href="#aJ"/><use transform="matrix(0.05185185185185186,0,0,0.05185185185185186,30.074074074074076,0)" xlink:href="#aD"/><use transform="matrix(0.05185185185185186,0,0,0.05185185185185186,36.24444444444445,0)" xlink:href="#aY"/><use transform="matrix(0.05185185185185186,0,0,0.05185185185185186,45.57777777777778,0)" xlink:href="#aC"/><use transform="matrix(0.05185185185185186,0,0,0.05185185185185186,49.67407407407408,0)" xlink:href="#aJ"/><use transform="matrix(0.05185185185185186,0,0,0.05185185185185186,60.04444444444445,0)" xlink:href="#aZ"/><use transform="matrix(0.05185185185185186,0,0,0.05185185185185186,73.47407407407408,0)" xlink:href="#aK"/><use transform="matrix(0.05185185185185186,0,0,0.05185185185185186,78.65925925925927,0)" xlink:href="#aL"/><use transform="matrix(0.05185185185185186,0,0,0.05185185185185186,91.10370370370372,0)" xlink:href="#aM"/><use transform="matrix(0.05185185185185186,0,0,0.05185185185185186,96.2888888888889,0)" xlink:href="#aN"/><use transform="matrix(0.05185185185185186,0,0,0.05185185185185186,102.45925925925928,0)" xlink:href="#aO"/><use transform="matrix(0.05185185185185186,0,0,0.05185185185185186,106.55555555555559,0)" xlink:href="#aP"/><use transform="matrix(0.05185185185185186,0,0,0.05185185185185186,116.92592592592597,0)" xlink:href="#aQ"/><use transform="matrix(0.05185185185185186,0,0,0.05185185185185186,127.2962962962963,0)" xlink:href="#aR"/></g><path fill="#41a1c0" d="M177-190C167-65 218 103 67 71c-23-6-38-20-44-43l32-5c15 47 100 32 89-28v-30C133-14 115 1 83 1 29 1 15-40 15-95c0-56 16-97 71-98 29-1 48 16 59 35 1-10 0-23 2-32h30zM94-22c36 0 50-32 50-73 0-42-14-75-50-75-39 0-46 34-46 75s6 73 46 73" id="ba"/><g id="k"><use transform="matrix(0.05185185185185186,0,0,0.05185185185185186,0,0)" xlink:href="#ba"/><use transform="matrix(0.05185185185185186,0,0,0.05185185185185186,10.370370370370372,0)" xlink:href="#aJ"/><use transform="matrix(0.05185185185185186,0,0,0.05185185185185186,20.740740740740744,0)" xlink:href="#aT"/><use transform="matrix(0.05185185185185186,0,0,0.05185185185185186,31.111111111111114,0)" xlink:href="#aD"/><use transform="matrix(0.05185185185185186,0,0,0.05185185185185186,37.281481481481485,0)" xlink:href="#aJ"/><use transform="matrix(0.05185185185185186,0,0,0.05185185185185186,47.65185185185186,0)" xlink:href="#aG"/><use transform="matrix(0.05185185185185186,0,0,0.05185185185185186,58.022222222222226,0)" xlink:href="#aC"/><use transform="matrix(0.05185185185185186,0,0,0.05185185185185186,62.11851851851853,0)" xlink:href="#aI"/><use transform="matrix(0.05185185185185186,0,0,0.05185185185185186,72.4888888888889,0)" xlink:href="#aE"/><use transform="matrix(0.05185185185185186,0,0,0.05185185185185186,81.82222222222222,0)" xlink:href="#aK"/></g><path fill="#fff" fill-opacity=".85" d="M26 75v-336h71v23H56V52h41v23H26" id="bb"/><path fill="#fff" fill-opacity=".85" d="M3 75V52h41v-290H3v-23h71V75H3" id="bc"/><g id="l"><use transform="matrix(0.05185185185185186,0,0,0.05185185185185186,0,0)" xlink:href="#bb"/><use transform="matrix(0.05185185185185186,0,0,0.05185185185185186,5.185185185185186,0)" xlink:href="#aS"/><use transform="matrix(0.05185185185185186,0,0,0.05185185185185186,10.370370370370372,0)" xlink:href="#aP"/><use transform="matrix(0.05185185185185186,0,0,0.05185185185185186,20.740740740740744,0)" xlink:href="#aM"/><use transform="matrix(0.05185185185185186,0,0,0.05185185185185186,25.92592592592593,0)" xlink:href="#bc"/></g><path fill="#5dd8ff" d="M114-163C36-179 61-72 57 0H25l-1-190h30c1 12-1 29 2 39 6-27 23-49 58-41v29" id="bd"/><path fill="#5dd8ff" d="M100-194c63 0 86 42 84 106H49c0 40 14 67 53 68 26 1 43-12 49-29l28 8c-11 28-37 45-77 45C44 4 14-33 15-96c1-61 26-98 85-98zm52 81c6-60-76-77-97-28-3 7-6 17-6 28h103" id="be"/><path fill="#5dd8ff" d="M96-169c-40 0-48 33-48 73s9 75 48 75c24 0 41-14 43-38l32 2c-6 37-31 61-74 61-59 0-76-41-82-99-10-93 101-131 147-64 4 7 5 14 7 22l-32 3c-4-21-16-35-41-35" id="bf"/><path fill="#5dd8ff" d="M59-47c-2 24 18 29 38 22v24C64 9 27 4 27-40v-127H5v-23h24l9-43h21v43h35v23H59v120" id="bg"/><path fill="#5dd8ff" d="M24 0v-261h32V0H24" id="bh"/><path fill="#5dd8ff" d="M179-190L93 31C79 59 56 82 12 73V49c39 6 53-20 64-50L1-190h34L92-34l54-156h33" id="bi"/><path fill="#5dd8ff" d="M205 0l-28-72H64L36 0H1l101-248h38L239 0h-34zm-38-99l-47-123c-12 45-31 82-46 123h93" id="bj"/><path fill="#5dd8ff" d="M85-194c31 0 48 13 60 33l-1-100h32l1 261h-30c-2-10 0-23-3-31C134-8 116 4 85 4 32 4 16-35 15-94c0-66 23-100 70-100zm9 24c-40 0-46 34-46 75 0 40 6 74 45 74 42 0 51-32 51-76 0-42-9-74-50-73" id="bk"/><path fill="#5dd8ff" d="M240 0l2-218c-23 76-54 145-80 218h-23L58-218 59 0H30v-248h44l77 211c21-75 51-140 76-211h43V0h-30" id="bl"/><path fill="#5dd8ff" d="M108 0H70L1-190h34L89-25l56-165h34" id="bm"/><g id="m"><use transform="matrix(0.05185185185185186,0,0,0.05185185185185186,0,0)" xlink:href="#bd"/><use transform="matrix(0.05185185185185186,0,0,0.05185185185185186,6.170370370370371,0)" xlink:href="#be"/><use transform="matrix(0.05185185185185186,0,0,0.05185185185185186,16.540740740740745,0)" xlink:href="#bf"/><use transform="matrix(0.05185185185185186,0,0,0.05185185185185186,25.87407407407408,0)" xlink:href="#be"/><use transform="matrix(0.05185185185185186,0,0,0.05185185185185186,36.244444444444454,0)" xlink:href="#at"/><use transform="matrix(0.05185185185185186,0,0,0.05185185185185186,46.61481481481483,0)" xlink:href="#bg"/><use transform="matrix(0.05185185185185186,0,0,0.05185185185185186,51.80000000000001,0)" xlink:href="#bh"/><use transform="matrix(0.05185185185185186,0,0,0.05185185185185186,55.8962962962963,0)" xlink:href="#bi"/><use transform="matrix(0.05185185185185186,0,0,0.05185185185185186,65.22962962962964,0)" xlink:href="#bj"/><use transform="matrix(0.05185185185185186,0,0,0.05185185185185186,77.67407407407408,0)" xlink:href="#bk"/><use transform="matrix(0.05185185185185186,0,0,0.05185185185185186,88.04444444444445,0)" xlink:href="#bk"/><use transform="matrix(0.05185185185185186,0,0,0.05185185185185186,98.41481481481482,0)" xlink:href="#be"/><use transform="matrix(0.05185185185185186,0,0,0.05185185185185186,108.78518518518517,0)" xlink:href="#bk"/><use transform="matrix(0.05185185185185186,0,0,0.05185185185185186,119.15555555555555,0)" xlink:href="#bl"/><use transform="matrix(0.05185185185185186,0,0,0.05185185185185186,134.65925925925924,0)" xlink:href="#aq"/><use transform="matrix(0.05185185185185186,0,0,0.05185185185185186,145.02962962962962,0)" xlink:href="#bm"/><use transform="matrix(0.05185185185185186,0,0,0.05185185185185186,154.36296296296297,0)" xlink:href="#as"/><use transform="matrix(0.05185185185185186,0,0,0.05185185185185186,158.45925925925926,0)" xlink:href="#be"/></g><g id="n"><use transform="matrix(0.05185185185185186,0,0,0.05185185185185186,0,0)" xlink:href="#ay"/><use transform="matrix(0.05185185185185186,0,0,0.05185185185185186,5.185185185185186,0)" xlink:href="#az"/><use transform="matrix(0.05185185185185186,0,0,0.05185185185185186,15.555555555555557,0)" xlink:href="#aA"/></g><path fill="#41a1c0" d="M24 0v-261h32V0H24" id="bn"/><g id="o"><use transform="matrix(0.05185185185185186,0,0,0.05185185185185186,0,0)" xlink:href="#aW"/><use transform="matrix(0.05185185185185186,0,0,0.05185185185185186,10.370370370370372,0)" xlink:href="#aD"/><use transform="matrix(0.05185185185185186,0,0,0.05185185185185186,16.540740740740745,0)" xlink:href="#aC"/><use transform="matrix(0.05185185185185186,0,0,0.05185185185185186,20.63703703703704,0)" xlink:href="#ba"/><use transform="matrix(0.05185185185185186,0,0,0.05185185185185186,31.00740740740741,0)" xlink:href="#aC"/><use transform="matrix(0.05185185185185186,0,0,0.05185185185185186,35.10370370370371,0)" xlink:href="#aT"/><use transform="matrix(0.05185185185185186,0,0,0.05185185185185186,45.47407407407408,0)" xlink:href="#aH"/><use transform="matrix(0.05185185185185186,0,0,0.05185185185185186,55.84444444444445,0)" xlink:href="#bn"/><use transform="matrix(0.05185185185185186,0,0,0.05185185185185186,59.94074074074075,0)" xlink:href="#aG"/><use transform="matrix(0.05185185185185186,0,0,0.05185185185185186,70.31111111111112,0)" xlink:href="#aF"/><use transform="matrix(0.05185185185185186,0,0,0.05185185185185186,75.49629629629631,0)" xlink:href="#aC"/><use transform="matrix(0.05185185185185186,0,0,0.05185185185185186,79.59259259259261,0)" xlink:href="#aF"/><use transform="matrix(0.05185185185185186,0,0,0.05185185185185186,84.7777777777778,0)" xlink:href="#bn"/><use transform="matrix(0.05185185185185186,0,0,0.05185185185185186,88.8740740740741,0)" xlink:href="#aJ"/><use transform="matrix(0.05185185185185186,0,0,0.05185185185185186,99.24444444444447,0)" xlink:href="#aK"/><use transform="matrix(0.05185185185185186,0,0,0.05185185185185186,104.42962962962966,0)" xlink:href="#aL"/><use transform="matrix(0.05185185185185186,0,0,0.05185185185185186,116.87407407407412,0)" xlink:href="#aM"/><use transform="matrix(0.05185185185185186,0,0,0.05185185185185186,122.05925925925929,0)" xlink:href="#aN"/><use transform="matrix(0.05185185185185186,0,0,0.05185185185185186,128.22962962962967,0)" xlink:href="#aO"/><use transform="matrix(0.05185185185185186,0,0,0.05185185185185186,132.32592592592596,0)" xlink:href="#aP"/><use transform="matrix(0.05185185185185186,0,0,0.05185185185185186,142.69629629629634,0)" xlink:href="#aQ"/><use transform="matrix(0.05185185185185186,0,0,0.05185185185185186,153.06666666666672,0)" xlink:href="#aR"/></g><g id="p"><use transform="matrix(0.05185185185185186,0,0,0.05185185185185186,0,0)" xlink:href="#aD"/><use transform="matrix(0.05185185185185186,0,0,0.05185185185185186,6.170370370370371,0)" xlink:href="#aJ"/><use transform="matrix(0.05185185185185186,0,0,0.05185185185185186,16.540740740740745,0)" xlink:href="#bn"/><use transform="matrix(0.05185185185185186,0,0,0.05185185185185186,20.63703703703704,0)" xlink:href="#aJ"/><use transform="matrix(0.05185185185185186,0,0,0.05185185185185186,31.00740740740741,0)" xlink:href="#aH"/><use transform="matrix(0.05185185185185186,0,0,0.05185185185185186,41.37777777777779,0)" xlink:href="#aE"/><use transform="matrix(0.05185185185185186,0,0,0.05185185185185186,50.71111111111112,0)" xlink:href="#aJ"/><use transform="matrix(0.05185185185185186,0,0,0.05185185185185186,61.0814814814815,0)" xlink:href="#aG"/><use transform="matrix(0.05185185185185186,0,0,0.05185185185185186,71.45185185185187,0)" xlink:href="#aI"/><use transform="matrix(0.05185185185185186,0,0,0.05185185185185186,81.82222222222224,0)" xlink:href="#aH"/><use transform="matrix(0.05185185185185186,0,0,0.05185185185185186,92.1925925925926,0)" xlink:href="#aF"/><use transform="matrix(0.05185185185185186,0,0,0.05185185185185186,97.3777777777778,0)" xlink:href="#aJ"/><use transform="matrix(0.05185185185185186,0,0,0.05185185185185186,107.74814814814816,0)" xlink:href="#aK"/><use transform="matrix(0.05185185185185186,0,0,0.05185185185185186,112.93333333333335,0)" xlink:href="#aL"/><use transform="matrix(0.05185185185185186,0,0,0.05185185185185186,125.3777777777778,0)" xlink:href="#aM"/><use transform="matrix(0.05185185185185186,0,0,0.05185185185185186,130.56296296296298,0)" xlink:href="#aN"/><use transform="matrix(0.05185185185185186,0,0,0.05185185185185186,136.73333333333335,0)" xlink:href="#aO"/><use transform="matrix(0.05185185185185186,0,0,0.05185185185185186,140.82962962962964,0)" xlink:href="#aP"/><use transform="matrix(0.05185185185185186,0,0,0.05185185185185186,151.20000000000002,0)" xlink:href="#aQ"/><use transform="matrix(0.05185185185185186,0,0,0.05185185185185186,161.5703703703704,0)" xlink:href="#aR"/></g><path fill="#1071e5" d="M231 0h-52l-39-155L100 0H48L-1-190h46L77-45c9-52 24-97 36-145h53l37 145 32-145h46" id="bo"/><g id="q"><use transform="matrix(0.09320987654320986,0,0,0.09320987654320986,0,0)" xlink:href="#ae"/><use transform="matrix(0.09320987654320986,0,0,0.09320987654320986,22.370370370370367,0)" xlink:href="#ai"/><use transform="matrix(0.09320987654320986,0,0,0.09320987654320986,42.78333333333333,0)" xlink:href="#V"/><use transform="matrix(0.09320987654320986,0,0,0.09320987654320986,63.196296296296296,0)" xlink:href="#bo"/></g><g id="r"><use transform="matrix(0.05185185185185186,0,0,0.05185185185185186,0,0)" xlink:href="#av"/><use transform="matrix(0.05185185185185186,0,0,0.05185185185185186,12.444444444444446,0)" xlink:href="#aw"/><use transform="matrix(0.05185185185185186,0,0,0.05185185185185186,22.814814814814817,0)" xlink:href="#aq"/><use transform="matrix(0.05185185185185186,0,0,0.05185185185185186,33.18518518518519,0)" xlink:href="#ax"/></g><g id="s"><use transform="matrix(0.05185185185185186,0,0,0.05185185185185186,0,0)" xlink:href="#aF"/><use transform="matrix(0.05185185185185186,0,0,0.05185185185185186,5.185185185185186,0)" xlink:href="#aC"/><use transform="matrix(0.05185185185185186,0,0,0.05185185185185186,9.281481481481482,0)" xlink:href="#aF"/><use transform="matrix(0.05185185185185186,0,0,0.05185185185185186,14.466666666666669,0)" xlink:href="#bn"/><use transform="matrix(0.05185185185185186,0,0,0.05185185185185186,18.562962962962963,0)" xlink:href="#aJ"/><use transform="matrix(0.05185185185185186,0,0,0.05185185185185186,28.933333333333337,0)" xlink:href="#aK"/><use transform="matrix(0.05185185185185186,0,0,0.05185185185185186,34.11851851851852,0)" xlink:href="#aL"/><use transform="matrix(0.05185185185185186,0,0,0.05185185185185186,46.56296296296297,0)" xlink:href="#aM"/><use transform="matrix(0.05185185185185186,0,0,0.05185185185185186,51.748148148148154,0)" xlink:href="#aN"/><use transform="matrix(0.05185185185185186,0,0,0.05185185185185186,57.918518518518525,0)" xlink:href="#aO"/><use transform="matrix(0.05185185185185186,0,0,0.05185185185185186,62.01481481481482,0)" xlink:href="#aP"/><use transform="matrix(0.05185185185185186,0,0,0.05185185185185186,72.3851851851852,0)" xlink:href="#aQ"/><use transform="matrix(0.05185185185185186,0,0,0.05185185185185186,82.75555555555556,0)" xlink:href="#aR"/></g><path fill="#41a1c0" d="M96-169c-40 0-48 33-48 73s9 75 48 75c24 0 41-14 43-38l32 2c-6 37-31 61-74 61-59 0-76-41-82-99-10-93 101-131 147-64 4 7 5 14 7 22l-32 3c-4-21-16-35-41-35" id="bp"/><path fill="#41a1c0" d="M84 4C-5 8 30-112 23-190h32v120c0 31 7 50 39 49 72-2 45-101 50-169h31l1 190h-30c-1-10 1-25-2-33-11 22-28 36-60 37" id="bq"/><g id="t"><use transform="matrix(0.05185185185185186,0,0,0.05185185185185186,0,0)" xlink:href="#aY"/><use transform="matrix(0.05185185185185186,0,0,0.05185185185185186,9.333333333333334,0)" xlink:href="#aW"/><use transform="matrix(0.05185185185185186,0,0,0.05185185185185186,19.703703703703706,0)" xlink:href="#aF"/><use transform="matrix(0.05185185185185186,0,0,0.05185185185185186,24.888888888888893,0)" xlink:href="#aJ"/><use transform="matrix(0.05185185185185186,0,0,0.05185185185185186,35.25925925925927,0)" xlink:href="#aG"/><use transform="matrix(0.05185185185185186,0,0,0.05185185185185186,45.62962962962964,0)" xlink:href="#bp"/><use transform="matrix(0.05185185185185186,0,0,0.05185185185185186,54.96296296296298,0)" xlink:href="#aW"/><use transform="matrix(0.05185185185185186,0,0,0.05185185185185186,65.33333333333334,0)" xlink:href="#bq"/><use transform="matrix(0.05185185185185186,0,0,0.05185185185185186,75.70370370370371,0)" xlink:href="#aT"/><use transform="matrix(0.05185185185185186,0,0,0.05185185185185186,86.07407407407408,0)" xlink:href="#aF"/><use transform="matrix(0.05185185185185186,0,0,0.05185185185185186,91.25925925925927,0)" xlink:href="#aK"/><use transform="matrix(0.05185185185185186,0,0,0.05185185185185186,96.44444444444446,0)" xlink:href="#aS"/><use transform="matrix(0.05185185185185186,0,0,0.05185185185185186,101.62962962962965,0)" xlink:href="#aP"/><use transform="matrix(0.05185185185185186,0,0,0.05185185185185186,112.00000000000001,0)" xlink:href="#aM"/></g><path fill="#d0a8ff" d="M30-248c118-7 216 8 213 122C240-48 200 0 122 0H30v-248zM63-27c89 8 146-16 146-99s-60-101-146-95v194" id="br"/><path fill="#d0a8ff" d="M100-194c62-1 85 37 85 99 1 63-27 99-86 99S16-35 15-95c0-66 28-99 85-99zM99-20c44 1 53-31 53-75 0-43-8-75-51-75s-53 32-53 75 10 74 51 75" id="bs"/><path fill="#d0a8ff" d="M84 4C-5 8 30-112 23-190h32v120c0 31 7 50 39 49 72-2 45-101 50-169h31l1 190h-30c-1-10 1-25-2-33-11 22-28 36-60 37" id="bt"/><path fill="#d0a8ff" d="M115-194c53 0 69 39 70 98 0 66-23 100-70 100C84 3 66-7 56-30L54 0H23l1-261h32v101c10-23 28-34 59-34zm-8 174c40 0 45-34 45-75 0-40-5-75-45-74-42 0-51 32-51 76 0 43 10 73 51 73" id="bu"/><path fill="#d0a8ff" d="M24 0v-261h32V0H24" id="bv"/><path fill="#d0a8ff" d="M100-194c63 0 86 42 84 106H49c0 40 14 67 53 68 26 1 43-12 49-29l28 8c-11 28-37 45-77 45C44 4 14-33 15-96c1-61 26-98 85-98zm52 81c6-60-76-77-97-28-3 7-6 17-6 28h103" id="bw"/><g id="u"><use transform="matrix(0.05185185185185186,0,0,0.05185185185185186,0,0)" xlink:href="#aY"/><use transform="matrix(0.05185185185185186,0,0,0.05185185185185186,9.333333333333334,0)" xlink:href="#aW"/><use transform="matrix(0.05185185185185186,0,0,0.05185185185185186,19.703703703703706,0)" xlink:href="#aF"/><use transform="matrix(0.05185185185185186,0,0,0.05185185185185186,24.888888888888893,0)" xlink:href="#aJ"/><use transform="matrix(0.05185185185185186,0,0,0.05185185185185186,35.25925925925927,0)" xlink:href="#aG"/><use transform="matrix(0.05185185185185186,0,0,0.05185185185185186,45.62962962962964,0)" xlink:href="#aH"/><use transform="matrix(0.05185185185185186,0,0,0.05185185185185186,56.000000000000014,0)" xlink:href="#aY"/><use transform="matrix(0.05185185185185186,0,0,0.05185185185185186,65.33333333333334,0)" xlink:href="#aJ"/><use transform="matrix(0.05185185185185186,0,0,0.05185185185185186,75.70370370370371,0)" xlink:href="#aD"/><use transform="matrix(0.05185185185185186,0,0,0.05185185185185186,81.87407407407409,0)" xlink:href="#aH"/><use transform="matrix(0.05185185185185186,0,0,0.05185185185185186,92.24444444444445,0)" xlink:href="#ba"/><use transform="matrix(0.05185185185185186,0,0,0.05185185185185186,102.61481481481482,0)" xlink:href="#aJ"/><use transform="matrix(0.05185185185185186,0,0,0.05185185185185186,112.9851851851852,0)" xlink:href="#aK"/><use transform="matrix(0.05185185185185186,0,0,0.05185185185185186,118.17037037037038,0)" xlink:href="#br"/><use transform="matrix(0.05185185185185186,0,0,0.05185185185185186,131.60000000000002,0)" xlink:href="#bs"/><use transform="matrix(0.05185185185185186,0,0,0.05185185185185186,141.9703703703704,0)" xlink:href="#bt"/><use transform="matrix(0.05185185185185186,0,0,0.05185185185185186,152.34074074074078,0)" xlink:href="#bu"/><use transform="matrix(0.05185185185185186,0,0,0.05185185185185186,162.71111111111117,0)" xlink:href="#bv"/><use transform="matrix(0.05185185185185186,0,0,0.05185185185185186,166.80740740740745,0)" xlink:href="#bw"/></g><path fill="#1071e5" d="M199 0l-22-63H83L61 0H9l90-248h61L250 0h-51zm-33-102l-36-108c-10 38-24 72-36 108h72" id="bx"/><g id="v"><use transform="matrix(0.09320987654320986,0,0,0.09320987654320986,0,0)" xlink:href="#bx"/><use transform="matrix(0.09320987654320986,0,0,0.09320987654320986,24.141358024691353,0)" xlink:href="#aa"/><use transform="matrix(0.09320987654320986,0,0,0.09320987654320986,44.554320987654314,0)" xlink:href="#ab"/><use transform="matrix(0.09320987654320986,0,0,0.09320987654320986,55.646296296296285,0)" xlink:href="#ai"/><use transform="matrix(0.09320987654320986,0,0,0.09320987654320986,76.05925925925925,0)" xlink:href="#U"/><use transform="matrix(0.09320987654320986,0,0,0.09320987654320986,103.929012345679,0)" xlink:href="#V"/><use transform="matrix(0.09320987654320986,0,0,0.09320987654320986,124.34197530864196,0)" xlink:href="#W"/><use transform="matrix(0.09320987654320986,0,0,0.09320987654320986,144.7549382716049,0)" xlink:href="#X"/><use transform="matrix(0.09320987654320986,0,0,0.09320987654320986,163.3969135802469,0)" xlink:href="#Y"/></g><path fill="#333" d="M169-182c-1-43-94-46-97-3 18 66 151 10 154 114 3 95-165 93-204 36-6-8-10-19-12-30l50-8c3 46 112 56 116 5-17-69-150-10-154-114-4-87 153-88 188-35 5 8 8 18 10 28" id="by"/><path fill="#333" d="M85 4C-2 5 27-109 22-190h50c7 57-23 150 33 157 60-5 35-97 40-157h50l1 190h-47c-2-12 1-28-3-38-12 25-28 42-61 42" id="bz"/><path fill="#333" d="M135-194c53 0 70 44 70 98 0 56-19 98-73 100-31 1-45-17-59-34 3 33 2 69 2 105H25l-1-265h48c2 10 0 23 3 31 11-24 29-35 60-35zM114-30c33 0 39-31 40-66 0-38-9-64-40-64-56 0-55 130 0 130" id="bA"/><path fill="#333" d="M185-48c-13 30-37 53-82 52C43 2 14-33 14-96s30-98 90-98c62 0 83 45 84 108H66c0 31 8 55 39 56 18 0 30-7 34-22zm-45-69c5-46-57-63-70-21-2 6-4 13-4 21h74" id="bB"/><path fill="#333" d="M135-150c-39-12-60 13-60 57V0H25l-1-190h47c2 13-1 29 3 40 6-28 27-53 61-41v41" id="bC"/><path fill="#333" d="M133-34C117-15 103 5 69 4 32 3 11-16 11-54c-1-60 55-63 116-61 1-26-3-47-28-47-18 1-26 9-28 27l-52-2c7-38 36-58 82-57s74 22 75 68l1 82c-1 14 12 18 25 15v27c-30 8-71 5-69-32zm-48 3c29 0 43-24 42-57-32 0-66-3-65 30 0 17 8 27 23 27" id="bD"/><path fill="#333" d="M140-251c80 0 125 45 125 126S219 4 139 4C58 4 15-44 15-125s44-126 125-126zm-1 214c52 0 73-35 73-88 0-50-21-86-72-86-52 0-73 35-73 86s22 88 72 88" id="bE"/><path fill="#333" d="M135-194c52 0 70 43 70 98 0 56-19 99-73 100-30 1-46-15-58-35L72 0H24l1-261h50v104c11-23 29-37 60-37zM114-30c31 0 40-27 40-66 0-37-7-63-39-63s-41 28-41 65c0 36 8 64 40 64" id="bF"/><path fill="#333" d="M25-224v-37h50v37H25zM75 22c2 45-34 59-81 51V38c22 5 31-5 31-27v-201h50V22" id="bG"/><path fill="#333" d="M190-63c-7 42-38 67-86 67-59 0-84-38-90-98-12-110 154-137 174-36l-49 2c-2-19-15-32-35-32-30 0-35 28-38 64-6 74 65 87 74 30" id="bH"/><path fill="#333" d="M115-3C79 11 28 4 28-45v-112H4v-33h27l15-45h31v45h36v33H77v99c-1 23 16 31 38 25v30" id="bI"/><path fill="#333" d="M24 0v-248h52V0H24" id="bJ"/><path fill="#333" d="M88-194c31-1 46 15 58 34l-1-101h50l1 261h-48c-2-10 0-23-3-31C134-8 116 4 84 4 32 4 16-41 15-95c0-56 19-97 73-99zm17 164c33 0 40-30 41-66 1-37-9-64-41-64s-38 30-39 65c0 43 13 65 39 65" id="bK"/><path fill="#333" d="M182-130c37 4 62 22 62 59C244 23 116-4 24 0v-248c84 5 203-23 205 63 0 31-19 50-47 55zM76-148c40-3 101 13 101-30 0-44-60-28-101-31v61zm0 110c48-3 116 14 116-37 0-48-69-32-116-35v72" id="bL"/><path fill="#333" d="M110-194c64 0 96 36 96 99 0 64-35 99-97 99-61 0-95-36-95-99 0-62 34-99 96-99zm-1 164c35 0 45-28 45-65 0-40-10-65-43-65-34 0-45 26-45 65 0 36 10 65 43 65" id="bM"/><path fill="#333" d="M135-194c87-1 58 113 63 194h-50c-7-57 23-157-34-157-59 0-34 97-39 157H25l-1-190h47c2 12-1 28 3 38 12-26 28-41 61-42" id="bN"/><path fill="#333" d="M123 10C108 53 80 86 19 72V37c35 8 53-11 59-39L3-190h52l48 148c12-52 28-100 44-148h51" id="bO"/><g id="w"><use transform="matrix(0.07407407407407408,0,0,0.07407407407407408,0,0)" xlink:href="#by"/><use transform="matrix(0.07407407407407408,0,0,0.07407407407407408,17.77777777777778,0)" xlink:href="#bz"/><use transform="matrix(0.07407407407407408,0,0,0.07407407407407408,34,0)" xlink:href="#bA"/><use transform="matrix(0.07407407407407408,0,0,0.07407407407407408,50.22222222222223,0)" xlink:href="#bB"/><use transform="matrix(0.07407407407407408,0,0,0.07407407407407408,65.03703703703704,0)" xlink:href="#bC"/><use transform="matrix(0.07407407407407408,0,0,0.07407407407407408,75.4074074074074,0)" xlink:href="#bD"/><use transform="matrix(0.07407407407407408,0,0,0.07407407407407408,90.22222222222223,0)" xlink:href="#bA"/><use transform="matrix(0.07407407407407408,0,0,0.07407407407407408,106.44444444444446,0)" xlink:href="#bA"/><use transform="matrix(0.07407407407407408,0,0,0.07407407407407408,122.66666666666669,0)" xlink:href="#bE"/><use transform="matrix(0.07407407407407408,0,0,0.07407407407407408,143.40740740740742,0)" xlink:href="#bF"/><use transform="matrix(0.07407407407407408,0,0,0.07407407407407408,159.62962962962965,0)" xlink:href="#bG"/><use transform="matrix(0.07407407407407408,0,0,0.07407407407407408,167.03703703703707,0)" xlink:href="#bB"/><use transform="matrix(0.07407407407407408,0,0,0.07407407407407408,181.85185185185188,0)" xlink:href="#bH"/><use transform="matrix(0.07407407407407408,0,0,0.07407407407407408,196.66666666666669,0)" xlink:href="#bI"/><use transform="matrix(0.07407407407407408,0,0,0.07407407407407408,205.4814814814815,0)" xlink:href="#bJ"/><use transform="matrix(0.07407407407407408,0,0,0.07407407407407408,212.8888888888889,0)" xlink:href="#bK"/><use transform="matrix(0.07407407407407408,0,0,0.07407407407407408,229.11111111111114,0)" xlink:href="#bL"/><use transform="matrix(0.07407407407407408,0,0,0.07407407407407408,248.29629629629633,0)" xlink:href="#bM"/><use transform="matrix(0.07407407407407408,0,0,0.07407407407407408,264.51851851851853,0)" xlink:href="#bz"/><use transform="matrix(0.07407407407407408,0,0,0.07407407407407408,280.74074074074076,0)" xlink:href="#bN"/><use transform="matrix(0.07407407407407408,0,0,0.07407407407407408,296.962962962963,0)" xlink:href="#bK"/><use transform="matrix(0.07407407407407408,0,0,0.07407407407407408,313.1851851851852,0)" xlink:href="#bD"/><use transform="matrix(0.07407407407407408,0,0,0.07407407407407408,328.00000000000006,0)" xlink:href="#bC"/><use transform="matrix(0.07407407407407408,0,0,0.07407407407407408,338.37037037037044,0)" xlink:href="#bO"/></g><path d="M16-82v-28h88v28H16" id="bP"/><path d="M185-189c-5-48-123-54-124 2 14 75 158 14 163 119 3 78-121 87-175 55-17-10-28-26-33-46l33-7c5 56 141 63 141-1 0-78-155-14-162-118-5-82 145-84 179-34 5 7 8 16 11 25" id="bQ"/><path d="M59-47c-2 24 18 29 38 22v24C64 9 27 4 27-40v-127H5v-23h24l9-43h21v43h35v23H59v120" id="bR"/><path d="M114-163C36-179 61-72 57 0H25l-1-190h30c1 12-1 29 2 39 6-27 23-49 58-41v29" id="bS"/><path d="M24-231v-30h32v30H24zM24 0v-190h32V0H24" id="bT"/><path d="M117-194c89-4 53 116 60 194h-32v-121c0-31-8-49-39-48C34-167 62-67 57 0H25l-1-190h30c1 10-1 24 2 32 11-22 29-35 61-36" id="bU"/><path d="M177-190C167-65 218 103 67 71c-23-6-38-20-44-43l32-5c15 47 100 32 89-28v-30C133-14 115 1 83 1 29 1 15-40 15-95c0-56 16-97 71-98 29-1 48 16 59 35 1-10 0-23 2-32h30zM94-22c36 0 50-32 50-73 0-42-14-75-50-75-39 0-46 34-46 75s6 73 46 73" id="bV"/><g id="x"><use transform="matrix(0.07407407407407408,0,0,0.07407407407407408,0,0)" xlink:href="#bP"/><use transform="matrix(0.07308654320987654,0,0,0.07308654320987654,8.814814814814817,0)" xlink:href="#bQ"/><use transform="matrix(0.07308654320987654,0,0,0.07308654320987654,26.355585185185184,0)" xlink:href="#bR"/><use transform="matrix(0.07308654320987654,0,0,0.07308654320987654,33.66423950617284,0)" xlink:href="#bS"/><use transform="matrix(0.07308654320987654,0,0,0.07308654320987654,42.36153814814815,0)" xlink:href="#bT"/><use transform="matrix(0.07308654320987654,0,0,0.07308654320987654,48.135375061728396,0)" xlink:href="#bU"/><use transform="matrix(0.07308654320987654,0,0,0.07308654320987654,62.7526837037037,0)" xlink:href="#bV"/></g><path d="M135-143c-3-34-86-38-87 0 15 53 115 12 119 90S17 21 10-45l28-5c4 36 97 45 98 0-10-56-113-15-118-90-4-57 82-63 122-42 12 7 21 19 24 35" id="bW"/><path d="M84 4C-5 8 30-112 23-190h32v120c0 31 7 50 39 49 72-2 45-101 50-169h31l1 190h-30c-1-10 1-25-2-33-11 22-28 36-60 37" id="bX"/><path d="M115-194c55 1 70 41 70 98S169 2 115 4C84 4 66-9 55-30l1 105H24l-1-265h31l2 30c10-21 28-34 59-34zm-8 174c40 0 45-34 45-75s-6-73-45-74c-42 0-51 32-51 76 0 43 10 73 51 73" id="bY"/><path d="M100-194c63 0 86 42 84 106H49c0 40 14 67 53 68 26 1 43-12 49-29l28 8c-11 28-37 45-77 45C44 4 14-33 15-96c1-61 26-98 85-98zm52 81c6-60-76-77-97-28-3 7-6 17-6 28h103" id="bZ"/><path d="M141-36C126-15 110 5 73 4 37 3 15-17 15-53c-1-64 63-63 125-63 3-35-9-54-41-54-24 1-41 7-42 31l-33-3c5-37 33-52 76-52 45 0 72 20 72 64v82c-1 20 7 32 28 27v20c-31 9-61-2-59-35zM48-53c0 20 12 33 32 33 41-3 63-29 60-74-43 2-92-5-92 41" id="ca"/><path d="M68-36c1 33-1 63-14 82H32c9-13 17-26 17-46H33v-36h35zM33-154v-36h35v36H33" id="cb"/><g id="y"><use transform="matrix(0.07407407407407408,0,0,0.07407407407407408,0,0)" xlink:href="#bW"/><use transform="matrix(0.07407407407407408,0,0,0.07407407407407408,13.333333333333336,0)" xlink:href="#bX"/><use transform="matrix(0.07407407407407408,0,0,0.07407407407407408,28.148148148148152,0)" xlink:href="#bY"/><use transform="matrix(0.07407407407407408,0,0,0.07407407407407408,42.96296296296297,0)" xlink:href="#bZ"/><use transform="matrix(0.07407407407407408,0,0,0.07407407407407408,57.777777777777786,0)" xlink:href="#bS"/><use transform="matrix(0.07407407407407408,0,0,0.07407407407407408,66.59259259259261,0)" xlink:href="#ca"/><use transform="matrix(0.07407407407407408,0,0,0.07407407407407408,81.40740740740742,0)" xlink:href="#bY"/><use transform="matrix(0.07407407407407408,0,0,0.07407407407407408,96.22222222222223,0)" xlink:href="#bY"/><use transform="matrix(0.07407407407407408,0,0,0.07407407407407408,111.03703703703704,0)" xlink:href="#cb"/></g><g id="z"><use transform="matrix(0.07407407407407408,0,0,0.07407407407407408,0,0)" xlink:href="#bP"/><use transform="matrix(0.07308654320987654,0,0,0.07308654320987654,8.814814814814817,0)" xlink:href="#bQ"/><use transform="matrix(0.07308654320987654,0,0,0.07308654320987654,26.355585185185184,0)" xlink:href="#bR"/><use transform="matrix(0.07308654320987654,0,0,0.07308654320987654,33.66423950617284,0)" xlink:href="#bS"/><use transform="matrix(0.07308654320987654,0,0,0.07308654320987654,42.36153814814815,0)" xlink:href="#bT"/><use transform="matrix(0.07308654320987654,0,0,0.07308654320987654,48.135375061728396,0)" xlink:href="#bU"/><use transform="matrix(0.07308654320987654,0,0,0.07308654320987654,62.7526837037037,0)" xlink:href="#bV"/></g><path d="M24 0v-261h32V0H24" id="cc"/><path d="M140-251c81 0 123 46 123 126C263-46 219 4 140 4 59 4 17-45 17-125s42-126 123-126zm0 227c63 0 89-41 89-101s-29-99-89-99c-61 0-89 39-89 99S79-25 140-24" id="cd"/><path d="M115-194c53 0 69 39 70 98 0 66-23 100-70 100C84 3 66-7 56-30L54 0H23l1-261h32v101c10-23 28-34 59-34zm-8 174c40 0 45-34 45-75 0-40-5-75-45-74-42 0-51 32-51 76 0 43 10 73 51 73" id="ce"/><path d="M24-231v-30h32v30H24zM-9 49c24 4 33-6 33-30v-209h32V24c2 40-23 58-65 49V49" id="cf"/><path d="M96-169c-40 0-48 33-48 73s9 75 48 75c24 0 41-14 43-38l32 2c-6 37-31 61-74 61-59 0-76-41-82-99-10-93 101-131 147-64 4 7 5 14 7 22l-32 3c-4-21-16-35-41-35" id="cg"/><path d="M33 0v-248h34V0H33" id="ch"/><path d="M85-194c31 0 48 13 60 33l-1-100h32l1 261h-30c-2-10 0-23-3-31C134-8 116 4 85 4 32 4 16-35 15-94c0-66 23-100 70-100zm9 24c-40 0-46 34-46 75 0 40 6 74 45 74 42 0 51-32 51-76 0-42-9-74-50-73" id="ci"/><g id="A"><use transform="matrix(0.07407407407407408,0,0,0.07407407407407408,0,0)" xlink:href="#bT"/><use transform="matrix(0.07407407407407408,0,0,0.07407407407407408,5.851851851851853,0)" xlink:href="#bU"/><use transform="matrix(0.07407407407407408,0,0,0.07407407407407408,20.666666666666668,0)" xlink:href="#bR"/><use transform="matrix(0.07407407407407408,0,0,0.07407407407407408,28.074074074074076,0)" xlink:href="#bZ"/><use transform="matrix(0.07407407407407408,0,0,0.07407407407407408,42.8888888888889,0)" xlink:href="#bS"/><use transform="matrix(0.07407407407407408,0,0,0.07407407407407408,51.70370370370372,0)" xlink:href="#bU"/><use transform="matrix(0.07407407407407408,0,0,0.07407407407407408,66.51851851851853,0)" xlink:href="#ca"/><use transform="matrix(0.07407407407407408,0,0,0.07407407407407408,81.33333333333334,0)" xlink:href="#cc"/><use transform="matrix(0.07407407407407408,0,0,0.07407407407407408,87.18518518518519,0)" xlink:href="#cd"/><use transform="matrix(0.07407407407407408,0,0,0.07407407407407408,107.92592592592594,0)" xlink:href="#ce"/><use transform="matrix(0.07407407407407408,0,0,0.07407407407407408,122.74074074074076,0)" xlink:href="#cf"/><use transform="matrix(0.07407407407407408,0,0,0.07407407407407408,128.5925925925926,0)" xlink:href="#bZ"/><use transform="matrix(0.07407407407407408,0,0,0.07407407407407408,143.40740740740742,0)" xlink:href="#cg"/><use transform="matrix(0.07407407407407408,0,0,0.07407407407407408,156.74074074074076,0)" xlink:href="#bR"/><use transform="matrix(0.07407407407407408,0,0,0.07407407407407408,164.14814814814818,0)" xlink:href="#ch"/><use transform="matrix(0.07407407407407408,0,0,0.07407407407407408,171.5555555555556,0)" xlink:href="#ci"/><use transform="matrix(0.07407407407407408,0,0,0.07407407407407408,186.37037037037038,0)" xlink:href="#cb"/></g><path fill="#5dd8ff" d="M232-93c-1 65-40 97-104 97C67 4 28-28 28-90v-158h33c8 89-33 224 67 224 102 0 64-133 71-224h33v155" id="cj"/><path fill="#5dd8ff" d="M135-143c-3-34-86-38-87 0 15 53 115 12 119 90S17 21 10-45l28-5c4 36 97 45 98 0-10-56-113-15-118-90-4-57 82-63 122-42 12 7 21 19 24 35" id="ck"/><g id="B"><use transform="matrix(0.05185185185185186,0,0,0.05185185185185186,0,0)" xlink:href="#cj"/><use transform="matrix(0.05185185185185186,0,0,0.05185185185185186,13.42962962962963,0)" xlink:href="#ck"/><use transform="matrix(0.05185185185185186,0,0,0.05185185185185186,22.762962962962966,0)" xlink:href="#be"/><use transform="matrix(0.05185185185185186,0,0,0.05185185185185186,33.13333333333334,0)" xlink:href="#bd"/></g><path fill="#fc5fa3" d="M128 0H69L1-190h53L99-40l48-150h52" id="cl"/><path fill="#fc5fa3" d="M133-34C117-15 103 5 69 4 32 3 11-16 11-54c-1-60 55-63 116-61 1-26-3-47-28-47-18 1-26 9-28 27l-52-2c7-38 36-58 82-57s74 22 75 68l1 82c-1 14 12 18 25 15v27c-30 8-71 5-69-32zm-48 3c29 0 43-24 42-57-32 0-66-3-65 30 0 17 8 27 23 27" id="cm"/><path fill="#fc5fa3" d="M135-150c-39-12-60 13-60 57V0H25l-1-190h47c2 13-1 29 3 40 6-28 27-53 61-41v41" id="cn"/><g id="C"><use transform="matrix(0.05185185185185186,0,0,0.05185185185185186,0,0)" xlink:href="#cl"/><use transform="matrix(0.05185185185185186,0,0,0.05185185185185186,10.370370370370372,0)" xlink:href="#cm"/><use transform="matrix(0.05185185185185186,0,0,0.05185185185185186,20.740740740740744,0)" xlink:href="#cn"/></g><path fill="#41a1c0" d="M190 0L58-211 59 0H30v-248h39L202-35l-2-213h31V0h-41" id="co"/><path fill="#41a1c0" d="M115-194c53 0 69 39 70 98 0 66-23 100-70 100C84 3 66-7 56-30L54 0H23l1-261h32v101c10-23 28-34 59-34zm-8 174c40 0 45-34 45-75 0-40-5-75-45-74-42 0-51 32-51 76 0 43 10 73 51 73" id="cp"/><g id="D"><use transform="matrix(0.05185185185185186,0,0,0.05185185185185186,0,0)" xlink:href="#aV"/><use transform="matrix(0.05185185185185186,0,0,0.05185185185185186,10.370370370370372,0)" xlink:href="#aX"/><use transform="matrix(0.05185185185185186,0,0,0.05185185185185186,20.740740740740744,0)" xlink:href="#aW"/><use transform="matrix(0.05185185185185186,0,0,0.05185185185185186,31.111111111111114,0)" xlink:href="#aT"/><use transform="matrix(0.05185185185185186,0,0,0.05185185185185186,41.48148148148149,0)" xlink:href="#aJ"/><use transform="matrix(0.05185185185185186,0,0,0.05185185185185186,51.85185185185186,0)" xlink:href="#co"/><use transform="matrix(0.05185185185185186,0,0,0.05185185185185186,65.28148148148149,0)" xlink:href="#bq"/><use transform="matrix(0.05185185185185186,0,0,0.05185185185185186,75.65185185185186,0)" xlink:href="#aU"/><use transform="matrix(0.05185185185185186,0,0,0.05185185185185186,91.15555555555557,0)" xlink:href="#cp"/><use transform="matrix(0.05185185185185186,0,0,0.05185185185185186,101.52592592592593,0)" xlink:href="#aJ"/><use transform="matrix(0.05185185185185186,0,0,0.05185185185185186,111.89629629629631,0)" xlink:href="#aD"/><use transform="matrix(0.05185185185185186,0,0,0.05185185185185186,118.06666666666665,0)" xlink:href="#aK"/><use transform="matrix(0.05185185185185186,0,0,0.05185185185185186,123.25185185185187,0)" xlink:href="#aL"/><use transform="matrix(0.05185185185185186,0,0,0.05185185185185186,135.6962962962963,0)" xlink:href="#aM"/><use transform="matrix(0.05185185185185186,0,0,0.05185185185185186,140.8814814814815,0)" xlink:href="#aN"/><use transform="matrix(0.05185185185185186,0,0,0.05185185185185186,147.05185185185186,0)" xlink:href="#aO"/><use transform="matrix(0.05185185185185186,0,0,0.05185185185185186,151.14814814814815,0)" xlink:href="#aP"/><use transform="matrix(0.05185185185185186,0,0,0.05185185185185186,161.51851851851853,0)" xlink:href="#aQ"/><use transform="matrix(0.05185185185185186,0,0,0.05185185185185186,171.8888888888889,0)" xlink:href="#aR"/></g><g id="E"><use transform="matrix(0.05185185185185186,0,0,0.05185185185185186,0,0)" xlink:href="#cl"/><use transform="matrix(0.05185185185185186,0,0,0.05185185185185186,10.370370370370372,0)" xlink:href="#cm"/><use transform="matrix(0.05185185185185186,0,0,0.05185185185185186,20.740740740740744,0)" xlink:href="#cn"/></g><path fill="#41a1c0" d="M179-190L93 31C79 59 56 82 12 73V49c39 6 53-20 64-50L1-190h34L92-34l54-156h33" id="cq"/><path fill="#41a1c0" d="M240 0l2-218c-23 76-54 145-80 218h-23L58-218 59 0H30v-248h44l77 211c21-75 51-140 76-211h43V0h-30" id="cr"/><path fill="#fff" fill-opacity=".85" d="M18-100v-36l175-74v27L42-118l151 64v27" id="cs"/><path fill="#9ef1dd" d="M185-189c-5-48-123-54-124 2 14 75 158 14 163 119 3 78-121 87-175 55-17-10-28-26-33-46l33-7c5 56 141 63 141-1 0-78-155-14-162-118-5-82 145-84 179-34 5 7 8 16 11 25" id="ct"/><path fill="#9ef1dd" d="M106-169C34-169 62-67 57 0H25v-261h32l-1 103c12-21 28-36 61-36 89 0 53 116 60 194h-32v-121c2-32-8-49-39-48" id="cu"/><path fill="#9ef1dd" d="M100-194c62-1 85 37 85 99 1 63-27 99-86 99S16-35 15-95c0-66 28-99 85-99zM99-20c44 1 53-31 53-75 0-43-8-75-51-75s-53 32-53 75 10 74 51 75" id="cv"/><path fill="#9ef1dd" d="M206 0h-36l-40-164L89 0H53L-1-190h32L70-26l43-164h34l41 164 42-164h31" id="cw"/><path fill="#fff" fill-opacity=".85" d="M18-27v-27l151-64-151-65v-27l175 74v36" id="cx"/><g id="F"><use transform="matrix(0.05185185185185186,0,0,0.05185185185185186,0,0)" xlink:href="#aU"/><use transform="matrix(0.05185185185185186,0,0,0.05185185185185186,15.503703703703705,0)" xlink:href="#cq"/><use transform="matrix(0.05185185185185186,0,0,0.05185185185185186,24.83703703703704,0)" xlink:href="#cr"/><use transform="matrix(0.05185185185185186,0,0,0.05185185185185186,40.34074074074074,0)" xlink:href="#aW"/><use transform="matrix(0.05185185185185186,0,0,0.05185185185185186,50.711111111111116,0)" xlink:href="#aY"/><use transform="matrix(0.05185185185185186,0,0,0.05185185185185186,60.04444444444445,0)" xlink:href="#aC"/><use transform="matrix(0.05185185185185186,0,0,0.05185185185185186,64.14074074074075,0)" xlink:href="#aJ"/><use transform="matrix(0.05185185185185186,0,0,0.05185185185185186,74.51111111111112,0)" xlink:href="#aE"/><use transform="matrix(0.05185185185185186,0,0,0.05185185185185186,83.84444444444445,0)" xlink:href="#aK"/><use transform="matrix(0.05185185185185186,0,0,0.05185185185185186,89.02962962962964,0)" xlink:href="#aL"/><use transform="matrix(0.05185185185185186,0,0,0.05185185185185186,101.47407407407408,0)" xlink:href="#bw"/><use transform="matrix(0.05185185185185186,0,0,0.05185185185185186,111.84444444444446,0)" xlink:href="#aM"/><use transform="matrix(0.05185185185185186,0,0,0.05185185185185186,117.02962962962964,0)" xlink:href="#cs"/><use transform="matrix(0.05185185185185186,0,0,0.05185185185185186,127.91851851851854,0)" xlink:href="#ct"/><use transform="matrix(0.05185185185185186,0,0,0.05185185185185186,140.36296296296297,0)" xlink:href="#cu"/><use transform="matrix(0.05185185185185186,0,0,0.05185185185185186,150.73333333333335,0)" xlink:href="#cv"/><use transform="matrix(0.05185185185185186,0,0,0.05185185185185186,161.10370370370373,0)" xlink:href="#cw"/><use transform="matrix(0.05185185185185186,0,0,0.05185185185185186,174.53333333333336,0)" xlink:href="#aR"/><use transform="matrix(0.05185185185185186,0,0,0.05185185185185186,184.90370370370374,0)" xlink:href="#cx"/><use transform="matrix(0.05185185185185186,0,0,0.05185185185185186,195.79259259259263,0)" xlink:href="#aR"/></g><path fill="#5dd8ff" d="M137 0h-34L2-248h35l83 218 83-218h36" id="cy"/><path fill="#5dd8ff" d="M-5 72V49h209v23H-5" id="cz"/><path fill="#5dd8ff" d="M30 0v-248h187v28H63v79h144v27H63v87h162V0H30" id="cA"/><g id="G"><use transform="matrix(0.05185185185185186,0,0,0.05185185185185186,0,0)" xlink:href="#cy"/><use transform="matrix(0.05185185185185186,0,0,0.05185185185185186,12.081481481481484,0)" xlink:href="#as"/><use transform="matrix(0.05185185185185186,0,0,0.05185185185185186,16.17777777777778,0)" xlink:href="#bk"/><use transform="matrix(0.05185185185185186,0,0,0.05185185185185186,26.54814814814815,0)" xlink:href="#be"/><use transform="matrix(0.05185185185185186,0,0,0.05185185185185186,36.918518518518525,0)" xlink:href="#aq"/><use transform="matrix(0.05185185185185186,0,0,0.05185185185185186,47.2888888888889,0)" xlink:href="#cz"/><use transform="matrix(0.05185185185185186,0,0,0.05185185185185186,57.65925925925928,0)" xlink:href="#cA"/><use transform="matrix(0.05185185185185186,0,0,0.05185185185185186,70.10370370370372,0)" xlink:href="#bh"/><use transform="matrix(0.05185185185185186,0,0,0.05185185185185186,74.20000000000002,0)" xlink:href="#be"/><use transform="matrix(0.05185185185185186,0,0,0.05185185185185186,84.57037037037038,0)" xlink:href="#ar"/><use transform="matrix(0.05185185185185186,0,0,0.05185185185185186,100.07407407407409,0)" xlink:href="#be"/><use transform="matrix(0.05185185185185186,0,0,0.05185185185185186,110.44444444444446,0)" xlink:href="#at"/><use transform="matrix(0.05185185185185186,0,0,0.05185185185185186,120.81481481481482,0)" xlink:href="#bg"/></g><path fill="#9ef1dd" d="M24-231v-30h32v30H24zM24 0v-190h32V0H24" id="cB"/><path fill="#9ef1dd" d="M85-194c31 0 48 13 60 33l-1-100h32l1 261h-30c-2-10 0-23-3-31C134-8 116 4 85 4 32 4 16-35 15-94c0-66 23-100 70-100zm9 24c-40 0-46 34-46 75 0 40 6 74 45 74 42 0 51-32 51-76 0-42-9-74-50-73" id="cC"/><path fill="#9ef1dd" d="M-5 72V49h209v23H-5" id="cD"/><path fill="#9ef1dd" d="M137 0h-34L2-248h35l83 218 83-218h36" id="cE"/><path fill="#9ef1dd" d="M100-194c63 0 86 42 84 106H49c0 40 14 67 53 68 26 1 43-12 49-29l28 8c-11 28-37 45-77 45C44 4 14-33 15-96c1-61 26-98 85-98zm52 81c6-60-76-77-97-28-3 7-6 17-6 28h103" id="cF"/><path fill="#9ef1dd" d="M30 0v-248h187v28H63v79h144v27H63v87h162V0H30" id="cG"/><path fill="#9ef1dd" d="M24 0v-261h32V0H24" id="cH"/><path fill="#9ef1dd" d="M210-169c-67 3-38 105-44 169h-31v-121c0-29-5-50-35-48C34-165 62-65 56 0H25l-1-190h30c1 10-1 24 2 32 10-44 99-50 107 0 11-21 27-35 58-36 85-2 47 119 55 194h-31v-121c0-29-5-49-35-48" id="cI"/><path fill="#9ef1dd" d="M117-194c89-4 53 116 60 194h-32v-121c0-31-8-49-39-48C34-167 62-67 57 0H25l-1-190h30c1 10-1 24 2 32 11-22 29-35 61-36" id="cJ"/><path fill="#9ef1dd" d="M59-47c-2 24 18 29 38 22v24C64 9 27 4 27-40v-127H5v-23h24l9-43h21v43h35v23H59v120" id="cK"/><g id="H"><use transform="matrix(0.05185185185185186,0,0,0.05185185185185186,0,0)" xlink:href="#aC"/><use transform="matrix(0.05185185185185186,0,0,0.05185185185185186,4.0962962962962965,0)" xlink:href="#aI"/><use transform="matrix(0.05185185185185186,0,0,0.05185185185185186,14.466666666666669,0)" xlink:href="#aK"/><use transform="matrix(0.05185185185185186,0,0,0.05185185185185186,19.651851851851855,0)" xlink:href="#cB"/><use transform="matrix(0.05185185185185186,0,0,0.05185185185185186,23.748148148148154,0)" xlink:href="#cC"/><use transform="matrix(0.05185185185185186,0,0,0.05185185185185186,34.11851851851853,0)" xlink:href="#cD"/><use transform="matrix(0.05185185185185186,0,0,0.05185185185185186,44.4888888888889,0)" xlink:href="#cE"/><use transform="matrix(0.05185185185185186,0,0,0.05185185185185186,56.57037037037039,0)" xlink:href="#cB"/><use transform="matrix(0.05185185185185186,0,0,0.05185185185185186,60.66666666666667,0)" xlink:href="#cC"/><use transform="matrix(0.05185185185185186,0,0,0.05185185185185186,71.03703703703705,0)" xlink:href="#cF"/><use transform="matrix(0.05185185185185186,0,0,0.05185185185185186,81.40740740740742,0)" xlink:href="#cv"/><use transform="matrix(0.05185185185185186,0,0,0.05185185185185186,91.77777777777779,0)" xlink:href="#cD"/><use transform="matrix(0.05185185185185186,0,0,0.05185185185185186,102.14814814814815,0)" xlink:href="#cG"/><use transform="matrix(0.05185185185185186,0,0,0.05185185185185186,114.59259259259261,0)" xlink:href="#cH"/><use transform="matrix(0.05185185185185186,0,0,0.05185185185185186,118.6888888888889,0)" xlink:href="#cF"/><use transform="matrix(0.05185185185185186,0,0,0.05185185185185186,129.05925925925928,0)" xlink:href="#cI"/><use transform="matrix(0.05185185185185186,0,0,0.05185185185185186,144.56296296296298,0)" xlink:href="#cF"/><use transform="matrix(0.05185185185185186,0,0,0.05185185185185186,154.93333333333337,0)" xlink:href="#cJ"/><use transform="matrix(0.05185185185185186,0,0,0.05185185185185186,165.30370370370375,0)" xlink:href="#cK"/></g><path fill="#5dd8ff" d="M137-103V0h-34v-103L8-248h37l75 118 75-118h37" id="cL"/><path fill="#5dd8ff" d="M115-194c53 0 69 39 70 98 0 66-23 100-70 100C84 3 66-7 56-30L54 0H23l1-261h32v101c10-23 28-34 59-34zm-8 174c40 0 45-34 45-75 0-40-5-75-45-74-42 0-51 32-51 76 0 43 10 73 51 73" id="cM"/><path fill="#5dd8ff" d="M141-36C126-15 110 5 73 4 37 3 15-17 15-53c-1-64 63-63 125-63 3-35-9-54-41-54-24 1-41 7-42 31l-33-3c5-37 33-52 76-52 45 0 72 20 72 64v82c-1 20 7 32 28 27v20c-31 9-61-2-59-35zM48-53c0 20 12 33 32 33 41-3 63-29 60-74-43 2-92-5-92 41" id="cN"/><path fill="#5dd8ff" d="M233-177c-1 41-23 64-60 70L243 0h-38l-65-103H63V0H30v-248c88 3 205-21 203 71zM63-129c60-2 137 13 137-47 0-61-80-42-137-45v92" id="cO"/><g id="J"><use transform="matrix(0.05185185185185186,0,0,0.05185185185185186,0,0)" xlink:href="#cL"/><use transform="matrix(0.05185185185185186,0,0,0.05185185185185186,10.733333333333334,0)" xlink:href="#aq"/><use transform="matrix(0.05185185185185186,0,0,0.05185185185185186,21.103703703703708,0)" xlink:href="#an"/><use transform="matrix(0.05185185185185186,0,0,0.05185185185185186,31.474074074074082,0)" xlink:href="#bg"/><use transform="matrix(0.05185185185185186,0,0,0.05185185185185186,36.659259259259265,0)" xlink:href="#an"/><use transform="matrix(0.05185185185185186,0,0,0.05185185185185186,47.02962962962964,0)" xlink:href="#cM"/><use transform="matrix(0.05185185185185186,0,0,0.05185185185185186,57.40000000000002,0)" xlink:href="#be"/><use transform="matrix(0.05185185185185186,0,0,0.05185185185185186,67.77037037037039,0)" xlink:href="#cz"/><use transform="matrix(0.05185185185185186,0,0,0.05185185185185186,78.14074074074075,0)" xlink:href="#av"/><use transform="matrix(0.05185185185185186,0,0,0.05185185185185186,90.5851851851852,0)" xlink:href="#be"/><use transform="matrix(0.05185185185185186,0,0,0.05185185185185186,100.95555555555556,0)" xlink:href="#cN"/><use transform="matrix(0.05185185185185186,0,0,0.05185185185185186,111.32592592592594,0)" xlink:href="#bd"/><use transform="matrix(0.05185185185185186,0,0,0.05185185185185186,117.49629629629628,0)" xlink:href="#bf"/><use transform="matrix(0.05185185185185186,0,0,0.05185185185185186,126.82962962962962,0)" xlink:href="#aw"/><use transform="matrix(0.05185185185185186,0,0,0.05185185185185186,137.2,0)" xlink:href="#cz"/><use transform="matrix(0.05185185185185186,0,0,0.05185185185185186,147.57037037037037,0)" xlink:href="#cO"/><use transform="matrix(0.05185185185185186,0,0,0.05185185185185186,161,0)" xlink:href="#be"/><use transform="matrix(0.05185185185185186,0,0,0.05185185185185186,171.37037037037038,0)" xlink:href="#ck"/><use transform="matrix(0.05185185185185186,0,0,0.05185185185185186,180.70370370370372,0)" xlink:href="#ao"/><use transform="matrix(0.05185185185185186,0,0,0.05185185185185186,191.0740740740741,0)" xlink:href="#aq"/><use transform="matrix(0.05185185185185186,0,0,0.05185185185185186,201.44444444444449,0)" xlink:href="#at"/><use transform="matrix(0.05185185185185186,0,0,0.05185185185185186,211.81481481481487,0)" xlink:href="#ck"/><use transform="matrix(0.05185185185185186,0,0,0.05185185185185186,221.1481481481482,0)" xlink:href="#be"/></g><g id="K"><use transform="matrix(0.05185185185185186,0,0,0.05185185185185186,0,0)" xlink:href="#aC"/><use transform="matrix(0.05185185185185186,0,0,0.05185185185185186,4.0962962962962965,0)" xlink:href="#aF"/><use transform="matrix(0.05185185185185186,0,0,0.05185185185185186,9.281481481481482,0)" xlink:href="#aJ"/><use transform="matrix(0.05185185185185186,0,0,0.05185185185185186,19.651851851851852,0)" xlink:href="#aU"/><use transform="matrix(0.05185185185185186,0,0,0.05185185185185186,35.15555555555556,0)" xlink:href="#aE"/><use transform="matrix(0.05185185185185186,0,0,0.05185185185185186,44.488888888888894,0)" xlink:href="#aK"/></g><g id="L"><use transform="matrix(0.05185185185185186,0,0,0.05185185185185186,0,0)" xlink:href="#bb"/><use transform="matrix(0.05185185185185186,0,0,0.05185185185185186,5.185185185185186,0)" xlink:href="#cE"/><use transform="matrix(0.05185185185185186,0,0,0.05185185185185186,17.26666666666667,0)" xlink:href="#cB"/><use transform="matrix(0.05185185185185186,0,0,0.05185185185185186,21.362962962962968,0)" xlink:href="#cC"/><use transform="matrix(0.05185185185185186,0,0,0.05185185185185186,31.73333333333334,0)" xlink:href="#cF"/><use transform="matrix(0.05185185185185186,0,0,0.05185185185185186,42.103703703703715,0)" xlink:href="#cv"/><use transform="matrix(0.05185185185185186,0,0,0.05185185185185186,52.47407407407409,0)" xlink:href="#cD"/><use transform="matrix(0.05185185185185186,0,0,0.05185185185185186,62.84444444444446,0)" xlink:href="#cG"/><use transform="matrix(0.05185185185185186,0,0,0.05185185185185186,75.2888888888889,0)" xlink:href="#cH"/><use transform="matrix(0.05185185185185186,0,0,0.05185185185185186,79.38518518518521,0)" xlink:href="#cF"/><use transform="matrix(0.05185185185185186,0,0,0.05185185185185186,89.75555555555557,0)" xlink:href="#cI"/><use transform="matrix(0.05185185185185186,0,0,0.05185185185185186,105.25925925925928,0)" xlink:href="#cF"/><use transform="matrix(0.05185185185185186,0,0,0.05185185185185186,115.62962962962965,0)" xlink:href="#cJ"/><use transform="matrix(0.05185185185185186,0,0,0.05185185185185186,126.00000000000001,0)" xlink:href="#cK"/><use transform="matrix(0.05185185185185186,0,0,0.05185185185185186,131.1851851851852,0)" xlink:href="#bc"/></g><g id="M"><use transform="matrix(0.05185185185185186,0,0,0.05185185185185186,0,0)" xlink:href="#as"/><use transform="matrix(0.05185185185185186,0,0,0.05185185185185186,4.0962962962962965,0)" xlink:href="#bk"/><use transform="matrix(0.05185185185185186,0,0,0.05185185185185186,14.466666666666669,0)" xlink:href="#cz"/><use transform="matrix(0.05185185185185186,0,0,0.05185185185185186,24.837037037037042,0)" xlink:href="#cy"/><use transform="matrix(0.05185185185185186,0,0,0.05185185185185186,36.918518518518525,0)" xlink:href="#as"/><use transform="matrix(0.05185185185185186,0,0,0.05185185185185186,41.01481481481482,0)" xlink:href="#bk"/><use transform="matrix(0.05185185185185186,0,0,0.05185185185185186,51.38518518518519,0)" xlink:href="#be"/><use transform="matrix(0.05185185185185186,0,0,0.05185185185185186,61.75555555555556,0)" xlink:href="#aq"/><use transform="matrix(0.05185185185185186,0,0,0.05185185185185186,72.12592592592594,0)" xlink:href="#cz"/><use transform="matrix(0.05185185185185186,0,0,0.05185185185185186,82.49629629629631,0)" xlink:href="#cA"/><use transform="matrix(0.05185185185185186,0,0,0.05185185185185186,94.94074074074075,0)" xlink:href="#bh"/><use transform="matrix(0.05185185185185186,0,0,0.05185185185185186,99.03703703703705,0)" xlink:href="#be"/><use transform="matrix(0.05185185185185186,0,0,0.05185185185185186,109.40740740740742,0)" xlink:href="#ar"/><use transform="matrix(0.05185185185185186,0,0,0.05185185185185186,124.91111111111113,0)" xlink:href="#be"/><use transform="matrix(0.05185185185185186,0,0,0.05185185185185186,135.2814814814815,0)" xlink:href="#at"/><use transform="matrix(0.05185185185185186,0,0,0.05185185185185186,145.6518518518519,0)" xlink:href="#bg"/></g><path fill="#41a1c0" d="M143 0L79-87 56-68V0H24v-261h32v163l83-92h37l-77 82L181 0h-38" id="cP"/><g id="N"><use transform="matrix(0.05185185185185186,0,0,0.05185185185185186,0,0)" xlink:href="#cP"/><use transform="matrix(0.05185185185185186,0,0,0.05185185185185186,9.333333333333334,0)" xlink:href="#aC"/><use transform="matrix(0.05185185185185186,0,0,0.05185185185185186,13.42962962962963,0)" xlink:href="#aT"/><use transform="matrix(0.05185185185185186,0,0,0.05185185185185186,23.800000000000004,0)" xlink:href="#aI"/><use transform="matrix(0.05185185185185186,0,0,0.05185185185185186,34.17037037037038,0)" xlink:href="#aK"/><use transform="matrix(0.05185185185185186,0,0,0.05185185185185186,39.35555555555556,0)" xlink:href="#aL"/><use transform="matrix(0.05185185185185186,0,0,0.05185185185185186,51.80000000000001,0)" xlink:href="#aM"/><use transform="matrix(0.05185185185185186,0,0,0.05185185185185186,56.985185185185195,0)" xlink:href="#aN"/><use transform="matrix(0.05185185185185186,0,0,0.05185185185185186,63.155555555555566,0)" xlink:href="#aO"/><use transform="matrix(0.05185185185185186,0,0,0.05185185185185186,67.25185185185187,0)" xlink:href="#aP"/><use transform="matrix(0.05185185185185186,0,0,0.05185185185185186,77.62222222222223,0)" xlink:href="#aQ"/></g><path fill="#41a1c0" d="M33 0v-248h34V0H33" id="cQ"/><g id="O"><use transform="matrix(0.05185185185185186,0,0,0.05185185185185186,0,0)" xlink:href="#aY"/><use transform="matrix(0.05185185185185186,0,0,0.05185185185185186,9.333333333333334,0)" xlink:href="#aC"/><use transform="matrix(0.05185185185185186,0,0,0.05185185185185186,13.42962962962963,0)" xlink:href="#aI"/><use transform="matrix(0.05185185185185186,0,0,0.05185185185185186,23.800000000000004,0)" xlink:href="#aJ"/><use transform="matrix(0.05185185185185186,0,0,0.05185185185185186,34.17037037037038,0)" xlink:href="#aW"/><use transform="matrix(0.05185185185185186,0,0,0.05185185185185186,44.54074074074075,0)" xlink:href="#cQ"/><use transform="matrix(0.05185185185185186,0,0,0.05185185185185186,49.725925925925935,0)" xlink:href="#aI"/><use transform="matrix(0.05185185185185186,0,0,0.05185185185185186,60.096296296296316,0)" xlink:href="#aK"/><use transform="matrix(0.05185185185185186,0,0,0.05185185185185186,65.28148148148149,0)" xlink:href="#aL"/><use transform="matrix(0.05185185185185186,0,0,0.05185185185185186,77.72592592592594,0)" xlink:href="#aM"/><use transform="matrix(0.05185185185185186,0,0,0.05185185185185186,82.91111111111113,0)" xlink:href="#aN"/><use transform="matrix(0.05185185185185186,0,0,0.05185185185185186,89.08148148148149,0)" xlink:href="#aO"/><use transform="matrix(0.05185185185185186,0,0,0.05185185185185186,93.17777777777779,0)" xlink:href="#aP"/><use transform="matrix(0.05185185185185186,0,0,0.05185185185185186,103.54814814814816,0)" xlink:href="#aQ"/></g><g id="P"><use transform="matrix(0.05185185185185186,0,0,0.05185185185185186,0,0)" xlink:href="#bl"/><use transform="matrix(0.05185185185185186,0,0,0.05185185185185186,15.503703703703705,0)" xlink:href="#aq"/><use transform="matrix(0.05185185185185186,0,0,0.05185185185185186,25.874074074074077,0)" xlink:href="#bm"/><use transform="matrix(0.05185185185185186,0,0,0.05185185185185186,35.20740740740741,0)" xlink:href="#as"/><use transform="matrix(0.05185185185185186,0,0,0.05185185185185186,39.303703703703704,0)" xlink:href="#be"/><use transform="matrix(0.05185185185185186,0,0,0.05185185185185186,49.67407407407408,0)" xlink:href="#ck"/><use transform="matrix(0.05185185185185186,0,0,0.05185185185185186,59.00740740740741,0)" xlink:href="#cO"/><use transform="matrix(0.05185185185185186,0,0,0.05185185185185186,72.43703703703704,0)" xlink:href="#be"/><use transform="matrix(0.05185185185185186,0,0,0.05185185185185186,82.80740740740741,0)" xlink:href="#ck"/><use transform="matrix(0.05185185185185186,0,0,0.05185185185185186,92.14074074074074,0)" xlink:href="#ao"/><use transform="matrix(0.05185185185185186,0,0,0.05185185185185186,102.5111111111111,0)" xlink:href="#aq"/><use transform="matrix(0.05185185185185186,0,0,0.05185185185185186,112.88148148148147,0)" xlink:href="#at"/><use transform="matrix(0.05185185185185186,0,0,0.05185185185185186,123.25185185185184,0)" xlink:href="#ck"/><use transform="matrix(0.05185185185185186,0,0,0.05185185185185186,132.58518518518517,0)" xlink:href="#be"/></g><g id="Q"><use transform="matrix(0.05185185185185186,0,0,0.05185185185185186,0,0)" xlink:href="#aD"/><use transform="matrix(0.05185185185185186,0,0,0.05185185185185186,6.170370370370371,0)" xlink:href="#aJ"/><use transform="matrix(0.05185185185185186,0,0,0.05185185185185186,16.540740740740745,0)" xlink:href="#aE"/><use transform="matrix(0.05185185185185186,0,0,0.05185185185185186,25.87407407407408,0)" xlink:href="#bq"/><use transform="matrix(0.05185185185185186,0,0,0.05185185185185186,36.244444444444454,0)" xlink:href="#bn"/><use transform="matrix(0.05185185185185186,0,0,0.05185185185185186,40.34074074074075,0)" xlink:href="#aF"/><use transform="matrix(0.05185185185185186,0,0,0.05185185185185186,45.52592592592593,0)" xlink:href="#aE"/><use transform="matrix(0.05185185185185186,0,0,0.05185185185185186,54.85925925925927,0)" xlink:href="#aK"/></g><g id="R"><use transform="matrix(0.05185185185185186,0,0,0.05185185185185186,0,0)" xlink:href="#bb"/><use transform="matrix(0.05185185185185186,0,0,0.05185185185185186,5.185185185185186,0)" xlink:href="#ct"/><use transform="matrix(0.05185185185185186,0,0,0.05185185185185186,17.629629629629633,0)" xlink:href="#cu"/><use transform="matrix(0.05185185185185186,0,0,0.05185185185185186,28.000000000000007,0)" xlink:href="#cv"/><use transform="matrix(0.05185185185185186,0,0,0.05185185185185186,38.37037037037038,0)" xlink:href="#cw"/><use transform="matrix(0.05185185185185186,0,0,0.05185185185185186,51.80000000000001,0)" xlink:href="#bc"/></g><g id="S"><use transform="matrix(0.05185185185185186,0,0,0.05185185185185186,0,0)" xlink:href="#bd"/><use transform="matrix(0.05185185185185186,0,0,0.05185185185185186,6.170370370370371,0)" xlink:href="#be"/><use transform="matrix(0.05185185185185186,0,0,0.05185185185185186,16.540740740740745,0)" xlink:href="#bf"/><use transform="matrix(0.05185185185185186,0,0,0.05185185185185186,25.87407407407408,0)" xlink:href="#be"/><use transform="matrix(0.05185185185185186,0,0,0.05185185185185186,36.244444444444454,0)" xlink:href="#at"/><use transform="matrix(0.05185185185185186,0,0,0.05185185185185186,46.61481481481483,0)" xlink:href="#bg"/><use transform="matrix(0.05185185185185186,0,0,0.05185185185185186,51.80000000000001,0)" xlink:href="#bh"/><use transform="matrix(0.05185185185185186,0,0,0.05185185185185186,55.8962962962963,0)" xlink:href="#bi"/><use transform="matrix(0.05185185185185186,0,0,0.05185185185185186,65.22962962962964,0)" xlink:href="#bj"/><use transform="matrix(0.05185185185185186,0,0,0.05185185185185186,77.67407407407408,0)" xlink:href="#bk"/><use transform="matrix(0.05185185185185186,0,0,0.05185185185185186,88.04444444444445,0)" xlink:href="#bk"/><use transform="matrix(0.05185185185185186,0,0,0.05185185185185186,98.41481481481482,0)" xlink:href="#be"/><use transform="matrix(0.05185185185185186,0,0,0.05185185185185186,108.78518518518517,0)" xlink:href="#bk"/><use transform="matrix(0.05185185185185186,0,0,0.05185185185185186,119.15555555555555,0)" xlink:href="#cO"/><use transform="matrix(0.05185185185185186,0,0,0.05185185185185186,132.5851851851852,0)" xlink:href="#be"/><use transform="matrix(0.05185185185185186,0,0,0.05185185185185186,142.95555555555558,0)" xlink:href="#ck"/><use transform="matrix(0.05185185185185186,0,0,0.05185185185185186,152.28888888888892,0)" xlink:href="#ao"/><use transform="matrix(0.05185185185185186,0,0,0.05185185185185186,162.6592592592593,0)" xlink:href="#aq"/><use transform="matrix(0.05185185185185186,0,0,0.05185185185185186,173.02962962962968,0)" xlink:href="#at"/><use transform="matrix(0.05185185185185186,0,0,0.05185185185185186,183.40000000000006,0)" xlink:href="#ck"/><use transform="matrix(0.05185185185185186,0,0,0.05185185185185186,192.7333333333334,0)" xlink:href="#be"/></g><g id="T"><use transform="matrix(0.05185185185185186,0,0,0.05185185185185186,0,0)" xlink:href="#an"/><use transform="matrix(0.05185185185185186,0,0,0.05185185185185186,10.370370370370372,0)" xlink:href="#ao"/><use transform="matrix(0.05185185185185186,0,0,0.05185185185185186,20.740740740740744,0)" xlink:href="#ap"/><use transform="matrix(0.05185185185185186,0,0,0.05185185185185186,34.17037037037038,0)" xlink:href="#aq"/><use transform="matrix(0.05185185185185186,0,0,0.05185185185185186,44.54074074074075,0)" xlink:href="#ar"/><use transform="matrix(0.05185185185185186,0,0,0.05185185185185186,60.044444444444466,0)" xlink:href="#as"/><use transform="matrix(0.05185185185185186,0,0,0.05185185185185186,64.14074074074075,0)" xlink:href="#at"/><use transform="matrix(0.05185185185185186,0,0,0.05185185185185186,74.51111111111112,0)" xlink:href="#au"/><use transform="matrix(0.05185185185185186,0,0,0.05185185185185186,84.88148148148149,0)" xlink:href="#cO"/><use transform="matrix(0.05185185185185186,0,0,0.05185185185185186,98.31111111111112,0)" xlink:href="#be"/><use transform="matrix(0.05185185185185186,0,0,0.05185185185185186,108.6814814814815,0)" xlink:href="#ck"/><use transform="matrix(0.05185185185185186,0,0,0.05185185185185186,118.0148148148148,0)" xlink:href="#ao"/><use transform="matrix(0.05185185185185186,0,0,0.05185185185185186,128.38518518518518,0)" xlink:href="#aq"/><use transform="matrix(0.05185185185185186,0,0,0.05185185185185186,138.75555555555556,0)" xlink:href="#at"/><use transform="matrix(0.05185185185185186,0,0,0.05185185185185186,149.12592592592594,0)" xlink:href="#ck"/><use transform="matrix(0.05185185185185186,0,0,0.05185185185185186,158.45925925925928,0)" xlink:href="#be"/></g></defs></g></svg>